%
M48
M72
T01C0.0236
T02C0.0315
T03C0.0354
T04C0.0400
T05C0.0500
T06C0.0700
T07C0.0800
%
T01
X2100Y850
X1100Y3100
X1850Y4475
X3975Y4850
X4975Y4850
X6725Y5850
X6725Y7350
X7850Y8475
X8475Y7475
X10100Y6725
X9788Y4788
X11600Y5475
X11600Y4100
X11600Y2475
X11600Y850
X13350Y5225
X15600Y5225
X16475Y2475
X15600Y1600
X15600Y850
X19725Y850
X19725Y2475
X19725Y4850
X22100Y7225
X23225Y8350
X25600Y7225
X25600Y11225
X24350Y12475
X24100Y14475
X24100Y16100
X25725Y16100
X25725Y14475
X22350Y16100
X20475Y13850
X20475Y11975
X18850Y10600
X17975Y8475
X18725Y8100
X17100Y8475
X15350Y11350
X14725Y12225
X13600Y13850
X13225Y13225
X14725Y14975
X16225Y12975
X17100Y12725
X17100Y15725
X15600Y17850
X18225Y19600
X19475Y17225
X19475Y15475
X22225Y11975
X20475Y8100
X25600Y850
X14350Y9350
X14350Y10350
X13975Y7975
X11350Y9475
X10600Y9475
X9850Y9475
X9975Y10600
X9975Y11475
X8975Y11475
X7350Y12100
X6975Y11350
X6725Y11850
X5350Y12100
X5350Y11475
X5350Y10850
X4475Y9225
X3350Y9725
X3350Y10725
X2475Y10975
X1975Y12225
X1975Y13350
X3350Y14100
X3350Y14725
X3350Y15350
X4975Y14725
X6350Y15975
X7225Y15850
X7725Y16475
X7850Y15350
X8475Y14600
X9350Y14725
X9350Y17475
X8350Y17725
X6475Y17475
X6725Y18725
X8600Y21475
X11350Y18725
X12600Y16850
X11975Y15725
X11725Y14975
X12475Y21475
X12475Y25850
X12475Y28100
X14350Y28100
X15725Y28100
X15725Y25850
X18225Y28100
X18225Y23475
X15725Y21475
X12600Y30850
X10100Y31725
X7725Y32725
X6725Y32600
X5725Y32850
X4725Y32600
X3725Y32600
X2725Y32600
X1725Y32600
X1850Y28100
X3725Y25850
X1850Y23475
X3725Y21475
X1850Y19600
X2100Y17350
X3850Y11725
X7850Y2475
X7850Y850
X8600Y25850
X8225Y28100
T02
X7725Y29600
X6725Y29600
X5725Y29600
X4725Y29600
X3725Y29600
X2725Y29600
X1725Y29600
X8725Y29600
X14725Y29600
X15725Y29600
X16725Y29600
X17725Y18600
X1725Y18600
T03
X17850Y16255
X17850Y13695
T04
X11225Y13225
X11225Y12225
X11225Y11225
X2475Y9600
X2475Y8600
X2475Y7600
X1475Y7600
X1475Y8600
X1475Y9600
T05
X15725Y32850
T06
X14721Y31846
X14721Y33854
X16729Y33854
X16729Y31846
T07
X23225Y4025
X23225Y2225
M30
