G75*
%MOIN*%
%OFA0B0*%
%FSLAX24Y24*%
%IPPOS*%
%LPD*%
%AMOC8*
5,1,8,0,0,1.08239X$1,22.5*
%
%ADD10C,0.0634*%
%ADD11C,0.0880*%
%ADD12C,0.0830*%
%ADD13C,0.1130*%
%ADD14C,0.0680*%
%ADD15C,0.0680*%
%ADD16OC8,0.0680*%
%ADD17C,0.0595*%
%ADD18R,0.0595X0.0595*%
%ADD19OC8,0.0476*%
D10*
X017850Y013695D03*
X017850Y016255D03*
D11*
X023225Y004025D03*
X023225Y002225D03*
D12*
X015725Y032850D03*
D13*
X014721Y031846D03*
X014721Y033854D03*
X016729Y033854D03*
X016729Y031846D03*
D14*
X011525Y013225D02*
X010925Y013225D01*
X010925Y012225D02*
X011525Y012225D01*
X011525Y011225D02*
X010925Y011225D01*
D15*
X001475Y009600D03*
D16*
X001475Y008600D03*
X001475Y007600D03*
X002475Y007600D03*
X002475Y008600D03*
X002475Y009600D03*
D17*
X002725Y029600D03*
X003725Y029600D03*
X004725Y029600D03*
X005725Y029600D03*
X006725Y029600D03*
X007725Y029600D03*
X008725Y029600D03*
X014725Y029600D03*
X015725Y029600D03*
X016725Y029600D03*
X001725Y029600D03*
D18*
X001725Y018600D03*
X017725Y018600D03*
D19*
X002100Y000850D03*
X001100Y003100D03*
X001850Y004475D03*
X003975Y004850D03*
X004975Y004850D03*
X006725Y005850D03*
X006725Y007350D03*
X007850Y008475D03*
X008475Y007475D03*
X010100Y006725D03*
X009788Y004788D03*
X011600Y005475D03*
X011600Y004100D03*
X011600Y002475D03*
X011600Y000850D03*
X013350Y005225D03*
X015600Y005225D03*
X016475Y002475D03*
X015600Y001600D03*
X015600Y000850D03*
X019725Y000850D03*
X019725Y002475D03*
X019725Y004850D03*
X022100Y007225D03*
X023225Y008350D03*
X025600Y007225D03*
X025600Y011225D03*
X024350Y012475D03*
X024100Y014475D03*
X024100Y016100D03*
X025725Y016100D03*
X025725Y014475D03*
X022350Y016100D03*
X020475Y013850D03*
X020475Y011975D03*
X018850Y010600D03*
X017975Y008475D03*
X018725Y008100D03*
X017100Y008475D03*
X015350Y011350D03*
X014725Y012225D03*
X013600Y013850D03*
X013225Y013225D03*
X014725Y014975D03*
X016225Y012975D03*
X017100Y012725D03*
X017100Y015725D03*
X015600Y017850D03*
X018225Y019600D03*
X019475Y017225D03*
X019475Y015475D03*
X022225Y011975D03*
X020475Y008100D03*
X025600Y000850D03*
X014350Y009350D03*
X014350Y010350D03*
X013975Y007975D03*
X011350Y009475D03*
X010600Y009475D03*
X009850Y009475D03*
X009975Y010600D03*
X009975Y011475D03*
X008975Y011475D03*
X007350Y012100D03*
X006975Y011350D03*
X006725Y011850D03*
X005350Y012100D03*
X005350Y011475D03*
X005350Y010850D03*
X004475Y009225D03*
X003350Y009725D03*
X003350Y010725D03*
X002475Y010975D03*
X001975Y012225D03*
X001975Y013350D03*
X003350Y014100D03*
X003350Y014725D03*
X003350Y015350D03*
X004975Y014725D03*
X006350Y015975D03*
X007225Y015850D03*
X007725Y016475D03*
X007850Y015350D03*
X008475Y014600D03*
X009350Y014725D03*
X009350Y017475D03*
X008350Y017725D03*
X006475Y017475D03*
X006725Y018725D03*
X008600Y021475D03*
X011350Y018725D03*
X012600Y016850D03*
X011975Y015725D03*
X011725Y014975D03*
X012475Y021475D03*
X012475Y025850D03*
X012475Y028100D03*
X014350Y028100D03*
X015725Y028100D03*
X015725Y025850D03*
X018225Y028100D03*
X018225Y023475D03*
X015725Y021475D03*
X012600Y030850D03*
X010100Y031725D03*
X007725Y032725D03*
X006725Y032600D03*
X005725Y032850D03*
X004725Y032600D03*
X003725Y032600D03*
X002725Y032600D03*
X001725Y032600D03*
X001850Y028100D03*
X003725Y025850D03*
X001850Y023475D03*
X003725Y021475D03*
X001850Y019600D03*
X002100Y017350D03*
X003850Y011725D03*
X007850Y002475D03*
X007850Y000850D03*
X008600Y025850D03*
X008225Y028100D03*
M02*
