G75*
%MOIN*%
%OFA0B0*%
%FSLAX24Y24*%
%IPPOS*%
%LPD*%
%AMOC8*
5,1,8,0,0,1.08239X$1,22.5*
%
%ADD10C,0.0030*%
%ADD11C,0.0000*%
%ADD12C,0.0020*%
%ADD13C,0.0060*%
%ADD14C,0.0100*%
%ADD15R,0.0409X0.0589*%
%ADD16R,0.0394X0.0589*%
%ADD17R,0.0378X0.0589*%
%ADD18C,0.0080*%
%ADD19R,0.0128X0.0167*%
%ADD20R,0.0138X0.0138*%
%ADD21C,0.0050*%
%ADD22C,0.0040*%
%ADD23C,0.0039*%
%ADD24C,0.0472*%
%ADD25R,0.0335X0.0295*%
%ADD26R,0.0531X0.0354*%
%ADD27C,0.0157*%
%ADD28C,0.0200*%
D10*
X003170Y008115D02*
X003170Y008212D01*
X003170Y008163D02*
X003460Y008163D01*
X003460Y008115D02*
X003460Y008212D01*
X003412Y008311D02*
X003218Y008311D01*
X003170Y008360D01*
X003170Y008457D01*
X003218Y008505D01*
X003218Y008606D02*
X003267Y008606D01*
X003315Y008654D01*
X003315Y008751D01*
X003363Y008800D01*
X003412Y008800D01*
X003460Y008751D01*
X003460Y008654D01*
X003412Y008606D01*
X003412Y008505D02*
X003460Y008457D01*
X003460Y008360D01*
X003412Y008311D01*
X003218Y008606D02*
X003170Y008654D01*
X003170Y008751D01*
X003218Y008800D01*
X003170Y008901D02*
X003170Y009046D01*
X003218Y009094D01*
X003315Y009094D01*
X003363Y009046D01*
X003363Y008901D01*
X003460Y008901D02*
X003170Y008901D01*
X007990Y008280D02*
X007990Y007990D01*
X007990Y008087D02*
X008135Y008087D01*
X008183Y008135D01*
X008183Y008232D01*
X008135Y008280D01*
X007990Y008280D01*
X008087Y008087D02*
X008183Y007990D01*
X008285Y008038D02*
X008285Y008135D01*
X008333Y008183D01*
X008430Y008183D01*
X008478Y008135D01*
X008478Y008087D01*
X008285Y008087D01*
X008285Y008038D02*
X008333Y007990D01*
X008430Y007990D01*
X008579Y007990D02*
X008724Y007990D01*
X008773Y008038D01*
X008724Y008087D01*
X008628Y008087D01*
X008579Y008135D01*
X008628Y008183D01*
X008773Y008183D01*
X008874Y008135D02*
X008922Y008183D01*
X009019Y008183D01*
X009067Y008135D01*
X009067Y008087D01*
X008874Y008087D01*
X008874Y008135D02*
X008874Y008038D01*
X008922Y007990D01*
X009019Y007990D01*
X009217Y008038D02*
X009265Y007990D01*
X009217Y008038D02*
X009217Y008232D01*
X009169Y008183D02*
X009265Y008183D01*
X009740Y012365D02*
X009740Y012655D01*
X009885Y012655D01*
X009933Y012607D01*
X009933Y012510D01*
X009885Y012462D01*
X009740Y012462D01*
X009837Y012462D02*
X009933Y012365D01*
X010035Y012365D02*
X010228Y012655D01*
X010228Y012845D02*
X010035Y013135D01*
X009933Y013135D02*
X009740Y013135D01*
X009837Y013135D02*
X009837Y012845D01*
X010035Y012845D02*
X010228Y013135D01*
X010228Y013325D02*
X010228Y013615D01*
X010329Y013615D02*
X010329Y013325D01*
X010474Y013325D01*
X010523Y013373D01*
X010523Y013567D01*
X010474Y013615D01*
X010329Y013615D01*
X010035Y013615D02*
X010228Y013325D01*
X010035Y013325D02*
X010035Y013615D01*
X009933Y013567D02*
X009885Y013615D01*
X009788Y013615D01*
X009740Y013567D01*
X009740Y013373D01*
X009788Y013325D01*
X009885Y013325D01*
X009933Y013373D01*
X009933Y013470D01*
X009837Y013470D01*
X010035Y012655D02*
X010228Y012365D01*
X004148Y015990D02*
X003954Y015990D01*
X003954Y016280D01*
X003853Y016232D02*
X003805Y016280D01*
X003708Y016280D01*
X003660Y016232D01*
X003660Y016038D01*
X003708Y015990D01*
X003805Y015990D01*
X003853Y016038D01*
X003558Y016038D02*
X003510Y015990D01*
X003413Y015990D01*
X003365Y016038D01*
X003413Y016135D02*
X003510Y016135D01*
X003558Y016087D01*
X003558Y016038D01*
X003413Y016135D02*
X003365Y016183D01*
X003365Y016232D01*
X003413Y016280D01*
X003510Y016280D01*
X003558Y016232D01*
X003510Y016470D02*
X003413Y016470D01*
X003365Y016518D01*
X003413Y016615D02*
X003510Y016615D01*
X003558Y016567D01*
X003558Y016518D01*
X003510Y016470D01*
X003660Y016470D02*
X003805Y016470D01*
X003853Y016518D01*
X003853Y016712D01*
X003805Y016760D01*
X003660Y016760D01*
X003660Y016470D01*
X003558Y016712D02*
X003510Y016760D01*
X003413Y016760D01*
X003365Y016712D01*
X003365Y016663D01*
X003413Y016615D01*
X003413Y016950D02*
X003365Y016998D01*
X003413Y016950D02*
X003510Y016950D01*
X003558Y016998D01*
X003558Y017047D01*
X003510Y017095D01*
X003462Y017095D01*
X003510Y017095D02*
X003558Y017143D01*
X003558Y017192D01*
X003510Y017240D01*
X003413Y017240D01*
X003365Y017192D01*
X003413Y017430D02*
X003510Y017430D01*
X003558Y017478D01*
X003558Y017575D01*
X003462Y017575D01*
X003558Y017672D02*
X003510Y017720D01*
X003413Y017720D01*
X003365Y017672D01*
X003365Y017478D01*
X003413Y017430D01*
X003660Y017430D02*
X003660Y017720D01*
X003853Y017430D01*
X003853Y017720D01*
X003954Y017720D02*
X004099Y017720D01*
X004148Y017672D01*
X004148Y017478D01*
X004099Y017430D01*
X003954Y017430D01*
X003954Y017720D01*
X003952Y017240D02*
X004000Y017192D01*
X004000Y017143D01*
X003952Y017095D01*
X004000Y017047D01*
X004000Y016998D01*
X003952Y016950D01*
X003855Y016950D01*
X003807Y016998D01*
X003708Y016998D02*
X003708Y016950D01*
X003660Y016950D01*
X003660Y016998D01*
X003708Y016998D01*
X003807Y017192D02*
X003855Y017240D01*
X003952Y017240D01*
X003952Y017095D02*
X003904Y017095D01*
X004051Y016760D02*
X003954Y016663D01*
X003954Y016470D01*
X003954Y016615D02*
X004148Y016615D01*
X004148Y016663D02*
X004148Y016470D01*
X004148Y016663D02*
X004051Y016760D01*
X013218Y032615D02*
X013170Y032663D01*
X013170Y032760D01*
X013218Y032808D01*
X013315Y032760D02*
X013363Y032808D01*
X013412Y032808D01*
X013460Y032760D01*
X013460Y032663D01*
X013412Y032615D01*
X013315Y032663D02*
X013315Y032760D01*
X013315Y032663D02*
X013267Y032615D01*
X013218Y032615D01*
X013267Y032910D02*
X013267Y033006D01*
X013218Y032958D02*
X013412Y032958D01*
X013460Y033006D01*
X013412Y033106D02*
X013363Y033154D01*
X013363Y033300D01*
X013315Y033300D02*
X013460Y033300D01*
X013460Y033154D01*
X013412Y033106D01*
X013267Y033154D02*
X013267Y033251D01*
X013315Y033300D01*
X013267Y033401D02*
X013267Y033497D01*
X013218Y033449D02*
X013412Y033449D01*
X013460Y033497D01*
X013412Y033597D02*
X013460Y033646D01*
X013460Y033791D01*
X013267Y033791D01*
X013315Y033892D02*
X013267Y033940D01*
X013267Y034085D01*
X013363Y034037D02*
X013363Y033940D01*
X013315Y033892D01*
X013460Y033892D02*
X013460Y034037D01*
X013412Y034085D01*
X013363Y034037D01*
X013412Y033597D02*
X013267Y033597D01*
X011085Y033631D02*
X010795Y033631D01*
X010795Y033535D02*
X010795Y033728D01*
X010795Y033829D02*
X010795Y034023D01*
X010795Y033926D02*
X011085Y033926D01*
X010940Y033433D02*
X010988Y033385D01*
X010988Y033240D01*
X011085Y033240D02*
X010795Y033240D01*
X010795Y033385D01*
X010843Y033433D01*
X010940Y033433D01*
X017871Y033931D02*
X017920Y033931D01*
X018017Y033931D02*
X018210Y033931D01*
X018210Y033883D02*
X018210Y033980D01*
X018162Y034128D02*
X018210Y034176D01*
X018162Y034128D02*
X017968Y034128D01*
X018017Y034176D02*
X018017Y034079D01*
X018017Y033931D02*
X018017Y033883D01*
X018065Y033782D02*
X018210Y033782D01*
X018210Y033685D02*
X018065Y033685D01*
X018017Y033733D01*
X018065Y033782D01*
X018065Y033685D02*
X018017Y033637D01*
X018017Y033588D01*
X018210Y033588D01*
X018210Y033487D02*
X017920Y033294D01*
X017920Y033487D02*
X018210Y033294D01*
X017920Y032898D02*
X017920Y032704D01*
X018210Y032704D01*
X018210Y032603D02*
X017920Y032603D01*
X018065Y032603D02*
X018065Y032410D01*
X018113Y032308D02*
X017920Y032308D01*
X017920Y032410D02*
X018210Y032410D01*
X018113Y032308D02*
X018210Y032212D01*
X018113Y032115D01*
X017920Y032115D01*
X018065Y032704D02*
X018065Y032801D01*
X020893Y028146D02*
X020845Y028097D01*
X020845Y028001D01*
X020893Y027952D01*
X021087Y027952D01*
X021135Y028001D01*
X021135Y028097D01*
X021087Y028146D01*
X021135Y027851D02*
X021135Y027658D01*
X020845Y027658D01*
X020655Y027532D02*
X020655Y027338D01*
X020462Y027532D01*
X020413Y027532D01*
X020365Y027483D01*
X020365Y027387D01*
X020413Y027338D01*
X020413Y027237D02*
X020607Y027044D01*
X020655Y027092D01*
X020655Y027189D01*
X020607Y027237D01*
X020413Y027237D01*
X020365Y027189D01*
X020365Y027092D01*
X020413Y027044D01*
X020607Y027044D01*
X020607Y026945D02*
X020655Y026945D01*
X020655Y026896D01*
X020607Y026896D01*
X020607Y026945D01*
X020655Y026795D02*
X020655Y026602D01*
X020655Y026698D02*
X020365Y026698D01*
X020462Y026602D01*
X020462Y026501D02*
X020655Y026404D01*
X020462Y026307D01*
X020462Y025911D02*
X020655Y025718D01*
X020558Y025617D02*
X020558Y025423D01*
X020510Y025423D02*
X020462Y025471D01*
X020462Y025568D01*
X020510Y025617D01*
X020558Y025617D01*
X020655Y025568D02*
X020655Y025471D01*
X020607Y025423D01*
X020510Y025423D01*
X020655Y025323D02*
X020655Y025227D01*
X020655Y025275D02*
X020365Y025275D01*
X020365Y025227D01*
X020365Y025125D02*
X020365Y024932D01*
X020655Y024932D01*
X020510Y024932D02*
X020510Y025029D01*
X020845Y024807D02*
X020845Y024710D01*
X020893Y024662D01*
X020942Y024662D01*
X020990Y024710D01*
X020990Y024807D01*
X021038Y024855D01*
X021087Y024855D01*
X021135Y024807D01*
X021135Y024710D01*
X021087Y024662D01*
X020893Y024855D02*
X020845Y024807D01*
X020990Y024957D02*
X020942Y025005D01*
X020942Y025102D01*
X020990Y025150D01*
X021038Y025150D01*
X021038Y024957D01*
X020990Y024957D02*
X021087Y024957D01*
X021135Y025005D01*
X021135Y025102D01*
X021135Y025251D02*
X020942Y025251D01*
X021038Y025251D02*
X020942Y025348D01*
X020942Y025396D01*
X020942Y025497D02*
X021135Y025593D01*
X020942Y025690D01*
X020942Y025791D02*
X020942Y025840D01*
X021135Y025840D01*
X021135Y025888D02*
X021135Y025791D01*
X021087Y025988D02*
X020990Y025988D01*
X020942Y026036D01*
X020942Y026181D01*
X020990Y026282D02*
X020942Y026331D01*
X020942Y026428D01*
X020990Y026476D01*
X021038Y026476D01*
X021038Y026282D01*
X020990Y026282D02*
X021087Y026282D01*
X021135Y026331D01*
X021135Y026428D01*
X021135Y026577D02*
X021135Y026722D01*
X021087Y026771D01*
X021038Y026722D01*
X021038Y026625D01*
X020990Y026577D01*
X020942Y026625D01*
X020942Y026771D01*
X021087Y026920D02*
X021135Y026920D01*
X021135Y026969D01*
X021087Y026969D01*
X021087Y026920D01*
X021135Y026969D02*
X021232Y026872D01*
X021422Y026649D02*
X021470Y026697D01*
X021615Y026697D01*
X021615Y026600D02*
X021470Y026600D01*
X021422Y026649D01*
X021470Y026600D02*
X021422Y026552D01*
X021422Y026503D01*
X021615Y026503D01*
X021567Y026402D02*
X021615Y026354D01*
X021615Y026257D01*
X021567Y026209D01*
X021470Y026209D01*
X021422Y026257D01*
X021422Y026354D01*
X021470Y026402D01*
X021567Y026402D01*
X021615Y026108D02*
X021615Y025963D01*
X021567Y025914D01*
X021470Y025914D01*
X021422Y025963D01*
X021422Y026108D01*
X021135Y026036D02*
X021135Y026181D01*
X021135Y026036D02*
X021087Y025988D01*
X020845Y025840D02*
X020796Y025840D01*
X020655Y025911D02*
X020462Y025718D01*
X020462Y024537D02*
X020558Y024392D01*
X020655Y024537D01*
X020655Y024392D02*
X020365Y024392D01*
X020462Y024291D02*
X020462Y024146D01*
X020510Y024097D01*
X020607Y024097D01*
X020655Y024146D01*
X020655Y024291D01*
X020845Y024219D02*
X021135Y024219D01*
X021135Y024171D02*
X021135Y024268D01*
X021135Y024070D02*
X021135Y023925D01*
X021087Y023876D01*
X021038Y023925D01*
X021038Y024070D01*
X020990Y024070D02*
X021135Y024070D01*
X020990Y024070D02*
X020942Y024021D01*
X020942Y023925D01*
X020942Y023776D02*
X020942Y023680D01*
X020893Y023728D02*
X021087Y023728D01*
X021135Y023776D01*
X021135Y023580D02*
X021135Y023483D01*
X021135Y023532D02*
X020942Y023532D01*
X020942Y023483D01*
X020942Y023382D02*
X020942Y023237D01*
X020990Y023189D01*
X021087Y023189D01*
X021135Y023237D01*
X021135Y023382D01*
X021183Y023382D02*
X020942Y023382D01*
X020845Y023532D02*
X020796Y023532D01*
X020655Y023557D02*
X020462Y023557D01*
X020558Y023557D02*
X020462Y023654D01*
X020462Y023702D01*
X020462Y023851D02*
X020462Y023948D01*
X020510Y023996D01*
X020655Y023996D01*
X020655Y023851D01*
X020607Y023802D01*
X020558Y023851D01*
X020558Y023996D01*
X020845Y024171D02*
X020845Y024219D01*
X021373Y024146D02*
X021567Y024146D01*
X021615Y024194D01*
X021567Y024294D02*
X021615Y024342D01*
X021615Y024439D01*
X021567Y024487D01*
X021470Y024487D01*
X021422Y024439D01*
X021422Y024342D01*
X021470Y024294D01*
X021567Y024294D01*
X021422Y024194D02*
X021422Y024097D01*
X021422Y023996D02*
X021422Y023851D01*
X021470Y023802D01*
X021518Y023851D01*
X021518Y023948D01*
X021567Y023996D01*
X021615Y023948D01*
X021615Y023802D01*
X021615Y023701D02*
X021422Y023701D01*
X021615Y023701D02*
X021615Y023556D01*
X021567Y023508D01*
X021422Y023508D01*
X021422Y023407D02*
X021422Y023262D01*
X021470Y023213D01*
X021567Y023213D01*
X021615Y023262D01*
X021615Y023407D01*
X021615Y023114D02*
X021567Y023114D01*
X021567Y023066D01*
X021615Y023066D01*
X021615Y023114D01*
X021567Y022965D02*
X021615Y022916D01*
X021567Y022868D01*
X021615Y022820D01*
X021567Y022771D01*
X021422Y022771D01*
X021422Y022670D02*
X021567Y022670D01*
X021615Y022622D01*
X021567Y022573D01*
X021615Y022525D01*
X021567Y022477D01*
X021422Y022477D01*
X021422Y022375D02*
X021567Y022375D01*
X021615Y022327D01*
X021567Y022279D01*
X021615Y022230D01*
X021567Y022182D01*
X021422Y022182D01*
X021135Y022205D02*
X020990Y022205D01*
X020942Y022253D01*
X020990Y022302D01*
X021135Y022302D01*
X020990Y022205D02*
X020942Y022157D01*
X020942Y022108D01*
X021135Y022108D01*
X021087Y022007D02*
X020990Y022007D01*
X020942Y021959D01*
X020942Y021862D01*
X020990Y021814D01*
X021087Y021814D01*
X021135Y021862D01*
X021135Y021959D01*
X021087Y022007D01*
X021135Y021714D02*
X021087Y021666D01*
X020893Y021666D01*
X020942Y021714D02*
X020942Y021617D01*
X020942Y021516D02*
X020942Y021371D01*
X020990Y021322D01*
X021038Y021371D01*
X021038Y021468D01*
X021087Y021516D01*
X021135Y021468D01*
X021135Y021322D01*
X021135Y021221D02*
X020942Y021221D01*
X021135Y021221D02*
X021135Y021076D01*
X021087Y021028D01*
X020942Y021028D01*
X020893Y020927D02*
X020845Y020878D01*
X020845Y020782D01*
X020893Y020733D01*
X021087Y020733D01*
X021135Y020782D01*
X021135Y020878D01*
X021087Y020927D01*
X020655Y021347D02*
X020462Y021347D01*
X020365Y021444D01*
X020462Y021541D01*
X020655Y021541D01*
X020655Y021642D02*
X020462Y021642D01*
X020558Y021642D02*
X020462Y021738D01*
X020462Y021787D01*
X020510Y021887D02*
X020462Y021936D01*
X020462Y022081D01*
X020365Y022081D02*
X020655Y022081D01*
X020655Y021936D01*
X020607Y021887D01*
X020510Y021887D01*
X020462Y022182D02*
X020607Y022182D01*
X020655Y022230D01*
X020655Y022375D01*
X020462Y022375D01*
X020462Y022477D02*
X020462Y022525D01*
X020655Y022525D01*
X020655Y022477D02*
X020655Y022573D01*
X020655Y022673D02*
X020462Y022673D01*
X020462Y022818D01*
X020510Y022866D01*
X020655Y022866D01*
X020607Y022968D02*
X020655Y023016D01*
X020655Y023113D01*
X020607Y023161D01*
X020510Y023161D01*
X020462Y023113D01*
X020462Y023016D01*
X020510Y022968D01*
X020607Y022968D01*
X020796Y023041D02*
X020845Y023041D01*
X020942Y023041D02*
X021135Y023041D01*
X021135Y023089D02*
X021135Y022992D01*
X021087Y022891D02*
X020893Y022891D01*
X020845Y022843D01*
X020845Y022698D01*
X021135Y022698D01*
X021135Y022843D01*
X021087Y022891D01*
X020942Y022992D02*
X020942Y023041D01*
X021232Y023285D02*
X021232Y023334D01*
X021183Y023382D01*
X021422Y022965D02*
X021567Y022965D01*
X020655Y023359D02*
X020365Y023359D01*
X020365Y023262D02*
X020365Y023456D01*
X020365Y022525D02*
X020316Y022525D01*
X020510Y021541D02*
X020510Y021347D01*
X021756Y019335D02*
X022002Y019335D01*
X022124Y019335D02*
X022124Y018965D01*
X022124Y019150D02*
X022371Y019150D01*
X022371Y019335D02*
X022371Y018965D01*
X022492Y018965D02*
X022616Y018965D01*
X022554Y018965D02*
X022554Y019335D01*
X022492Y019335D02*
X022616Y019335D01*
X022738Y019274D02*
X022738Y019212D01*
X022799Y019150D01*
X022923Y019150D01*
X022985Y019088D01*
X022985Y019027D01*
X022923Y018965D01*
X022799Y018965D01*
X022738Y019027D01*
X022738Y019274D02*
X022799Y019335D01*
X022923Y019335D01*
X022985Y019274D01*
X023106Y018735D02*
X023106Y018427D01*
X023168Y018365D01*
X023291Y018365D01*
X023353Y018427D01*
X023353Y018735D01*
X023474Y018735D02*
X023474Y018365D01*
X023474Y018488D02*
X023660Y018488D01*
X023721Y018550D01*
X023721Y018674D01*
X023660Y018735D01*
X023474Y018735D01*
X024295Y018913D02*
X024343Y018865D01*
X024537Y018865D01*
X024585Y018913D01*
X024585Y019010D01*
X024537Y019058D01*
X024440Y019058D01*
X024440Y018962D01*
X024343Y019058D02*
X024295Y019010D01*
X024295Y018913D01*
X024295Y019160D02*
X024295Y019305D01*
X024343Y019353D01*
X024440Y019353D01*
X024488Y019305D01*
X024488Y019160D01*
X024585Y019160D02*
X024295Y019160D01*
X024343Y019454D02*
X024392Y019454D01*
X024440Y019503D01*
X024440Y019599D01*
X024488Y019648D01*
X024537Y019648D01*
X024585Y019599D01*
X024585Y019503D01*
X024537Y019454D01*
X024343Y019454D02*
X024295Y019503D01*
X024295Y019599D01*
X024343Y019648D01*
X024392Y020044D02*
X024295Y020140D01*
X024392Y020237D01*
X024585Y020237D01*
X024585Y020338D02*
X024392Y020338D01*
X024392Y020483D01*
X024440Y020532D01*
X024585Y020532D01*
X024537Y020681D02*
X024585Y020730D01*
X024537Y020681D02*
X024343Y020681D01*
X024392Y020633D02*
X024392Y020730D01*
X024440Y020829D02*
X024392Y020878D01*
X024392Y020974D01*
X024440Y021023D01*
X024488Y021023D01*
X024488Y020829D01*
X024440Y020829D02*
X024537Y020829D01*
X024585Y020878D01*
X024585Y020974D01*
X024585Y021124D02*
X024392Y021124D01*
X024392Y021269D01*
X024440Y021317D01*
X024585Y021317D01*
X024585Y021419D02*
X024392Y021419D01*
X024392Y021564D01*
X024440Y021612D01*
X024585Y021612D01*
X024537Y021713D02*
X024585Y021762D01*
X024585Y021907D01*
X024440Y021907D01*
X024392Y021858D01*
X024392Y021762D01*
X024488Y021762D02*
X024488Y021907D01*
X024488Y021762D02*
X024537Y021713D01*
X024440Y020237D02*
X024440Y020044D01*
X024392Y020044D02*
X024585Y020044D01*
X022616Y018735D02*
X022369Y018735D01*
X022369Y018365D01*
X022616Y018365D01*
X022493Y018550D02*
X022369Y018550D01*
X022248Y018427D02*
X022248Y018674D01*
X022186Y018735D01*
X022001Y018735D01*
X022001Y018365D01*
X022186Y018365D01*
X022248Y018427D01*
X021879Y018365D02*
X021756Y018365D01*
X021817Y018365D02*
X021817Y018735D01*
X021756Y018735D02*
X021879Y018735D01*
X021879Y018965D02*
X021879Y019335D01*
X021572Y018735D02*
X021449Y018735D01*
X021387Y018674D01*
X021387Y018612D01*
X021449Y018550D01*
X021572Y018550D01*
X021634Y018488D01*
X021634Y018427D01*
X021572Y018365D01*
X021449Y018365D01*
X021387Y018427D01*
X021634Y018674D02*
X021572Y018735D01*
X021615Y024588D02*
X021422Y024588D01*
X021422Y024637D01*
X021470Y024685D01*
X021422Y024733D01*
X021470Y024782D01*
X021615Y024782D01*
X021615Y024685D02*
X021470Y024685D01*
X021470Y024883D02*
X021470Y025076D01*
X021470Y025178D02*
X021422Y025226D01*
X021422Y025371D01*
X021325Y025371D02*
X021615Y025371D01*
X021615Y025226D01*
X021567Y025178D01*
X021470Y025178D01*
X021470Y025472D02*
X021422Y025521D01*
X021422Y025666D01*
X021518Y025617D02*
X021518Y025521D01*
X021470Y025472D01*
X021615Y025472D02*
X021615Y025617D01*
X021567Y025666D01*
X021518Y025617D01*
X021567Y025767D02*
X021567Y025815D01*
X021615Y025815D01*
X021615Y025767D01*
X021567Y025767D01*
X021135Y027363D02*
X020845Y027363D01*
X021135Y027363D02*
X021135Y027556D01*
X023308Y006655D02*
X023212Y006607D01*
X023115Y006510D01*
X023260Y006510D01*
X023308Y006462D01*
X023308Y006413D01*
X023260Y006365D01*
X023163Y006365D01*
X023115Y006413D01*
X023115Y006510D01*
X023410Y006413D02*
X023410Y006365D01*
X023458Y006365D01*
X023458Y006413D01*
X023410Y006413D01*
X023557Y006413D02*
X023605Y006365D01*
X023702Y006365D01*
X023750Y006413D01*
X023750Y006510D01*
X023702Y006558D01*
X023654Y006558D01*
X023557Y006510D01*
X023557Y006655D01*
X023750Y006655D01*
X023852Y006510D02*
X024045Y006510D01*
X024146Y006558D02*
X024243Y006655D01*
X024243Y006365D01*
X024146Y006365D02*
X024340Y006365D01*
X024441Y006510D02*
X024634Y006510D01*
X024736Y006462D02*
X024832Y006365D01*
X024929Y006462D01*
X024929Y006655D01*
X024736Y006655D02*
X024736Y006462D01*
X024586Y006365D02*
X024586Y006655D01*
X024441Y006510D01*
X025325Y006365D02*
X025470Y006365D01*
X025518Y006413D01*
X025518Y006607D01*
X025470Y006655D01*
X025325Y006655D01*
X025325Y006365D01*
X025620Y006413D02*
X025668Y006365D01*
X025765Y006365D01*
X025813Y006413D01*
X025620Y006413D02*
X025620Y006607D01*
X025668Y006655D01*
X025765Y006655D01*
X025813Y006607D01*
D11*
X000600Y000100D02*
X000100Y000600D01*
X000100Y034600D01*
X000600Y035100D01*
X018350Y035100D01*
X026600Y021600D01*
X026600Y000600D01*
X026100Y000100D01*
X000600Y000100D01*
X022825Y002225D02*
X022827Y002265D01*
X022833Y002304D01*
X022843Y002343D01*
X022856Y002380D01*
X022874Y002416D01*
X022895Y002450D01*
X022919Y002482D01*
X022946Y002511D01*
X022976Y002538D01*
X023008Y002561D01*
X023043Y002581D01*
X023079Y002597D01*
X023117Y002610D01*
X023156Y002619D01*
X023195Y002624D01*
X023235Y002625D01*
X023275Y002622D01*
X023314Y002615D01*
X023352Y002604D01*
X023390Y002590D01*
X023425Y002571D01*
X023458Y002550D01*
X023490Y002525D01*
X023518Y002497D01*
X023544Y002467D01*
X023566Y002434D01*
X023585Y002399D01*
X023601Y002362D01*
X023613Y002324D01*
X023621Y002285D01*
X023625Y002245D01*
X023625Y002205D01*
X023621Y002165D01*
X023613Y002126D01*
X023601Y002088D01*
X023585Y002051D01*
X023566Y002016D01*
X023544Y001983D01*
X023518Y001953D01*
X023490Y001925D01*
X023458Y001900D01*
X023425Y001879D01*
X023390Y001860D01*
X023352Y001846D01*
X023314Y001835D01*
X023275Y001828D01*
X023235Y001825D01*
X023195Y001826D01*
X023156Y001831D01*
X023117Y001840D01*
X023079Y001853D01*
X023043Y001869D01*
X023008Y001889D01*
X022976Y001912D01*
X022946Y001939D01*
X022919Y001968D01*
X022895Y002000D01*
X022874Y002034D01*
X022856Y002070D01*
X022843Y002107D01*
X022833Y002146D01*
X022827Y002185D01*
X022825Y002225D01*
X022825Y004025D02*
X022827Y004065D01*
X022833Y004104D01*
X022843Y004143D01*
X022856Y004180D01*
X022874Y004216D01*
X022895Y004250D01*
X022919Y004282D01*
X022946Y004311D01*
X022976Y004338D01*
X023008Y004361D01*
X023043Y004381D01*
X023079Y004397D01*
X023117Y004410D01*
X023156Y004419D01*
X023195Y004424D01*
X023235Y004425D01*
X023275Y004422D01*
X023314Y004415D01*
X023352Y004404D01*
X023390Y004390D01*
X023425Y004371D01*
X023458Y004350D01*
X023490Y004325D01*
X023518Y004297D01*
X023544Y004267D01*
X023566Y004234D01*
X023585Y004199D01*
X023601Y004162D01*
X023613Y004124D01*
X023621Y004085D01*
X023625Y004045D01*
X023625Y004005D01*
X023621Y003965D01*
X023613Y003926D01*
X023601Y003888D01*
X023585Y003851D01*
X023566Y003816D01*
X023544Y003783D01*
X023518Y003753D01*
X023490Y003725D01*
X023458Y003700D01*
X023425Y003679D01*
X023390Y003660D01*
X023352Y003646D01*
X023314Y003635D01*
X023275Y003628D01*
X023235Y003625D01*
X023195Y003626D01*
X023156Y003631D01*
X023117Y003640D01*
X023079Y003653D01*
X023043Y003669D01*
X023008Y003689D01*
X022976Y003712D01*
X022946Y003739D01*
X022919Y003768D01*
X022895Y003800D01*
X022874Y003834D01*
X022856Y003870D01*
X022843Y003907D01*
X022833Y003946D01*
X022827Y003985D01*
X022825Y004025D01*
D12*
X021656Y008510D02*
X021656Y008547D01*
X021803Y008693D01*
X021803Y008730D01*
X021656Y008730D01*
X021582Y008693D02*
X021582Y008620D01*
X021545Y008583D01*
X021435Y008583D01*
X021435Y008510D02*
X021435Y008730D01*
X021545Y008730D01*
X021582Y008693D01*
X021508Y008583D02*
X021582Y008510D01*
X021149Y008510D02*
X021002Y008510D01*
X021075Y008510D02*
X021075Y008730D01*
X021002Y008657D01*
X020928Y008510D02*
X020781Y008510D01*
X020854Y008510D02*
X020854Y008730D01*
X020781Y008657D01*
X020707Y008693D02*
X020707Y008620D01*
X020670Y008583D01*
X020560Y008583D01*
X020560Y008510D02*
X020560Y008730D01*
X020670Y008730D01*
X020707Y008693D01*
X020633Y008583D02*
X020707Y008510D01*
X020024Y008547D02*
X019987Y008510D01*
X019914Y008510D01*
X019877Y008547D01*
X019877Y008620D02*
X019950Y008657D01*
X019987Y008657D01*
X020024Y008620D01*
X020024Y008547D01*
X019877Y008620D02*
X019877Y008730D01*
X020024Y008730D01*
X019729Y008730D02*
X019729Y008510D01*
X019656Y008510D02*
X019803Y008510D01*
X019656Y008657D02*
X019729Y008730D01*
X019582Y008693D02*
X019582Y008620D01*
X019545Y008583D01*
X019435Y008583D01*
X019435Y008510D02*
X019435Y008730D01*
X019545Y008730D01*
X019582Y008693D01*
X019508Y008583D02*
X019582Y008510D01*
X019149Y008620D02*
X019002Y008620D01*
X019112Y008730D01*
X019112Y008510D01*
X018928Y008510D02*
X018781Y008510D01*
X018854Y008510D02*
X018854Y008730D01*
X018781Y008657D01*
X018707Y008693D02*
X018707Y008620D01*
X018670Y008583D01*
X018560Y008583D01*
X018560Y008510D02*
X018560Y008730D01*
X018670Y008730D01*
X018707Y008693D01*
X018633Y008583D02*
X018707Y008510D01*
X018099Y010470D02*
X018026Y010470D01*
X017989Y010507D01*
X017989Y010580D02*
X018062Y010617D01*
X018099Y010617D01*
X018136Y010580D01*
X018136Y010507D01*
X018099Y010470D01*
X017989Y010580D02*
X017989Y010690D01*
X018136Y010690D01*
X017915Y010653D02*
X017878Y010690D01*
X017805Y010690D01*
X017768Y010653D01*
X017768Y010507D01*
X017805Y010470D01*
X017878Y010470D01*
X017915Y010507D01*
X017261Y010507D02*
X017224Y010470D01*
X017151Y010470D01*
X017114Y010507D01*
X017040Y010507D02*
X017003Y010470D01*
X016930Y010470D01*
X016893Y010507D01*
X016893Y010653D01*
X016930Y010690D01*
X017003Y010690D01*
X017040Y010653D01*
X017114Y010653D02*
X017151Y010690D01*
X017224Y010690D01*
X017261Y010653D01*
X017261Y010617D01*
X017224Y010580D01*
X017261Y010543D01*
X017261Y010507D01*
X017224Y010580D02*
X017187Y010580D01*
X016605Y011372D02*
X016385Y011372D01*
X016385Y011482D01*
X016422Y011519D01*
X016495Y011519D01*
X016532Y011482D01*
X016532Y011372D01*
X016532Y011445D02*
X016605Y011519D01*
X016605Y011593D02*
X016605Y011740D01*
X016605Y011666D02*
X016385Y011666D01*
X016458Y011593D01*
X016422Y011814D02*
X016385Y011851D01*
X016385Y011924D01*
X016422Y011961D01*
X016458Y011961D01*
X016495Y011924D01*
X016532Y011961D01*
X016568Y011961D01*
X016605Y011924D01*
X016605Y011851D01*
X016568Y011814D01*
X016495Y011887D02*
X016495Y011924D01*
X014480Y011799D02*
X014480Y011726D01*
X014443Y011689D01*
X014480Y011615D02*
X014407Y011541D01*
X014407Y011578D02*
X014407Y011468D01*
X014480Y011468D02*
X014260Y011468D01*
X014260Y011578D01*
X014297Y011615D01*
X014370Y011615D01*
X014407Y011578D01*
X014297Y011689D02*
X014260Y011726D01*
X014260Y011799D01*
X014297Y011836D01*
X014333Y011836D01*
X014370Y011799D01*
X014407Y011836D01*
X014443Y011836D01*
X014480Y011799D01*
X014370Y011799D02*
X014370Y011762D01*
X013224Y010230D02*
X013077Y010230D01*
X013077Y010120D01*
X013150Y010157D01*
X013187Y010157D01*
X013224Y010120D01*
X013224Y010047D01*
X013187Y010010D01*
X013114Y010010D01*
X013077Y010047D01*
X013003Y010010D02*
X012856Y010010D01*
X012929Y010010D02*
X012929Y010230D01*
X012856Y010157D01*
X012782Y010193D02*
X012745Y010230D01*
X012672Y010230D01*
X012635Y010193D01*
X012635Y010047D01*
X012672Y010010D01*
X012745Y010010D01*
X012782Y010047D01*
X011574Y010385D02*
X011427Y010385D01*
X011500Y010385D02*
X011500Y010605D01*
X011427Y010532D01*
X011353Y010605D02*
X011353Y010458D01*
X011279Y010385D01*
X011206Y010458D01*
X011206Y010605D01*
X011132Y010568D02*
X011095Y010605D01*
X011022Y010605D01*
X010985Y010568D01*
X010985Y010532D01*
X011022Y010495D01*
X011095Y010495D01*
X011132Y010458D01*
X011132Y010422D01*
X011095Y010385D01*
X011022Y010385D01*
X010985Y010422D01*
X012718Y012970D02*
X012718Y013190D01*
X012828Y013190D01*
X012865Y013153D01*
X012865Y013080D01*
X012828Y013043D01*
X012718Y013043D01*
X012791Y013043D02*
X012865Y012970D01*
X012939Y013080D02*
X013086Y013080D01*
X013049Y012970D02*
X013049Y013190D01*
X012939Y013080D01*
X012926Y013895D02*
X012889Y013932D01*
X012889Y013968D01*
X012926Y014005D01*
X012999Y014005D01*
X013036Y013968D01*
X013036Y013932D01*
X012999Y013895D01*
X012926Y013895D01*
X012926Y014005D02*
X012889Y014042D01*
X012889Y014078D01*
X012926Y014115D01*
X012999Y014115D01*
X013036Y014078D01*
X013036Y014042D01*
X012999Y014005D01*
X012815Y013932D02*
X012778Y013895D01*
X012705Y013895D01*
X012668Y013932D01*
X012668Y014115D01*
X012815Y014115D02*
X012815Y013932D01*
X010980Y016968D02*
X010760Y016968D01*
X010760Y017078D01*
X010797Y017115D01*
X010870Y017115D01*
X010907Y017078D01*
X010907Y016968D01*
X010907Y017041D02*
X010980Y017115D01*
X010943Y017189D02*
X010907Y017189D01*
X010870Y017226D01*
X010870Y017299D01*
X010907Y017336D01*
X010943Y017336D01*
X010980Y017299D01*
X010980Y017226D01*
X010943Y017189D01*
X010870Y017226D02*
X010833Y017189D01*
X010797Y017189D01*
X010760Y017226D01*
X010760Y017299D01*
X010797Y017336D01*
X010833Y017336D01*
X010870Y017299D01*
X014735Y017522D02*
X014772Y017485D01*
X014845Y017485D01*
X014882Y017522D01*
X014882Y017668D01*
X014845Y017705D01*
X014772Y017705D01*
X014735Y017668D01*
X014735Y017522D01*
X014808Y017558D02*
X014882Y017485D01*
X014956Y017485D02*
X015103Y017632D01*
X015103Y017668D01*
X015066Y017705D01*
X014993Y017705D01*
X014956Y017668D01*
X014956Y017485D02*
X015103Y017485D01*
X019345Y011775D02*
X019565Y011775D01*
X019565Y011702D02*
X019565Y011849D01*
X019418Y011702D02*
X019345Y011775D01*
X019345Y011554D02*
X019565Y011554D01*
X019565Y011481D02*
X019565Y011628D01*
X019418Y011481D02*
X019345Y011554D01*
X019382Y011407D02*
X019345Y011370D01*
X019345Y011297D01*
X019382Y011260D01*
X019528Y011260D01*
X019565Y011297D01*
X019565Y011370D01*
X019528Y011407D01*
X019772Y013110D02*
X019735Y013147D01*
X019772Y013110D02*
X019845Y013110D01*
X019882Y013147D01*
X019882Y013183D01*
X019845Y013220D01*
X019772Y013220D01*
X019735Y013257D01*
X019735Y013293D01*
X019772Y013330D01*
X019845Y013330D01*
X019882Y013293D01*
X019956Y013293D02*
X019956Y013147D01*
X019993Y013110D01*
X020066Y013110D01*
X020103Y013147D01*
X020103Y013220D01*
X020029Y013220D01*
X019956Y013293D02*
X019993Y013330D01*
X020066Y013330D01*
X020103Y013293D01*
X020177Y013257D02*
X020250Y013330D01*
X020250Y013110D01*
X020177Y013110D02*
X020324Y013110D01*
X022220Y012862D02*
X022257Y012899D01*
X022403Y012752D01*
X022440Y012789D01*
X022440Y012862D01*
X022403Y012899D01*
X022257Y012899D01*
X022220Y012862D02*
X022220Y012789D01*
X022257Y012752D01*
X022403Y012752D01*
X022440Y012678D02*
X022440Y012531D01*
X022440Y012604D02*
X022220Y012604D01*
X022293Y012531D01*
X022257Y012457D02*
X022330Y012457D01*
X022367Y012420D01*
X022367Y012310D01*
X022440Y012310D02*
X022220Y012310D01*
X022220Y012420D01*
X022257Y012457D01*
X022367Y012383D02*
X022440Y012457D01*
X023805Y010790D02*
X023878Y010790D01*
X023915Y010753D01*
X023915Y010607D01*
X023878Y010570D01*
X023805Y010570D01*
X023768Y010607D01*
X023768Y010753D01*
X023805Y010790D01*
X023841Y010643D02*
X023915Y010570D01*
X023989Y010570D02*
X024136Y010570D01*
X024062Y010570D02*
X024062Y010790D01*
X023989Y010717D01*
X025135Y011797D02*
X025172Y011760D01*
X025245Y011760D01*
X025282Y011797D01*
X025356Y011760D02*
X025503Y011760D01*
X025429Y011760D02*
X025429Y011980D01*
X025356Y011907D01*
X025282Y011943D02*
X025245Y011980D01*
X025172Y011980D01*
X025135Y011943D01*
X025135Y011797D01*
X025577Y011797D02*
X025577Y011760D01*
X025577Y011797D02*
X025724Y011943D01*
X025724Y011980D01*
X025577Y011980D01*
X024016Y008855D02*
X023943Y008855D01*
X023906Y008818D01*
X023906Y008782D01*
X023943Y008745D01*
X024053Y008745D01*
X024053Y008672D02*
X024053Y008818D01*
X024016Y008855D01*
X024053Y008672D02*
X024016Y008635D01*
X023943Y008635D01*
X023906Y008672D01*
X023832Y008635D02*
X023758Y008708D01*
X023795Y008708D02*
X023685Y008708D01*
X023685Y008635D02*
X023685Y008855D01*
X023795Y008855D01*
X023832Y008818D01*
X023832Y008745D01*
X023795Y008708D01*
X019065Y004716D02*
X019028Y004753D01*
X018992Y004753D01*
X018955Y004716D01*
X018955Y004606D01*
X019028Y004606D01*
X019065Y004643D01*
X019065Y004716D01*
X018955Y004606D02*
X018882Y004679D01*
X018845Y004753D01*
X018882Y004532D02*
X018845Y004495D01*
X018845Y004422D01*
X018882Y004385D01*
X019028Y004385D01*
X019065Y004422D01*
X019065Y004495D01*
X019028Y004532D01*
X018882Y004024D02*
X019028Y003877D01*
X019065Y003877D01*
X019065Y003803D02*
X019065Y003656D01*
X019065Y003729D02*
X018845Y003729D01*
X018918Y003656D01*
X018882Y003582D02*
X018955Y003582D01*
X018992Y003545D01*
X018992Y003435D01*
X019065Y003435D02*
X018845Y003435D01*
X018845Y003545D01*
X018882Y003582D01*
X018992Y003508D02*
X019065Y003582D01*
X018845Y003877D02*
X018845Y004024D01*
X018882Y004024D01*
X018845Y003024D02*
X018882Y002950D01*
X018955Y002877D01*
X018955Y002987D01*
X018992Y003024D01*
X019028Y003024D01*
X019065Y002987D01*
X019065Y002914D01*
X019028Y002877D01*
X018955Y002877D01*
X019065Y002803D02*
X019065Y002656D01*
X019065Y002729D02*
X018845Y002729D01*
X018918Y002656D01*
X018882Y002582D02*
X018955Y002582D01*
X018992Y002545D01*
X018992Y002435D01*
X019065Y002435D02*
X018845Y002435D01*
X018845Y002545D01*
X018882Y002582D01*
X018992Y002508D02*
X019065Y002582D01*
X019028Y001703D02*
X019065Y001666D01*
X019065Y001593D01*
X019028Y001556D01*
X019028Y001482D02*
X018882Y001482D01*
X018845Y001445D01*
X018845Y001335D01*
X019065Y001335D01*
X019065Y001445D01*
X019028Y001482D01*
X018882Y001556D02*
X018845Y001593D01*
X018845Y001666D01*
X018882Y001703D01*
X018918Y001703D01*
X018955Y001666D01*
X018992Y001703D01*
X019028Y001703D01*
X018955Y001666D02*
X018955Y001629D01*
X016599Y004770D02*
X016526Y004770D01*
X016489Y004807D01*
X016489Y004880D02*
X016562Y004917D01*
X016599Y004917D01*
X016636Y004880D01*
X016636Y004807D01*
X016599Y004770D01*
X016489Y004880D02*
X016489Y004990D01*
X016636Y004990D01*
X016415Y004990D02*
X016415Y004807D01*
X016378Y004770D01*
X016305Y004770D01*
X016268Y004807D01*
X016268Y004990D01*
X015562Y004480D02*
X015452Y004370D01*
X015599Y004370D01*
X015562Y004260D02*
X015562Y004480D01*
X015304Y004480D02*
X015304Y004260D01*
X015231Y004260D02*
X015378Y004260D01*
X015231Y004407D02*
X015304Y004480D01*
X015157Y004443D02*
X015120Y004480D01*
X015047Y004480D01*
X015010Y004443D01*
X015010Y004297D01*
X015047Y004260D01*
X015120Y004260D01*
X015157Y004297D01*
X015086Y006720D02*
X014939Y006720D01*
X015086Y006867D01*
X015086Y006903D01*
X015049Y006940D01*
X014976Y006940D01*
X014939Y006903D01*
X014791Y006940D02*
X014791Y006720D01*
X014718Y006720D02*
X014865Y006720D01*
X014718Y006867D02*
X014791Y006940D01*
X014644Y006903D02*
X014644Y006830D01*
X014607Y006793D01*
X014497Y006793D01*
X014497Y006720D02*
X014497Y006940D01*
X014607Y006940D01*
X014644Y006903D01*
X014570Y006793D02*
X014644Y006720D01*
X015643Y006757D02*
X015680Y006720D01*
X015753Y006720D01*
X015790Y006757D01*
X015864Y006720D02*
X016011Y006867D01*
X016011Y006903D01*
X015974Y006940D01*
X015901Y006940D01*
X015864Y006903D01*
X015790Y006903D02*
X015753Y006940D01*
X015680Y006940D01*
X015643Y006903D01*
X015643Y006757D01*
X015864Y006720D02*
X016011Y006720D01*
X015699Y008670D02*
X015626Y008670D01*
X015589Y008707D01*
X015589Y008780D01*
X015699Y008780D01*
X015736Y008743D01*
X015736Y008707D01*
X015699Y008670D01*
X015589Y008780D02*
X015662Y008853D01*
X015736Y008890D01*
X015515Y008890D02*
X015515Y008707D01*
X015478Y008670D01*
X015405Y008670D01*
X015368Y008707D01*
X015368Y008890D01*
X009905Y006886D02*
X009905Y006739D01*
X009905Y006812D02*
X009685Y006812D01*
X009758Y006739D01*
X009722Y006665D02*
X009685Y006628D01*
X009685Y006555D01*
X009722Y006518D01*
X009758Y006518D01*
X009795Y006555D01*
X009795Y006628D01*
X009832Y006665D01*
X009868Y006665D01*
X009905Y006628D01*
X009905Y006555D01*
X009868Y006518D01*
X008003Y004693D02*
X008003Y004657D01*
X007966Y004620D01*
X007893Y004620D01*
X007856Y004657D01*
X007856Y004693D01*
X007893Y004730D01*
X007966Y004730D01*
X008003Y004693D01*
X007966Y004620D02*
X008003Y004583D01*
X008003Y004547D01*
X007966Y004510D01*
X007893Y004510D01*
X007856Y004547D01*
X007856Y004583D01*
X007893Y004620D01*
X007782Y004547D02*
X007745Y004510D01*
X007672Y004510D01*
X007635Y004547D01*
X007635Y004693D01*
X007672Y004730D01*
X007745Y004730D01*
X007782Y004693D01*
X007191Y005485D02*
X007118Y005485D01*
X007081Y005522D01*
X007007Y005522D02*
X007007Y005705D01*
X007081Y005668D02*
X007118Y005705D01*
X007191Y005705D01*
X007228Y005668D01*
X007228Y005632D01*
X007191Y005595D01*
X007228Y005558D01*
X007228Y005522D01*
X007191Y005485D01*
X007191Y005595D02*
X007154Y005595D01*
X007007Y005522D02*
X006970Y005485D01*
X006897Y005485D01*
X006860Y005522D01*
X006860Y005705D01*
X007047Y008143D02*
X007010Y008180D01*
X007010Y008253D01*
X007047Y008290D01*
X007083Y008364D02*
X007010Y008437D01*
X007230Y008437D01*
X007230Y008364D02*
X007230Y008511D01*
X007193Y008290D02*
X007230Y008253D01*
X007230Y008180D01*
X007193Y008143D01*
X007047Y008143D01*
X004616Y012985D02*
X004616Y013022D01*
X004763Y013168D01*
X004763Y013205D01*
X004616Y013205D01*
X004542Y013205D02*
X004542Y013022D01*
X004505Y012985D01*
X004432Y012985D01*
X004395Y013022D01*
X004395Y013205D01*
X004080Y013841D02*
X003970Y013841D01*
X003897Y013915D01*
X003860Y013915D01*
X003933Y013989D02*
X003860Y014062D01*
X004080Y014062D01*
X004080Y013989D02*
X004080Y014136D01*
X003970Y013841D02*
X003897Y013768D01*
X003860Y013768D01*
X004810Y016010D02*
X004810Y016230D01*
X004920Y016230D01*
X004957Y016193D01*
X004957Y016120D01*
X004920Y016083D01*
X004810Y016083D01*
X004883Y016083D02*
X004957Y016010D01*
X005031Y016010D02*
X005178Y016010D01*
X005104Y016010D02*
X005104Y016230D01*
X005031Y016157D01*
X006135Y015443D02*
X006135Y015297D01*
X006172Y015260D01*
X006245Y015260D01*
X006282Y015297D01*
X006356Y015260D02*
X006503Y015260D01*
X006429Y015260D02*
X006429Y015480D01*
X006356Y015407D01*
X006282Y015443D02*
X006245Y015480D01*
X006172Y015480D01*
X006135Y015443D01*
X006577Y015443D02*
X006577Y015297D01*
X006724Y015443D01*
X006724Y015297D01*
X006687Y015260D01*
X006614Y015260D01*
X006577Y015297D01*
X006577Y015443D02*
X006614Y015480D01*
X006687Y015480D01*
X006724Y015443D01*
X002662Y010480D02*
X002699Y010443D01*
X002699Y010407D01*
X002662Y010370D01*
X002699Y010333D01*
X002699Y010297D01*
X002662Y010260D01*
X002589Y010260D01*
X002552Y010297D01*
X002478Y010333D02*
X002478Y010480D01*
X002552Y010443D02*
X002589Y010480D01*
X002662Y010480D01*
X002662Y010370D02*
X002625Y010370D01*
X002478Y010333D02*
X002404Y010260D01*
X002331Y010333D01*
X002331Y010480D01*
X002257Y010443D02*
X002220Y010480D01*
X002147Y010480D01*
X002110Y010443D01*
X002110Y010407D01*
X002147Y010370D01*
X002220Y010370D01*
X002257Y010333D01*
X002257Y010297D01*
X002220Y010260D01*
X002147Y010260D01*
X002110Y010297D01*
X001815Y011560D02*
X001595Y011560D01*
X001595Y011670D01*
X001632Y011707D01*
X001705Y011707D01*
X001742Y011670D01*
X001742Y011560D01*
X001742Y011633D02*
X001815Y011707D01*
X001778Y011781D02*
X001815Y011818D01*
X001815Y011891D01*
X001778Y011928D01*
X001742Y011928D01*
X001705Y011891D01*
X001705Y011781D01*
X001778Y011781D01*
X001705Y011781D02*
X001632Y011854D01*
X001595Y011928D01*
X001399Y016885D02*
X001252Y016885D01*
X001399Y017032D01*
X001399Y017068D01*
X001362Y017105D01*
X001289Y017105D01*
X001252Y017068D01*
X001178Y017105D02*
X001178Y016958D01*
X001104Y016885D01*
X001031Y016958D01*
X001031Y017105D01*
X000957Y017068D02*
X000920Y017105D01*
X000847Y017105D01*
X000810Y017068D01*
X000810Y017032D01*
X000847Y016995D01*
X000920Y016995D01*
X000957Y016958D01*
X000957Y016922D01*
X000920Y016885D01*
X000847Y016885D01*
X000810Y016922D01*
X001935Y006605D02*
X002045Y006605D01*
X002082Y006568D01*
X002082Y006495D01*
X002045Y006458D01*
X001935Y006458D01*
X001935Y006385D02*
X001935Y006605D01*
X002008Y006458D02*
X002082Y006385D01*
X002156Y006385D02*
X002303Y006532D01*
X002303Y006568D01*
X002266Y006605D01*
X002193Y006605D01*
X002156Y006568D01*
X002156Y006385D02*
X002303Y006385D01*
X001221Y003974D02*
X001221Y003754D01*
X001148Y003754D02*
X001295Y003754D01*
X001148Y003900D02*
X001221Y003974D01*
X001074Y003937D02*
X001037Y003974D01*
X000927Y003974D01*
X000927Y003754D01*
X001037Y003754D01*
X001074Y003790D01*
X001074Y003937D01*
X001922Y002105D02*
X001885Y002068D01*
X001885Y001922D01*
X001922Y001885D01*
X001995Y001885D01*
X002032Y001922D01*
X002106Y001922D02*
X002106Y001885D01*
X002106Y001922D02*
X002253Y002068D01*
X002253Y002105D01*
X002106Y002105D01*
X002032Y002068D02*
X001995Y002105D01*
X001922Y002105D01*
X010525Y000848D02*
X010525Y000701D01*
X010562Y000664D01*
X010635Y000664D01*
X010672Y000701D01*
X010746Y000701D02*
X010783Y000664D01*
X010856Y000664D01*
X010893Y000701D01*
X010893Y000848D01*
X010856Y000884D01*
X010783Y000884D01*
X010746Y000848D01*
X010746Y000811D01*
X010783Y000774D01*
X010893Y000774D01*
X010672Y000848D02*
X010635Y000884D01*
X010562Y000884D01*
X010525Y000848D01*
X014025Y000848D02*
X014025Y000701D01*
X014062Y000664D01*
X014135Y000664D01*
X014172Y000701D01*
X014246Y000664D02*
X014393Y000664D01*
X014320Y000664D02*
X014320Y000884D01*
X014246Y000811D01*
X014172Y000848D02*
X014135Y000884D01*
X014062Y000884D01*
X014025Y000848D01*
X014467Y000774D02*
X014467Y000701D01*
X014504Y000664D01*
X014577Y000664D01*
X014614Y000701D01*
X014614Y000738D01*
X014577Y000774D01*
X014467Y000774D01*
X014541Y000848D01*
X014614Y000884D01*
X021379Y015476D02*
X021379Y015586D01*
X021415Y015623D01*
X021562Y015623D01*
X021599Y015586D01*
X021599Y015476D01*
X021379Y015476D01*
X021415Y015697D02*
X021379Y015734D01*
X021379Y015807D01*
X021415Y015844D01*
X021452Y015844D01*
X021599Y015697D01*
X021599Y015844D01*
X021011Y017720D02*
X020864Y017720D01*
X021011Y017867D01*
X021011Y017903D01*
X020974Y017940D01*
X020901Y017940D01*
X020864Y017903D01*
X020716Y017940D02*
X020716Y017720D01*
X020643Y017720D02*
X020790Y017720D01*
X020643Y017867D02*
X020716Y017940D01*
X020569Y017903D02*
X020532Y017940D01*
X020459Y017940D01*
X020422Y017903D01*
X020422Y017757D01*
X020459Y017720D01*
X020532Y017720D01*
X020569Y017757D01*
X019418Y027668D02*
X019455Y027705D01*
X019455Y027778D01*
X019418Y027815D01*
X019235Y027815D01*
X019345Y027889D02*
X019345Y028036D01*
X019455Y027999D02*
X019235Y027999D01*
X019345Y027889D01*
X019418Y027668D02*
X019235Y027668D01*
X017465Y032610D02*
X017245Y032757D01*
X017318Y032831D02*
X017245Y032904D01*
X017465Y032904D01*
X017465Y032831D02*
X017465Y032978D01*
X017465Y032757D02*
X017245Y032610D01*
X010461Y031565D02*
X010314Y031565D01*
X010314Y031455D01*
X010387Y031492D01*
X010424Y031492D01*
X010461Y031455D01*
X010461Y031382D01*
X010424Y031345D01*
X010351Y031345D01*
X010314Y031382D01*
X010240Y031345D02*
X010166Y031418D01*
X010203Y031418D02*
X010093Y031418D01*
X010093Y031345D02*
X010093Y031565D01*
X010203Y031565D01*
X010240Y031528D01*
X010240Y031455D01*
X010203Y031418D01*
X010068Y032422D02*
X009922Y032422D01*
X009885Y032459D01*
X009885Y032532D01*
X009922Y032569D01*
X009958Y032643D02*
X009885Y032716D01*
X010105Y032716D01*
X010105Y032643D02*
X010105Y032790D01*
X010068Y032864D02*
X010105Y032901D01*
X010105Y032974D01*
X010068Y033011D01*
X010032Y033011D01*
X009995Y032974D01*
X009995Y032937D01*
X009995Y032974D02*
X009958Y033011D01*
X009922Y033011D01*
X009885Y032974D01*
X009885Y032901D01*
X009922Y032864D01*
X010068Y032569D02*
X010105Y032532D01*
X010105Y032459D01*
X010068Y032422D01*
X006974Y030565D02*
X006974Y030345D01*
X007011Y030455D02*
X006864Y030455D01*
X006974Y030565D01*
X006790Y030528D02*
X006753Y030565D01*
X006680Y030565D01*
X006643Y030528D01*
X006643Y030382D01*
X006680Y030345D01*
X006753Y030345D01*
X006790Y030382D01*
D13*
X010975Y013725D02*
X011475Y013725D01*
X011725Y013475D01*
X011725Y012975D01*
X011475Y012725D01*
X011725Y012475D01*
X011725Y011975D01*
X011475Y011725D01*
X011725Y011475D01*
X011725Y010975D01*
X011475Y010725D01*
X010975Y010725D01*
X010725Y010975D01*
X010725Y011475D01*
X010975Y011725D01*
X010725Y011975D01*
X010725Y012475D01*
X010975Y012725D01*
X010725Y012975D01*
X010725Y013475D01*
X010975Y013725D01*
X007730Y012715D02*
X007730Y010095D01*
X004970Y010095D01*
X004970Y012855D01*
X007590Y012855D01*
X007730Y012715D01*
X007289Y012555D02*
X007291Y012578D01*
X007297Y012601D01*
X007306Y012622D01*
X007319Y012642D01*
X007335Y012659D01*
X007353Y012673D01*
X007373Y012684D01*
X007395Y012692D01*
X007418Y012696D01*
X007442Y012696D01*
X007465Y012692D01*
X007487Y012684D01*
X007507Y012673D01*
X007525Y012659D01*
X007541Y012642D01*
X007554Y012622D01*
X007563Y012601D01*
X007569Y012578D01*
X007571Y012555D01*
X007569Y012532D01*
X007563Y012509D01*
X007554Y012488D01*
X007541Y012468D01*
X007525Y012451D01*
X007507Y012437D01*
X007487Y012426D01*
X007465Y012418D01*
X007442Y012414D01*
X007418Y012414D01*
X007395Y012418D01*
X007373Y012426D01*
X007353Y012437D01*
X007335Y012451D01*
X007319Y012468D01*
X007306Y012488D01*
X007297Y012509D01*
X007291Y012532D01*
X007289Y012555D01*
X002975Y009850D02*
X002975Y009350D01*
X002725Y009100D01*
X002975Y008850D01*
X002975Y008350D01*
X002725Y008100D01*
X002975Y007850D01*
X002975Y007350D01*
X002725Y007100D01*
X001225Y007100D01*
X000975Y007350D01*
X000975Y007850D01*
X001225Y008100D01*
X000975Y008350D01*
X000975Y008850D01*
X001225Y009100D01*
X000975Y009350D01*
X000975Y009850D01*
X001225Y010100D01*
X002725Y010100D01*
X002975Y009850D01*
X014867Y009570D02*
X014867Y010131D01*
X016083Y010131D02*
X016083Y009570D01*
X022665Y010965D02*
X023785Y010965D01*
X023785Y011485D01*
X022665Y011485D01*
X022665Y010965D01*
D14*
X021251Y015042D02*
X020699Y015042D01*
X020699Y015908D01*
X021251Y015908D01*
X021251Y015042D01*
X007140Y005194D02*
X007140Y001650D01*
X007140Y005194D02*
X002810Y005194D01*
X002810Y001650D01*
X001376Y004792D02*
X000824Y004792D01*
X000824Y005658D01*
X001376Y005658D01*
X001376Y004792D01*
X001813Y013919D02*
X002462Y013919D01*
X002462Y014214D01*
X002462Y015986D02*
X002462Y016281D01*
X001813Y016281D01*
X000789Y015691D02*
X000789Y014509D01*
D15*
X005967Y005490D03*
D16*
X004975Y005490D03*
D17*
X003983Y005490D03*
D18*
X007475Y006237D02*
X007475Y007213D01*
X007869Y007725D02*
X009081Y007725D01*
X009475Y007213D02*
X009475Y006225D01*
X009081Y005725D02*
X007869Y005725D01*
X007975Y006725D02*
X007977Y006769D01*
X007983Y006813D01*
X007993Y006856D01*
X008006Y006898D01*
X008023Y006939D01*
X008044Y006978D01*
X008068Y007015D01*
X008095Y007050D01*
X008125Y007082D01*
X008158Y007112D01*
X008194Y007138D01*
X008231Y007162D01*
X008271Y007181D01*
X008312Y007198D01*
X008355Y007210D01*
X008398Y007219D01*
X008442Y007224D01*
X008486Y007225D01*
X008530Y007222D01*
X008574Y007215D01*
X008617Y007204D01*
X008659Y007190D01*
X008699Y007172D01*
X008738Y007150D01*
X008774Y007126D01*
X008808Y007098D01*
X008840Y007067D01*
X008869Y007033D01*
X008895Y006997D01*
X008917Y006959D01*
X008936Y006919D01*
X008951Y006877D01*
X008963Y006835D01*
X008971Y006791D01*
X008975Y006747D01*
X008975Y006703D01*
X008971Y006659D01*
X008963Y006615D01*
X008951Y006573D01*
X008936Y006531D01*
X008917Y006491D01*
X008895Y006453D01*
X008869Y006417D01*
X008840Y006383D01*
X008808Y006352D01*
X008774Y006324D01*
X008738Y006300D01*
X008699Y006278D01*
X008659Y006260D01*
X008617Y006246D01*
X008574Y006235D01*
X008530Y006228D01*
X008486Y006225D01*
X008442Y006226D01*
X008398Y006231D01*
X008355Y006240D01*
X008312Y006252D01*
X008271Y006269D01*
X008231Y006288D01*
X008194Y006312D01*
X008158Y006338D01*
X008125Y006368D01*
X008095Y006400D01*
X008068Y006435D01*
X008044Y006472D01*
X008023Y006511D01*
X008006Y006552D01*
X007993Y006594D01*
X007983Y006637D01*
X007977Y006681D01*
X007975Y006725D01*
X008905Y003649D02*
X008551Y003295D01*
X008551Y001051D01*
X009417Y001051D01*
X010283Y001051D02*
X011149Y001051D01*
X011149Y003295D01*
X010795Y003649D01*
X010283Y003649D01*
X010224Y003511D02*
X010289Y003488D01*
X010352Y003462D01*
X010413Y003432D01*
X010473Y003398D01*
X010531Y003362D01*
X010587Y003322D01*
X010640Y003279D01*
X010691Y003233D01*
X010739Y003184D01*
X010784Y003133D01*
X010827Y003079D01*
X010866Y003023D01*
X010902Y002965D01*
X010935Y002904D01*
X010964Y002842D01*
X010990Y002779D01*
X011012Y002714D01*
X011031Y002648D01*
X011045Y002581D01*
X011056Y002514D01*
X011063Y002445D01*
X011067Y002377D01*
X011066Y002308D01*
X011062Y002240D01*
X011053Y002172D01*
X011041Y002105D01*
X011026Y002038D01*
X011006Y001972D01*
X010983Y001908D01*
X010956Y001845D01*
X010925Y001783D01*
X010892Y001724D01*
X010855Y001666D01*
X010814Y001611D01*
X010771Y001558D01*
X010725Y001507D01*
X010676Y001459D01*
X010624Y001414D01*
X010570Y001372D01*
X010514Y001333D01*
X010455Y001297D01*
X010395Y001265D01*
X010333Y001236D01*
X010269Y001210D01*
X010204Y001189D01*
X009476Y001189D02*
X009411Y001212D01*
X009348Y001238D01*
X009287Y001268D01*
X009227Y001302D01*
X009169Y001338D01*
X009113Y001378D01*
X009060Y001421D01*
X009009Y001467D01*
X008961Y001516D01*
X008916Y001567D01*
X008873Y001621D01*
X008834Y001677D01*
X008798Y001735D01*
X008765Y001796D01*
X008736Y001858D01*
X008710Y001921D01*
X008688Y001986D01*
X008669Y002052D01*
X008655Y002119D01*
X008644Y002186D01*
X008637Y002255D01*
X008633Y002323D01*
X008634Y002392D01*
X008638Y002460D01*
X008647Y002528D01*
X008659Y002595D01*
X008674Y002662D01*
X008694Y002728D01*
X008717Y002792D01*
X008744Y002855D01*
X008775Y002917D01*
X008808Y002976D01*
X008845Y003034D01*
X008886Y003089D01*
X008929Y003142D01*
X008975Y003193D01*
X009024Y003241D01*
X009076Y003286D01*
X009130Y003328D01*
X009186Y003367D01*
X009245Y003403D01*
X009305Y003435D01*
X009367Y003464D01*
X009431Y003490D01*
X009496Y003511D01*
X009417Y003649D02*
X008905Y003649D01*
X012051Y003295D02*
X012051Y001051D01*
X012917Y001051D01*
X013783Y001051D02*
X014649Y001051D01*
X014649Y003295D01*
X014295Y003649D01*
X013783Y003649D01*
X013724Y003511D02*
X013789Y003488D01*
X013852Y003462D01*
X013913Y003432D01*
X013973Y003398D01*
X014031Y003362D01*
X014087Y003322D01*
X014140Y003279D01*
X014191Y003233D01*
X014239Y003184D01*
X014284Y003133D01*
X014327Y003079D01*
X014366Y003023D01*
X014402Y002965D01*
X014435Y002904D01*
X014464Y002842D01*
X014490Y002779D01*
X014512Y002714D01*
X014531Y002648D01*
X014545Y002581D01*
X014556Y002514D01*
X014563Y002445D01*
X014567Y002377D01*
X014566Y002308D01*
X014562Y002240D01*
X014553Y002172D01*
X014541Y002105D01*
X014526Y002038D01*
X014506Y001972D01*
X014483Y001908D01*
X014456Y001845D01*
X014425Y001783D01*
X014392Y001724D01*
X014355Y001666D01*
X014314Y001611D01*
X014271Y001558D01*
X014225Y001507D01*
X014176Y001459D01*
X014124Y001414D01*
X014070Y001372D01*
X014014Y001333D01*
X013955Y001297D01*
X013895Y001265D01*
X013833Y001236D01*
X013769Y001210D01*
X013704Y001189D01*
X012976Y001189D02*
X012911Y001212D01*
X012848Y001238D01*
X012787Y001268D01*
X012727Y001302D01*
X012669Y001338D01*
X012613Y001378D01*
X012560Y001421D01*
X012509Y001467D01*
X012461Y001516D01*
X012416Y001567D01*
X012373Y001621D01*
X012334Y001677D01*
X012298Y001735D01*
X012265Y001796D01*
X012236Y001858D01*
X012210Y001921D01*
X012188Y001986D01*
X012169Y002052D01*
X012155Y002119D01*
X012144Y002186D01*
X012137Y002255D01*
X012133Y002323D01*
X012134Y002392D01*
X012138Y002460D01*
X012147Y002528D01*
X012159Y002595D01*
X012174Y002662D01*
X012194Y002728D01*
X012217Y002792D01*
X012244Y002855D01*
X012275Y002917D01*
X012308Y002976D01*
X012345Y003034D01*
X012386Y003089D01*
X012429Y003142D01*
X012475Y003193D01*
X012524Y003241D01*
X012576Y003286D01*
X012630Y003328D01*
X012686Y003367D01*
X012745Y003403D01*
X012805Y003435D01*
X012867Y003464D01*
X012931Y003490D01*
X012996Y003511D01*
X012917Y003649D02*
X012405Y003649D01*
X012051Y003295D01*
X015915Y003556D02*
X015915Y003894D01*
X016369Y003406D02*
X016581Y003406D01*
X017035Y003556D02*
X017035Y003894D01*
X016444Y002171D02*
X018256Y002171D01*
X018256Y001994D01*
X018256Y001206D02*
X018256Y001029D01*
X016444Y001029D01*
X016444Y001206D01*
X016956Y001206D02*
X016956Y001994D01*
X016444Y001994D02*
X016444Y002171D01*
X021453Y001438D02*
X021453Y000847D01*
X022241Y000847D01*
X022241Y002225D01*
X022245Y002284D01*
X022254Y002343D01*
X022266Y002401D01*
X022281Y002458D01*
X022300Y002514D01*
X022323Y002569D01*
X022349Y002622D01*
X022378Y002674D01*
X022410Y002723D01*
X022446Y002771D01*
X022484Y002816D01*
X022525Y002859D01*
X022569Y002899D01*
X022615Y002936D01*
X022663Y002970D01*
X022714Y003001D01*
X022766Y003029D01*
X022820Y003053D01*
X022875Y003074D01*
X022932Y003092D01*
X022990Y003106D01*
X023048Y003116D01*
X023107Y003123D01*
X023166Y003126D01*
X023225Y003125D01*
X023284Y003126D01*
X023343Y003123D01*
X023402Y003116D01*
X023460Y003106D01*
X023518Y003092D01*
X023575Y003074D01*
X023630Y003053D01*
X023684Y003029D01*
X023736Y003001D01*
X023787Y002970D01*
X023835Y002936D01*
X023881Y002899D01*
X023925Y002859D01*
X023966Y002816D01*
X024004Y002771D01*
X024040Y002723D01*
X024072Y002674D01*
X024101Y002622D01*
X024127Y002569D01*
X024150Y002514D01*
X024169Y002458D01*
X024184Y002401D01*
X024196Y002343D01*
X024205Y002284D01*
X024209Y002225D01*
X024209Y000847D01*
X024997Y000847D01*
X024997Y001438D01*
X024209Y000847D02*
X022241Y000847D01*
X021453Y003012D02*
X021453Y003839D01*
X021453Y005453D02*
X021453Y006083D01*
X024997Y006083D01*
X024997Y005414D01*
X024997Y003839D02*
X024997Y003012D01*
X005684Y013844D02*
X005684Y014356D01*
X004266Y014356D02*
X004266Y013844D01*
X004489Y030871D02*
X004489Y031579D01*
X004961Y031579D02*
X004961Y030871D01*
X005489Y030871D02*
X005489Y031579D01*
X005961Y031579D02*
X005961Y030871D01*
X007489Y030871D02*
X007489Y031579D01*
X007961Y031579D02*
X007961Y030871D01*
X008489Y030871D02*
X008489Y031579D01*
X008961Y031579D02*
X008961Y030871D01*
X003961Y030871D02*
X003961Y031579D01*
X003489Y031579D02*
X003489Y030871D01*
X002961Y030871D02*
X002961Y031579D01*
X002489Y031579D02*
X002489Y030871D01*
X001961Y030871D02*
X001961Y031579D01*
X001489Y031579D02*
X001489Y030871D01*
X014465Y032417D02*
X014465Y033283D01*
X015292Y034110D02*
X016158Y034110D01*
X016867Y034543D02*
X016867Y036118D01*
X014583Y036118D01*
X014386Y036236D01*
X014386Y037063D01*
X014583Y037181D01*
X016867Y037181D01*
X016867Y037417D01*
X014583Y037417D01*
X014583Y037181D01*
X014583Y036118D02*
X014583Y034543D01*
X015056Y032850D02*
X015058Y032901D01*
X015064Y032952D01*
X015074Y033002D01*
X015087Y033052D01*
X015105Y033100D01*
X015125Y033147D01*
X015150Y033192D01*
X015178Y033235D01*
X015209Y033276D01*
X015243Y033314D01*
X015280Y033349D01*
X015319Y033382D01*
X015361Y033412D01*
X015405Y033438D01*
X015451Y033460D01*
X015499Y033480D01*
X015548Y033495D01*
X015598Y033507D01*
X015648Y033515D01*
X015699Y033519D01*
X015751Y033519D01*
X015802Y033515D01*
X015852Y033507D01*
X015902Y033495D01*
X015951Y033480D01*
X015999Y033460D01*
X016045Y033438D01*
X016089Y033412D01*
X016131Y033382D01*
X016170Y033349D01*
X016207Y033314D01*
X016241Y033276D01*
X016272Y033235D01*
X016300Y033192D01*
X016325Y033147D01*
X016345Y033100D01*
X016363Y033052D01*
X016376Y033002D01*
X016386Y032952D01*
X016392Y032901D01*
X016394Y032850D01*
X016392Y032799D01*
X016386Y032748D01*
X016376Y032698D01*
X016363Y032648D01*
X016345Y032600D01*
X016325Y032553D01*
X016300Y032508D01*
X016272Y032465D01*
X016241Y032424D01*
X016207Y032386D01*
X016170Y032351D01*
X016131Y032318D01*
X016089Y032288D01*
X016045Y032262D01*
X015999Y032240D01*
X015951Y032220D01*
X015902Y032205D01*
X015852Y032193D01*
X015802Y032185D01*
X015751Y032181D01*
X015699Y032181D01*
X015648Y032185D01*
X015598Y032193D01*
X015548Y032205D01*
X015499Y032220D01*
X015451Y032240D01*
X015405Y032262D01*
X015361Y032288D01*
X015319Y032318D01*
X015280Y032351D01*
X015243Y032386D01*
X015209Y032424D01*
X015178Y032465D01*
X015150Y032508D01*
X015125Y032553D01*
X015105Y032600D01*
X015087Y032648D01*
X015074Y032698D01*
X015064Y032748D01*
X015058Y032799D01*
X015056Y032850D01*
X015292Y031590D02*
X016158Y031590D01*
X016985Y032417D02*
X016985Y033283D01*
X016867Y036118D02*
X017064Y036236D01*
X017064Y037063D01*
X016867Y037181D01*
D19*
X012871Y033571D03*
X012329Y033571D03*
X011871Y033571D03*
X011329Y033571D03*
D20*
X011600Y033419D03*
X012600Y033419D03*
D21*
X011225Y030100D02*
X014725Y030100D01*
X018225Y030100D02*
X018725Y030100D01*
X018725Y029600D01*
X018725Y028600D02*
X018725Y022600D01*
X000725Y022600D01*
X000725Y028600D01*
X018725Y028600D01*
X018725Y021100D02*
X018725Y019600D01*
X018725Y018600D02*
X018725Y018100D01*
X018225Y018100D01*
X014725Y018100D02*
X011225Y018100D01*
X012283Y015398D02*
X013418Y015398D01*
X013418Y014303D01*
X012283Y014303D01*
X012283Y015398D01*
X008725Y018100D02*
X005225Y018100D01*
X001225Y018100D02*
X000725Y018100D01*
X000725Y018600D01*
X000725Y019600D02*
X000725Y021100D01*
X000725Y029600D02*
X000725Y030100D01*
X001225Y030100D01*
X005225Y030100D02*
X008725Y030100D01*
X022902Y014358D02*
X022902Y014223D01*
X022947Y014178D01*
X023082Y014178D01*
X023082Y014358D01*
X023197Y014358D02*
X023332Y014358D01*
X023377Y014313D01*
X023377Y014223D01*
X023332Y014178D01*
X023197Y014178D01*
X023197Y014448D01*
X023491Y014448D02*
X023536Y014448D01*
X023536Y014178D01*
X023491Y014178D02*
X023581Y014178D01*
X023688Y014223D02*
X023733Y014178D01*
X023823Y014178D01*
X023868Y014223D01*
X023868Y014313D01*
X023823Y014358D01*
X023733Y014358D01*
X023688Y014313D01*
X023688Y014223D01*
X023982Y014178D02*
X024163Y014358D01*
X024163Y014178D02*
X023982Y014358D01*
X024877Y018672D02*
X024877Y021428D01*
X024975Y021428D01*
X025762Y021428D02*
X025861Y021428D01*
X025861Y018672D01*
X025762Y018672D01*
X025467Y018967D02*
X025270Y018967D01*
X025270Y019361D01*
X025467Y019361D01*
X025467Y018967D01*
X024975Y018672D02*
X024877Y018672D01*
D22*
X010455Y010985D02*
X010455Y010745D01*
X010455Y010865D02*
X010095Y010865D01*
X010215Y010745D01*
X002605Y006832D02*
X002605Y006712D01*
X002545Y006652D01*
X002425Y006652D01*
X002425Y006832D01*
X002485Y006892D01*
X002545Y006892D01*
X002605Y006832D01*
X002425Y006652D02*
X002305Y006772D01*
X002245Y006892D01*
X001605Y010370D02*
X001605Y010610D01*
X001605Y010490D02*
X001245Y010490D01*
X001365Y010370D01*
D23*
X022072Y013487D02*
X022171Y013487D01*
X022072Y013487D02*
X022072Y017306D01*
X022171Y017306D01*
X025990Y017306D02*
X026049Y017306D01*
X026049Y013487D01*
X025990Y013487D01*
D24*
X022545Y014353D03*
D25*
X020965Y014855D03*
X020965Y016095D03*
X001110Y005845D03*
X001110Y004605D03*
D26*
X001090Y004989D03*
X020985Y015711D03*
D27*
X002662Y016084D02*
X002664Y016098D01*
X002670Y016112D01*
X002678Y016124D01*
X002690Y016132D01*
X002704Y016138D01*
X002718Y016140D01*
X002732Y016138D01*
X002746Y016132D01*
X002758Y016124D01*
X002766Y016112D01*
X002772Y016098D01*
X002774Y016084D01*
X002772Y016070D01*
X002766Y016056D01*
X002758Y016044D01*
X002746Y016036D01*
X002732Y016030D01*
X002718Y016028D01*
X002704Y016030D01*
X002690Y016036D01*
X002678Y016044D01*
X002670Y016056D01*
X002664Y016070D01*
X002662Y016084D01*
D28*
X012213Y014213D03*
M02*
