G75*
%MOIN*%
%OFA0B0*%
%FSLAX24Y24*%
%IPPOS*%
%LPD*%
%AMOC8*
5,1,8,0,0,1.08239X$1,22.5*
%
%ADD10R,0.0591X0.0512*%
%ADD11R,0.0220X0.0500*%
%ADD12R,0.0500X0.0220*%
%ADD13R,0.4252X0.3543*%
%ADD14R,0.0600X0.1500*%
%ADD15R,0.0276X0.0669*%
%ADD16R,0.0512X0.0591*%
%ADD17R,0.0591X0.0591*%
%ADD18R,0.0551X0.0394*%
%ADD19R,0.0709X0.0472*%
%ADD20R,0.0500X0.0579*%
%ADD21C,0.0554*%
%ADD22R,0.0787X0.0394*%
%ADD23R,0.0217X0.0472*%
%ADD24R,0.0630X0.1378*%
%ADD25R,0.0945X0.1102*%
%ADD26C,0.0750*%
%ADD27C,0.1050*%
%ADD28C,0.0600*%
%ADD29R,0.0600X0.0300*%
%ADD30R,0.0315X0.0709*%
%ADD31R,0.0276X0.0709*%
%ADD32C,0.0600*%
%ADD33OC8,0.0600*%
%ADD34R,0.0236X0.0472*%
%ADD35R,0.0551X0.0551*%
%ADD36C,0.0515*%
%ADD37R,0.0360X0.0700*%
%ADD38R,0.0515X0.0515*%
%ADD39R,0.0394X0.0551*%
%ADD40R,0.0787X0.0472*%
%ADD41R,0.0531X0.0236*%
%ADD42R,0.0197X0.0138*%
%ADD43C,0.0160*%
%ADD44C,0.0400*%
%ADD45OC8,0.0396*%
%ADD46C,0.0120*%
%ADD47C,0.0320*%
D10*
X002100Y002640D03*
X002100Y003310D03*
X002100Y005265D03*
X002100Y005935D03*
X001100Y011265D03*
X001100Y011935D03*
X006350Y014140D03*
X006350Y014810D03*
X011350Y016765D03*
X011350Y017435D03*
X017100Y011935D03*
X017100Y011265D03*
X017100Y009935D03*
X017100Y009265D03*
X017975Y009265D03*
X017975Y009935D03*
X018850Y009935D03*
X018850Y009265D03*
X019725Y009265D03*
X019725Y009935D03*
X020725Y009935D03*
X020725Y009265D03*
X021725Y009265D03*
X021725Y009935D03*
X023225Y009935D03*
X023225Y009265D03*
X018850Y011265D03*
X018850Y011935D03*
X015850Y008060D03*
X015850Y007390D03*
X014975Y007390D03*
X014975Y008060D03*
X015350Y003685D03*
X015350Y003015D03*
X007975Y003265D03*
X007975Y003935D03*
X006725Y031140D03*
X006725Y031810D03*
D11*
X006822Y013165D03*
X006507Y013165D03*
X006193Y013165D03*
X005878Y013165D03*
X005563Y013165D03*
X005248Y013165D03*
X007137Y013165D03*
X007452Y013165D03*
X007452Y009785D03*
X007137Y009785D03*
X006822Y009785D03*
X006507Y009785D03*
X006193Y009785D03*
X005878Y009785D03*
X005563Y009785D03*
X005248Y009785D03*
D12*
X004660Y010373D03*
X004660Y010688D03*
X004660Y011003D03*
X004660Y011318D03*
X004660Y011632D03*
X004660Y011947D03*
X004660Y012262D03*
X004660Y012577D03*
X008040Y012577D03*
X008040Y012262D03*
X008040Y011947D03*
X008040Y011632D03*
X008040Y011318D03*
X008040Y011003D03*
X008040Y010688D03*
X008040Y010373D03*
D13*
X004975Y002438D03*
D14*
X004975Y006725D03*
X003975Y006725D03*
X005975Y006725D03*
D15*
X005447Y014100D03*
X004975Y014100D03*
X004503Y014100D03*
D16*
X004640Y015475D03*
X005310Y015475D03*
X005890Y008350D03*
X006560Y008350D03*
X012515Y010725D03*
X013185Y010725D03*
X013185Y011600D03*
X012515Y011600D03*
X012515Y012475D03*
X013185Y012475D03*
X017640Y004725D03*
X018310Y004725D03*
X018310Y003725D03*
X017640Y003725D03*
X017640Y002725D03*
X018310Y002725D03*
X022890Y012475D03*
X023560Y012475D03*
X025265Y012475D03*
X025935Y012475D03*
X021060Y017225D03*
X020390Y017225D03*
X010810Y030850D03*
X010140Y030850D03*
X009310Y032725D03*
X008640Y032725D03*
D17*
X011600Y032661D03*
X012600Y032661D03*
X012600Y034039D03*
X011600Y034039D03*
D18*
X013667Y017474D03*
X013667Y016726D03*
X014533Y017100D03*
D19*
X008725Y030575D03*
X008725Y031875D03*
X007725Y031875D03*
X007725Y030575D03*
X005725Y030575D03*
X005725Y031875D03*
X004725Y031875D03*
X004725Y030575D03*
X003725Y030575D03*
X002725Y030575D03*
X002725Y031875D03*
X003725Y031875D03*
X001725Y031875D03*
X001725Y030575D03*
D20*
X016504Y001600D03*
X018196Y001600D03*
D21*
X017850Y013445D03*
X017850Y016005D03*
D22*
X025369Y018672D03*
X025369Y021428D03*
D23*
X016849Y004237D03*
X016475Y004237D03*
X016101Y004237D03*
X016101Y003213D03*
X016849Y003213D03*
D24*
X013350Y003413D03*
X013350Y001287D03*
X009850Y001287D03*
X009850Y003413D03*
D25*
X020981Y002225D03*
X020981Y004627D03*
X025469Y004627D03*
X025469Y002225D03*
D26*
X015725Y032850D03*
D27*
X014721Y031846D03*
X014721Y033854D03*
X016729Y033854D03*
X016729Y031846D03*
D28*
X011525Y013225D02*
X010925Y013225D01*
X010925Y012225D02*
X011525Y012225D01*
X011525Y011225D02*
X010925Y011225D01*
D29*
X009475Y007475D03*
X009475Y005975D03*
X007475Y005975D03*
X007475Y007475D03*
D30*
X022781Y013526D03*
X023214Y013526D03*
X023647Y013526D03*
X024080Y013526D03*
X024513Y013526D03*
X024946Y013526D03*
X025380Y013526D03*
X025380Y017266D03*
X024946Y017266D03*
X024513Y017266D03*
X024080Y017266D03*
X023647Y017266D03*
X023214Y017266D03*
X022781Y017266D03*
D31*
X022368Y017266D03*
X022368Y013526D03*
X025793Y013526D03*
X025793Y017266D03*
D32*
X001475Y009600D03*
D33*
X001475Y008600D03*
X001475Y007600D03*
X002475Y007600D03*
X002475Y008600D03*
X002475Y009600D03*
D34*
X015101Y009336D03*
X015475Y009336D03*
X015849Y009336D03*
X015849Y010364D03*
X015101Y010364D03*
D35*
X020975Y014727D03*
X020975Y016223D03*
X001100Y005973D03*
X001100Y004477D03*
D36*
X001725Y029600D03*
X002725Y029600D03*
X003725Y029600D03*
X004725Y029600D03*
X005725Y029600D03*
X006725Y029600D03*
X007725Y029600D03*
X008725Y029600D03*
X014725Y029600D03*
X015725Y029600D03*
X016725Y029600D03*
D37*
X015725Y022600D03*
X003725Y022600D03*
D38*
X001725Y018600D03*
X017725Y018600D03*
D39*
X022851Y011658D03*
X023599Y011658D03*
X023225Y010792D03*
D40*
X001153Y013998D03*
X001153Y016202D03*
D41*
X002600Y015691D03*
X002600Y015297D03*
X002600Y014903D03*
X002600Y014509D03*
D42*
X012446Y014466D03*
X012446Y014722D03*
X012446Y014978D03*
X012446Y015234D03*
X013254Y015234D03*
X013254Y014978D03*
X013254Y014722D03*
X013254Y014466D03*
D43*
X002669Y000734D02*
X000645Y000734D01*
X000580Y000799D02*
X000799Y000580D01*
X002680Y000580D01*
X002669Y000591D01*
X002669Y004176D01*
X002360Y003867D01*
X002360Y003746D01*
X002470Y003746D01*
X002575Y003640D01*
X002575Y002979D01*
X002563Y002966D01*
X002563Y002966D01*
X002575Y002920D01*
X002575Y002688D01*
X002148Y002688D01*
X002148Y002592D01*
X002148Y002204D01*
X002419Y002204D01*
X002465Y002217D01*
X002506Y002240D01*
X002539Y002274D01*
X002563Y002315D01*
X002575Y002361D01*
X002575Y002592D01*
X002148Y002592D01*
X002052Y002592D01*
X002052Y002204D01*
X001781Y002204D01*
X001735Y002217D01*
X001694Y002240D01*
X001661Y002274D01*
X001637Y002315D01*
X001625Y002361D01*
X001625Y002592D01*
X002052Y002592D01*
X002052Y002688D01*
X001625Y002688D01*
X001625Y002920D01*
X001637Y002966D01*
X001637Y002966D01*
X001625Y002979D01*
X001625Y003640D01*
X001730Y003746D01*
X001840Y003746D01*
X001840Y004027D01*
X001869Y004097D01*
X001693Y004097D01*
X001573Y004217D01*
X001556Y004217D01*
X001556Y004127D01*
X001450Y004021D01*
X000750Y004021D01*
X000644Y004127D01*
X000644Y004827D01*
X000750Y004933D01*
X001450Y004933D01*
X001556Y004827D01*
X001556Y004737D01*
X001577Y004737D01*
X001693Y004853D01*
X001707Y004853D01*
X001625Y004935D01*
X001625Y005596D01*
X001629Y005600D01*
X001625Y005604D01*
X001625Y005675D01*
X001556Y005675D01*
X001556Y005623D01*
X001450Y005517D01*
X000750Y005517D01*
X000644Y005623D01*
X000644Y006323D01*
X000750Y006429D01*
X000840Y006429D01*
X000840Y007277D01*
X000880Y007372D01*
X000995Y007488D01*
X000995Y007799D01*
X001276Y008080D01*
X001674Y008080D01*
X001955Y007799D01*
X001955Y007401D01*
X001674Y007120D01*
X001363Y007120D01*
X001360Y007117D01*
X001360Y006429D01*
X001450Y006429D01*
X001556Y006323D01*
X001556Y006195D01*
X001625Y006195D01*
X001625Y006265D01*
X001730Y006371D01*
X002470Y006371D01*
X002575Y006265D01*
X002575Y005604D01*
X002571Y005600D01*
X002575Y005596D01*
X002575Y004935D01*
X002470Y004829D01*
X002360Y004829D01*
X002360Y004673D01*
X002320Y004578D01*
X002228Y004485D01*
X002228Y004471D01*
X002755Y004997D01*
X002828Y005070D01*
X002923Y005110D01*
X003595Y005110D01*
X003595Y005800D01*
X003495Y005900D01*
X003495Y007550D01*
X003600Y007655D01*
X004350Y007655D01*
X004455Y007550D01*
X004455Y005900D01*
X004355Y005800D01*
X004355Y004774D01*
X004353Y004770D01*
X004353Y004693D01*
X004299Y004639D01*
X004297Y004635D01*
X004190Y004528D01*
X004186Y004526D01*
X004132Y004472D01*
X004055Y004472D01*
X004051Y004470D01*
X003899Y004470D01*
X003895Y004472D01*
X003818Y004472D01*
X003764Y004526D01*
X003760Y004528D01*
X003698Y004590D01*
X003083Y004590D01*
X002882Y004389D01*
X007176Y004389D01*
X007281Y004284D01*
X007281Y000591D01*
X007270Y000580D01*
X009355Y000580D01*
X009355Y001210D01*
X009773Y001210D01*
X009773Y001364D01*
X009355Y001364D01*
X009355Y002000D01*
X009367Y002045D01*
X009391Y002087D01*
X009425Y002120D01*
X009466Y002144D01*
X009511Y002156D01*
X009773Y002156D01*
X009773Y001364D01*
X009927Y001364D01*
X009927Y002156D01*
X010189Y002156D01*
X010234Y002144D01*
X010275Y002120D01*
X010309Y002087D01*
X010333Y002045D01*
X010345Y002000D01*
X010345Y001364D01*
X009927Y001364D01*
X009927Y001210D01*
X010345Y001210D01*
X010345Y000580D01*
X012855Y000580D01*
X012855Y001210D01*
X013273Y001210D01*
X013273Y001364D01*
X012855Y001364D01*
X012855Y002000D01*
X012867Y002045D01*
X012891Y002087D01*
X012925Y002120D01*
X012966Y002144D01*
X013011Y002156D01*
X013273Y002156D01*
X013273Y001364D01*
X013427Y001364D01*
X013427Y002156D01*
X013689Y002156D01*
X013734Y002144D01*
X013775Y002120D01*
X013809Y002087D01*
X013833Y002045D01*
X013845Y002000D01*
X013845Y001364D01*
X013427Y001364D01*
X013427Y001210D01*
X013845Y001210D01*
X013845Y000580D01*
X025901Y000580D01*
X026120Y000799D01*
X026120Y001644D01*
X026109Y001604D01*
X026086Y001563D01*
X026052Y001530D01*
X026011Y001506D01*
X025965Y001494D01*
X025549Y001494D01*
X025549Y002145D01*
X025389Y002145D01*
X024817Y002145D01*
X024817Y001650D01*
X024829Y001604D01*
X024853Y001563D01*
X024886Y001530D01*
X024927Y001506D01*
X024973Y001494D01*
X025389Y001494D01*
X025389Y002145D01*
X025389Y002305D01*
X024817Y002305D01*
X024817Y002800D01*
X024829Y002846D01*
X024853Y002887D01*
X024886Y002920D01*
X024927Y002944D01*
X024973Y002956D01*
X025389Y002956D01*
X025389Y002305D01*
X025549Y002305D01*
X025549Y002956D01*
X025965Y002956D01*
X026011Y002944D01*
X026052Y002920D01*
X026086Y002887D01*
X026109Y002846D01*
X026120Y002806D01*
X026120Y004046D01*
X026109Y004006D01*
X026086Y003965D01*
X026052Y003931D01*
X026011Y003908D01*
X025965Y003895D01*
X025549Y003895D01*
X025549Y004547D01*
X025389Y004547D01*
X024817Y004547D01*
X024817Y004052D01*
X024829Y004006D01*
X024853Y003965D01*
X024886Y003931D01*
X024927Y003908D01*
X024973Y003895D01*
X025389Y003895D01*
X025389Y004547D01*
X025389Y004707D01*
X025389Y005358D01*
X024973Y005358D01*
X024927Y005345D01*
X024886Y005322D01*
X024853Y005288D01*
X024829Y005247D01*
X024817Y005201D01*
X024817Y004707D01*
X025389Y004707D01*
X025549Y004707D01*
X025549Y005358D01*
X025965Y005358D01*
X026011Y005345D01*
X026052Y005322D01*
X026086Y005288D01*
X026109Y005247D01*
X026120Y005207D01*
X026120Y012000D01*
X025983Y012000D01*
X025983Y012427D01*
X025887Y012427D01*
X025887Y012000D01*
X025655Y012000D01*
X025609Y012012D01*
X025609Y012012D01*
X025596Y012000D01*
X024935Y012000D01*
X024829Y012105D01*
X024829Y012215D01*
X024625Y012215D01*
X024507Y012097D01*
X024193Y012097D01*
X024075Y012215D01*
X023996Y012215D01*
X023996Y012105D01*
X023937Y012047D01*
X023976Y012008D01*
X023976Y011308D01*
X023870Y011202D01*
X023541Y011202D01*
X023602Y011142D01*
X023602Y010442D01*
X023531Y010371D01*
X023595Y010371D01*
X023700Y010265D01*
X023700Y009604D01*
X023696Y009600D01*
X023700Y009596D01*
X023700Y008935D01*
X023595Y008829D01*
X023485Y008829D01*
X023485Y008625D01*
X023603Y008507D01*
X023603Y008193D01*
X023382Y007972D01*
X023068Y007972D01*
X022847Y008193D01*
X022847Y008507D01*
X022965Y008625D01*
X022965Y008829D01*
X022855Y008829D01*
X022750Y008935D01*
X022750Y009596D01*
X022754Y009600D01*
X022750Y009604D01*
X022750Y009632D01*
X022735Y009617D01*
X022735Y008648D01*
X022736Y008644D01*
X022735Y008596D01*
X022735Y008548D01*
X022734Y008545D01*
X022733Y008541D01*
X022714Y008497D01*
X022695Y008453D01*
X022693Y008450D01*
X022691Y008446D01*
X022656Y008414D01*
X022622Y008380D01*
X022619Y008378D01*
X020406Y006289D01*
X020372Y006255D01*
X020369Y006253D01*
X020366Y006250D01*
X020321Y006233D01*
X020277Y006215D01*
X020273Y006215D01*
X020269Y006214D01*
X020221Y006215D01*
X017978Y006215D01*
X018530Y005663D01*
X018570Y005567D01*
X018570Y005200D01*
X018640Y005200D01*
X018746Y005095D01*
X018746Y004355D01*
X018640Y004250D01*
X018570Y004250D01*
X018570Y004200D01*
X018640Y004200D01*
X018746Y004095D01*
X018746Y003355D01*
X018640Y003250D01*
X018570Y003250D01*
X018570Y003200D01*
X018640Y003200D01*
X018746Y003095D01*
X018746Y002355D01*
X018640Y002250D01*
X017979Y002250D01*
X017975Y002254D01*
X017971Y002250D01*
X017521Y002250D01*
X016934Y001662D01*
X016934Y001236D01*
X016828Y001131D01*
X016179Y001131D01*
X016090Y001220D01*
X015524Y001220D01*
X015520Y001222D01*
X015443Y001222D01*
X015389Y001276D01*
X015385Y001278D01*
X015278Y001385D01*
X015276Y001389D01*
X015222Y001443D01*
X015222Y001520D01*
X015220Y001524D01*
X015220Y001676D01*
X015222Y001680D01*
X015222Y001757D01*
X015276Y001811D01*
X015278Y001815D01*
X015385Y001922D01*
X015389Y001924D01*
X015443Y001978D01*
X015520Y001978D01*
X015524Y001980D01*
X016090Y001980D01*
X016179Y002069D01*
X016605Y002069D01*
X017204Y002669D01*
X017204Y003095D01*
X017310Y003200D01*
X017971Y003200D01*
X017975Y003196D01*
X017979Y003200D01*
X018050Y003200D01*
X018050Y003250D01*
X017979Y003250D01*
X017966Y003262D01*
X017966Y003262D01*
X017920Y003250D01*
X017688Y003250D01*
X017688Y003677D01*
X017592Y003677D01*
X017204Y003677D01*
X017204Y003406D01*
X017217Y003360D01*
X017240Y003319D01*
X017274Y003286D01*
X017315Y003262D01*
X017361Y003250D01*
X017592Y003250D01*
X017592Y003677D01*
X017592Y003773D01*
X017204Y003773D01*
X017204Y004044D01*
X017217Y004090D01*
X017240Y004131D01*
X017274Y004164D01*
X017315Y004188D01*
X017361Y004200D01*
X017592Y004200D01*
X017592Y003773D01*
X017688Y003773D01*
X017688Y004200D01*
X017920Y004200D01*
X017966Y004188D01*
X017966Y004188D01*
X017979Y004200D01*
X018050Y004200D01*
X018050Y004250D01*
X017979Y004250D01*
X017966Y004262D01*
X017966Y004262D01*
X017920Y004250D01*
X017688Y004250D01*
X017688Y004677D01*
X017592Y004677D01*
X017204Y004677D01*
X017204Y004406D01*
X017217Y004360D01*
X017240Y004319D01*
X017274Y004286D01*
X017315Y004262D01*
X017361Y004250D01*
X017592Y004250D01*
X017592Y004677D01*
X017592Y004773D01*
X017204Y004773D01*
X017204Y005044D01*
X017217Y005090D01*
X017240Y005131D01*
X017274Y005164D01*
X017315Y005188D01*
X017361Y005200D01*
X017592Y005200D01*
X017592Y004773D01*
X017688Y004773D01*
X017688Y005200D01*
X017920Y005200D01*
X017966Y005188D01*
X017966Y005188D01*
X017979Y005200D01*
X018050Y005200D01*
X018050Y005408D01*
X017617Y005840D01*
X013173Y005840D01*
X013078Y005880D01*
X013005Y005953D01*
X010992Y007965D01*
X010603Y007965D01*
X011747Y006820D01*
X011820Y006747D01*
X011860Y006652D01*
X011860Y005750D01*
X011978Y005632D01*
X011978Y005318D01*
X011757Y005097D01*
X011443Y005097D01*
X011222Y005318D01*
X011222Y005632D01*
X011340Y005750D01*
X011340Y006492D01*
X008867Y008965D01*
X007173Y008965D01*
X007078Y009005D01*
X007005Y009078D01*
X006917Y009165D01*
X006877Y009261D01*
X006877Y009355D01*
X006639Y009355D01*
X006507Y009355D01*
X006507Y009785D01*
X006507Y009785D01*
X006507Y010215D01*
X005833Y010215D01*
X006320Y010703D01*
X006360Y010798D01*
X006360Y011867D01*
X006728Y012235D01*
X006767Y012331D01*
X006767Y012735D01*
X006822Y012735D01*
X006822Y013165D01*
X006822Y013165D01*
X006822Y013595D01*
X006747Y013595D01*
X006747Y013732D01*
X006825Y013810D01*
X006825Y014471D01*
X006813Y014484D01*
X006825Y014530D01*
X006825Y014762D01*
X006398Y014762D01*
X006398Y014858D01*
X006302Y014858D01*
X006302Y015246D01*
X006031Y015246D01*
X005985Y015233D01*
X005944Y015210D01*
X005911Y015176D01*
X005887Y015135D01*
X005875Y015089D01*
X005875Y014858D01*
X006302Y014858D01*
X006302Y014762D01*
X005875Y014762D01*
X005875Y014530D01*
X005887Y014484D01*
X005887Y014484D01*
X005875Y014471D01*
X005875Y013810D01*
X005980Y013704D01*
X006267Y013704D01*
X006267Y013595D01*
X006193Y013595D01*
X006193Y013165D01*
X006193Y013165D01*
X006193Y013595D01*
X005823Y013595D01*
X005823Y014037D01*
X005783Y014132D01*
X005765Y014150D01*
X005765Y014509D01*
X005707Y014567D01*
X005707Y015067D01*
X005746Y015105D01*
X005746Y015845D01*
X005640Y015950D01*
X004979Y015950D01*
X004971Y015950D01*
X004310Y015950D01*
X004204Y015845D01*
X004204Y015105D01*
X004243Y015067D01*
X004243Y014567D01*
X004185Y014509D01*
X004185Y013691D01*
X004215Y013661D01*
X004215Y013548D01*
X004255Y013453D01*
X004328Y013380D01*
X004763Y012945D01*
X004858Y012905D01*
X004958Y012905D01*
X004958Y012867D01*
X004700Y012867D01*
X004110Y013458D01*
X004110Y015867D01*
X004958Y016715D01*
X007430Y016715D01*
X007347Y016632D01*
X007347Y016318D01*
X007568Y016097D01*
X007735Y016097D01*
X007755Y016078D01*
X007828Y016005D01*
X007923Y015965D01*
X011680Y015965D01*
X011597Y015882D01*
X011597Y015568D01*
X011812Y015353D01*
X011568Y015353D01*
X011347Y015132D01*
X011347Y014818D01*
X011568Y014597D01*
X011757Y014597D01*
X011614Y014454D01*
X010570Y015497D01*
X010497Y015570D01*
X010402Y015610D01*
X008125Y015610D01*
X008007Y015728D01*
X007693Y015728D01*
X007472Y015507D01*
X007472Y015193D01*
X007693Y014972D01*
X008007Y014972D01*
X008125Y015090D01*
X010242Y015090D01*
X011453Y013880D01*
X011640Y013692D01*
X011637Y013693D01*
X011563Y013705D01*
X011245Y013705D01*
X011245Y013245D01*
X012005Y013245D01*
X012005Y013263D01*
X011993Y013337D01*
X011992Y013340D01*
X012340Y012992D01*
X012340Y012950D01*
X012185Y012950D01*
X012079Y012845D01*
X012079Y012105D01*
X012147Y012038D01*
X012079Y011970D01*
X012079Y011230D01*
X012147Y011162D01*
X012079Y011095D01*
X012079Y010355D01*
X012185Y010250D01*
X012255Y010250D01*
X012255Y009383D01*
X012295Y009287D01*
X013597Y007985D01*
X013597Y007818D01*
X013765Y007650D01*
X013542Y007650D01*
X011728Y009465D01*
X011728Y009632D01*
X011507Y009853D01*
X011193Y009853D01*
X010975Y009635D01*
X010757Y009853D01*
X010443Y009853D01*
X010225Y009635D01*
X010007Y009853D01*
X009693Y009853D01*
X009472Y009632D01*
X009472Y009596D01*
X009062Y010005D01*
X008967Y010045D01*
X007742Y010045D01*
X007742Y010083D01*
X008365Y010083D01*
X008470Y010188D01*
X008470Y010743D01*
X009465Y010743D01*
X009597Y010610D01*
X009597Y010443D01*
X009818Y010222D01*
X010132Y010222D01*
X010353Y010443D01*
X010353Y010757D01*
X010132Y010978D01*
X009965Y010978D01*
X009846Y011097D01*
X010132Y011097D01*
X010353Y011318D01*
X010353Y011604D01*
X010501Y011456D01*
X010445Y011320D01*
X010445Y011130D01*
X010518Y010953D01*
X010653Y010818D01*
X010830Y010745D01*
X011620Y010745D01*
X011797Y010818D01*
X011932Y010953D01*
X012005Y011130D01*
X012005Y011320D01*
X011932Y011497D01*
X011797Y011632D01*
X011620Y011705D01*
X010988Y011705D01*
X010948Y011745D01*
X011620Y011745D01*
X011797Y011818D01*
X011932Y011953D01*
X012005Y012130D01*
X012005Y012320D01*
X011932Y012497D01*
X011797Y012632D01*
X011620Y012705D01*
X010830Y012705D01*
X010653Y012632D01*
X010544Y012522D01*
X008470Y012522D01*
X008470Y012762D01*
X008365Y012867D01*
X008300Y012867D01*
X008300Y014057D01*
X008465Y014222D01*
X008632Y014222D01*
X008853Y014443D01*
X008853Y014757D01*
X008632Y014978D01*
X008318Y014978D01*
X008097Y014757D01*
X008097Y014590D01*
X007820Y014312D01*
X007780Y014217D01*
X007780Y012867D01*
X007742Y012867D01*
X007742Y013490D01*
X007637Y013595D01*
X007397Y013595D01*
X007397Y015488D01*
X007603Y015693D01*
X007603Y016007D01*
X007382Y016228D01*
X007068Y016228D01*
X006847Y016007D01*
X006847Y015693D01*
X006877Y015663D01*
X006877Y013595D01*
X006822Y013595D01*
X006822Y013165D01*
X006822Y013165D01*
X006822Y012735D01*
X006956Y012735D01*
X007192Y012735D01*
X007192Y012477D01*
X006972Y012257D01*
X006972Y011943D01*
X007086Y011829D01*
X006360Y011829D01*
X006360Y011671D02*
X006761Y011671D01*
X006818Y011728D02*
X006597Y011507D01*
X006597Y011193D01*
X006818Y010972D01*
X007132Y010972D01*
X007353Y011193D01*
X007353Y011360D01*
X007365Y011372D01*
X007610Y011372D01*
X007610Y010215D01*
X006638Y010215D01*
X006507Y010215D01*
X006507Y009785D01*
X006507Y009785D01*
X006507Y009355D01*
X006453Y009355D01*
X006453Y008825D01*
X006512Y008825D01*
X006512Y008398D01*
X006608Y008398D01*
X006996Y008398D01*
X006996Y008669D01*
X006983Y008715D01*
X006960Y008756D01*
X006926Y008789D01*
X006885Y008813D01*
X006839Y008825D01*
X006608Y008825D01*
X006608Y008398D01*
X006608Y008302D01*
X006996Y008302D01*
X006996Y008031D01*
X006983Y007985D01*
X006960Y007944D01*
X006926Y007911D01*
X006885Y007887D01*
X006839Y007875D01*
X006608Y007875D01*
X006608Y008302D01*
X006512Y008302D01*
X006512Y007875D01*
X006280Y007875D01*
X006234Y007887D01*
X006234Y007887D01*
X006221Y007875D01*
X005560Y007875D01*
X005454Y007980D01*
X005454Y008720D01*
X005560Y008825D01*
X005833Y008825D01*
X005933Y008925D01*
X005933Y009355D01*
X005823Y009355D01*
X005823Y009261D01*
X005783Y009165D01*
X005235Y008617D01*
X005235Y007655D01*
X005350Y007655D01*
X005455Y007550D01*
X005455Y005900D01*
X005355Y005800D01*
X005355Y005230D01*
X009801Y005230D01*
X009940Y005172D01*
X010003Y005110D01*
X010110Y005003D01*
X010127Y004985D01*
X016777Y004985D01*
X016872Y004945D01*
X016945Y004872D01*
X016945Y004872D01*
X016997Y004820D01*
X017070Y004747D01*
X017110Y004652D01*
X017110Y004575D01*
X017137Y004548D01*
X017137Y003926D01*
X017032Y003821D01*
X016666Y003821D01*
X016653Y003833D01*
X016653Y003833D01*
X016607Y003821D01*
X016475Y003821D01*
X016475Y004237D01*
X016475Y003685D01*
X015350Y003685D01*
X015398Y003733D02*
X015302Y003733D01*
X015302Y004121D01*
X015031Y004121D01*
X014985Y004108D01*
X014944Y004085D01*
X014911Y004051D01*
X014887Y004010D01*
X014875Y003964D01*
X014875Y003733D01*
X015302Y003733D01*
X015302Y003637D01*
X014875Y003637D01*
X014875Y003405D01*
X014887Y003359D01*
X014887Y003359D01*
X014875Y003346D01*
X014875Y002735D01*
X014583Y002735D01*
X013845Y003473D01*
X013845Y004177D01*
X013740Y004282D01*
X012960Y004282D01*
X012855Y004177D01*
X012855Y002649D01*
X012960Y002544D01*
X013740Y002544D01*
X013845Y002649D01*
X013845Y002737D01*
X014255Y002328D01*
X014328Y002255D01*
X014423Y002215D01*
X016200Y002215D01*
X016318Y002097D01*
X016632Y002097D01*
X016853Y002318D01*
X016853Y002485D01*
X017069Y002702D01*
X017109Y002797D01*
X017109Y002874D01*
X017137Y002902D01*
X017137Y003524D01*
X017032Y003629D01*
X016666Y003629D01*
X016561Y003524D01*
X016561Y002928D01*
X016485Y002853D01*
X016340Y002853D01*
X016389Y002902D01*
X016389Y003524D01*
X016284Y003629D01*
X015918Y003629D01*
X015825Y003536D01*
X015825Y003637D01*
X015398Y003637D01*
X015398Y003733D01*
X015398Y004121D01*
X015669Y004121D01*
X015715Y004108D01*
X015756Y004085D01*
X015789Y004051D01*
X015813Y004011D01*
X015813Y004465D01*
X010230Y004465D01*
X010230Y004282D01*
X010240Y004282D01*
X010345Y004177D01*
X010345Y002649D01*
X010240Y002544D01*
X009460Y002544D01*
X009355Y002649D01*
X009355Y003394D01*
X009314Y003493D01*
X009314Y003645D01*
X009355Y003744D01*
X009355Y004177D01*
X009408Y004229D01*
X009408Y004470D01*
X008315Y004470D01*
X008315Y004371D01*
X008345Y004371D01*
X008450Y004265D01*
X008450Y003604D01*
X008438Y003591D01*
X008438Y003591D01*
X008450Y003545D01*
X008450Y003313D01*
X008023Y003313D01*
X008023Y003217D01*
X008023Y002829D01*
X008294Y002829D01*
X008340Y002842D01*
X008381Y002865D01*
X008414Y002899D01*
X008438Y002940D01*
X008450Y002986D01*
X008450Y003217D01*
X008023Y003217D01*
X007927Y003217D01*
X007927Y002829D01*
X007656Y002829D01*
X007610Y002842D01*
X007569Y002865D01*
X007536Y002899D01*
X007512Y002940D01*
X007500Y002986D01*
X007500Y003217D01*
X007927Y003217D01*
X007927Y003313D01*
X007500Y003313D01*
X007500Y003545D01*
X007512Y003591D01*
X007512Y003591D01*
X007500Y003604D01*
X007500Y004265D01*
X007605Y004371D01*
X007635Y004371D01*
X007635Y004470D01*
X004899Y004470D01*
X004895Y004472D01*
X004818Y004472D01*
X004764Y004526D01*
X004760Y004528D01*
X004653Y004635D01*
X004651Y004639D01*
X004597Y004693D01*
X004597Y004770D01*
X004595Y004774D01*
X004595Y005800D01*
X004495Y005900D01*
X004495Y007550D01*
X004600Y007655D01*
X004715Y007655D01*
X004715Y008340D01*
X003423Y008340D01*
X003328Y008380D01*
X003255Y008453D01*
X002955Y008752D01*
X002955Y008401D01*
X002674Y008120D01*
X002276Y008120D01*
X001995Y008401D01*
X001995Y008799D01*
X002276Y009080D01*
X002627Y009080D01*
X002587Y009120D01*
X002276Y009120D01*
X001995Y009401D01*
X001995Y009752D01*
X001950Y009707D01*
X001955Y009695D01*
X001955Y009505D01*
X001882Y009328D01*
X001747Y009193D01*
X001570Y009120D01*
X001380Y009120D01*
X001203Y009193D01*
X001110Y009286D01*
X001110Y009083D01*
X001194Y008998D01*
X001276Y009080D01*
X001674Y009080D01*
X001955Y008799D01*
X001955Y008401D01*
X001674Y008120D01*
X001276Y008120D01*
X000995Y008401D01*
X000995Y008462D01*
X000630Y008828D01*
X000590Y008923D01*
X000590Y010652D01*
X000630Y010747D01*
X000703Y010820D01*
X000721Y010839D01*
X000625Y010935D01*
X000625Y011596D01*
X000629Y011600D01*
X000625Y011604D01*
X000625Y012265D01*
X000730Y012371D01*
X000840Y012371D01*
X000840Y012527D01*
X000880Y012622D01*
X001597Y013340D01*
X001597Y013507D01*
X001818Y013728D01*
X002132Y013728D01*
X002353Y013507D01*
X002353Y013193D01*
X002132Y012972D01*
X001965Y012972D01*
X001363Y012371D01*
X001470Y012371D01*
X001575Y012265D01*
X001575Y011604D01*
X001571Y011600D01*
X001575Y011596D01*
X001575Y010935D01*
X001470Y010829D01*
X001360Y010829D01*
X001360Y010798D01*
X001320Y010703D01*
X001110Y010492D01*
X001110Y009914D01*
X001203Y010007D01*
X001380Y010080D01*
X001570Y010080D01*
X001582Y010075D01*
X001953Y010445D01*
X002048Y010485D01*
X003055Y010485D01*
X002972Y010568D01*
X002972Y010882D01*
X003193Y011103D01*
X003479Y011103D01*
X002617Y011965D01*
X002250Y011965D01*
X002132Y011847D01*
X001818Y011847D01*
X001597Y012068D01*
X001597Y012382D01*
X001818Y012603D01*
X002132Y012603D01*
X002250Y012485D01*
X002777Y012485D01*
X002872Y012445D01*
X002945Y012372D01*
X003472Y011846D01*
X003472Y011882D01*
X003693Y012103D01*
X004007Y012103D01*
X004228Y011882D01*
X004228Y011715D01*
X004230Y011713D01*
X004230Y012602D01*
X003703Y013130D01*
X003630Y013203D01*
X003590Y013298D01*
X003590Y013805D01*
X003507Y013722D01*
X003193Y013722D01*
X003075Y013840D01*
X003048Y013840D01*
X002953Y013880D01*
X002880Y013953D01*
X002621Y014211D01*
X002260Y014211D01*
X002154Y014317D01*
X002154Y014702D01*
X002158Y014706D01*
X002154Y014710D01*
X002154Y015096D01*
X002158Y015100D01*
X002154Y015104D01*
X002154Y015490D01*
X002167Y015502D01*
X002167Y015503D01*
X002154Y015549D01*
X002154Y015691D01*
X002600Y015691D01*
X002600Y015989D01*
X002311Y015989D01*
X002265Y015976D01*
X002224Y015953D01*
X002190Y015919D01*
X002167Y015878D01*
X002154Y015832D01*
X002154Y015691D01*
X002600Y015691D01*
X002600Y015691D01*
X002600Y015989D01*
X002889Y015989D01*
X002935Y015976D01*
X002976Y015953D01*
X003010Y015919D01*
X003033Y015878D01*
X003046Y015832D01*
X003046Y015691D01*
X002600Y015691D01*
X002600Y015691D01*
X002600Y015691D01*
X003046Y015691D01*
X003046Y015580D01*
X003193Y015728D01*
X003507Y015728D01*
X003590Y015645D01*
X003590Y016027D01*
X003630Y016122D01*
X004630Y017122D01*
X004703Y017195D01*
X004798Y017235D01*
X006180Y017235D01*
X006097Y017318D01*
X006097Y017632D01*
X006318Y017853D01*
X006514Y017853D01*
X007022Y018361D01*
X007089Y018428D01*
X007177Y018465D01*
X015273Y018465D01*
X015361Y018428D01*
X015561Y018228D01*
X015757Y018228D01*
X015978Y018007D01*
X015978Y017693D01*
X015757Y017472D01*
X015721Y017472D01*
X017090Y016103D01*
X017257Y016103D01*
X017393Y015967D01*
X017393Y016095D01*
X017462Y016263D01*
X017591Y016392D01*
X017759Y016462D01*
X017939Y016462D01*
X017953Y016475D01*
X018048Y016515D01*
X020519Y016515D01*
X020519Y016573D01*
X020625Y016679D01*
X020715Y016679D01*
X020715Y016762D01*
X020670Y016750D01*
X020438Y016750D01*
X020438Y017177D01*
X020342Y017177D01*
X019954Y017177D01*
X019954Y016906D01*
X019967Y016860D01*
X019990Y016819D01*
X020024Y016786D01*
X020065Y016762D01*
X020111Y016750D01*
X020342Y016750D01*
X020342Y017177D01*
X020342Y017273D01*
X019954Y017273D01*
X019954Y017544D01*
X019967Y017590D01*
X019990Y017631D01*
X020024Y017664D01*
X020065Y017688D01*
X020111Y017700D01*
X020342Y017700D01*
X020342Y017273D01*
X020438Y017273D01*
X020438Y017700D01*
X020670Y017700D01*
X020716Y017688D01*
X020716Y017688D01*
X020729Y017700D01*
X021390Y017700D01*
X021496Y017595D01*
X021496Y016855D01*
X021390Y016750D01*
X021235Y016750D01*
X021235Y016679D01*
X021325Y016679D01*
X021431Y016573D01*
X021431Y015873D01*
X021325Y015767D01*
X020625Y015767D01*
X020519Y015873D01*
X020519Y015995D01*
X018307Y015995D01*
X018307Y015914D01*
X018238Y015746D01*
X018109Y015617D01*
X017941Y015547D01*
X017759Y015547D01*
X017591Y015617D01*
X017478Y015730D01*
X017478Y015568D01*
X017257Y015347D01*
X016943Y015347D01*
X016722Y015568D01*
X016722Y015735D01*
X014742Y017715D01*
X014123Y017715D01*
X014123Y017416D01*
X014183Y017477D01*
X014883Y017477D01*
X014989Y017371D01*
X014989Y017012D01*
X017014Y014987D01*
X020519Y014987D01*
X020519Y015077D01*
X020625Y015183D01*
X021325Y015183D01*
X021431Y015077D01*
X021431Y014377D01*
X021325Y014271D01*
X020625Y014271D01*
X020519Y014377D01*
X020519Y014467D01*
X018110Y014467D01*
X018110Y013832D01*
X018238Y013704D01*
X018307Y013536D01*
X018307Y013355D01*
X018238Y013187D01*
X018109Y013058D01*
X017950Y012992D01*
X018195Y012747D01*
X018235Y012652D01*
X018235Y010371D01*
X018345Y010371D01*
X018413Y010303D01*
X018480Y010371D01*
X018545Y010371D01*
X018472Y010443D01*
X018472Y010757D01*
X018545Y010829D01*
X018480Y010829D01*
X018375Y010935D01*
X018375Y011596D01*
X018387Y011609D01*
X018387Y011609D01*
X018375Y011655D01*
X018375Y011887D01*
X018802Y011887D01*
X018802Y011983D01*
X018802Y012371D01*
X018531Y012371D01*
X018485Y012358D01*
X018444Y012335D01*
X018411Y012301D01*
X018387Y012260D01*
X018375Y012214D01*
X018375Y011983D01*
X018802Y011983D01*
X018898Y011983D01*
X018898Y012371D01*
X019169Y012371D01*
X019215Y012358D01*
X019256Y012335D01*
X019289Y012301D01*
X019313Y012260D01*
X019325Y012214D01*
X019325Y011983D01*
X018898Y011983D01*
X018898Y011887D01*
X019325Y011887D01*
X019325Y011655D01*
X019313Y011609D01*
X019313Y011609D01*
X019325Y011596D01*
X019325Y010935D01*
X019220Y010829D01*
X019155Y010829D01*
X019228Y010757D01*
X019228Y010443D01*
X019155Y010371D01*
X019220Y010371D01*
X019287Y010303D01*
X019319Y010335D01*
X019360Y010358D01*
X019406Y010371D01*
X019677Y010371D01*
X019677Y009983D01*
X019773Y009983D01*
X019773Y010371D01*
X020044Y010371D01*
X020090Y010358D01*
X020131Y010335D01*
X020164Y010301D01*
X020188Y010260D01*
X020200Y010214D01*
X020200Y009983D01*
X019773Y009983D01*
X019773Y009887D01*
X020200Y009887D01*
X020200Y009655D01*
X020188Y009609D01*
X020188Y009609D01*
X020200Y009596D01*
X020200Y008935D01*
X020095Y008829D01*
X019355Y008829D01*
X019287Y008897D01*
X019220Y008829D01*
X018480Y008829D01*
X018413Y008897D01*
X018345Y008829D01*
X018235Y008829D01*
X018235Y008750D01*
X018353Y008632D01*
X018353Y008318D01*
X018132Y008097D01*
X017818Y008097D01*
X017597Y008318D01*
X017597Y008632D01*
X017715Y008750D01*
X017715Y008829D01*
X017605Y008829D01*
X017537Y008897D01*
X017470Y008829D01*
X017360Y008829D01*
X017360Y008750D01*
X017478Y008632D01*
X017478Y008318D01*
X017257Y008097D01*
X016943Y008097D01*
X016722Y008318D01*
X016722Y008632D01*
X016840Y008750D01*
X016840Y008829D01*
X016730Y008829D01*
X016625Y008935D01*
X016625Y008965D01*
X016423Y008965D01*
X016328Y009005D01*
X016255Y009078D01*
X016147Y009185D01*
X016147Y009025D01*
X016109Y008987D01*
X016109Y008496D01*
X016220Y008496D01*
X016325Y008390D01*
X016325Y007729D01*
X016313Y007716D01*
X016313Y007716D01*
X016325Y007670D01*
X016325Y007438D01*
X015898Y007438D01*
X015898Y007342D01*
X016325Y007342D01*
X016325Y007111D01*
X016325Y007110D01*
X020117Y007110D01*
X021465Y008458D01*
X021465Y008829D01*
X021355Y008829D01*
X021250Y008935D01*
X021250Y009596D01*
X021254Y009600D01*
X021250Y009604D01*
X021250Y009675D01*
X021200Y009675D01*
X021200Y009604D01*
X021188Y009591D01*
X021188Y009591D01*
X021200Y009545D01*
X021200Y009313D01*
X020773Y009313D01*
X020773Y009217D01*
X020773Y008829D01*
X021044Y008829D01*
X021090Y008842D01*
X021131Y008865D01*
X021164Y008899D01*
X021188Y008940D01*
X021200Y008986D01*
X021200Y009217D01*
X020773Y009217D01*
X020677Y009217D01*
X020677Y008829D01*
X020406Y008829D01*
X020360Y008842D01*
X020319Y008865D01*
X020286Y008899D01*
X020262Y008940D01*
X020250Y008986D01*
X020250Y009217D01*
X020677Y009217D01*
X020677Y009313D01*
X020250Y009313D01*
X020250Y009545D01*
X020262Y009591D01*
X020262Y009591D01*
X020250Y009604D01*
X020250Y010265D01*
X020355Y010371D01*
X021095Y010371D01*
X021200Y010265D01*
X021200Y010195D01*
X021250Y010195D01*
X021250Y010265D01*
X021355Y010371D01*
X021465Y010371D01*
X021465Y014277D01*
X021505Y014372D01*
X021578Y014445D01*
X022078Y014945D01*
X022173Y014985D01*
X023027Y014985D01*
X023122Y014945D01*
X023195Y014872D01*
X023195Y014872D01*
X023435Y014633D01*
X023474Y014538D01*
X023474Y014061D01*
X026005Y014061D01*
X026111Y013955D01*
X026111Y013097D01*
X026005Y012992D01*
X024773Y012992D01*
X024773Y012735D01*
X024829Y012735D01*
X024829Y012845D01*
X024935Y012950D01*
X025596Y012950D01*
X025609Y012938D01*
X025609Y012938D01*
X025655Y012950D01*
X025887Y012950D01*
X025887Y012523D01*
X025983Y012523D01*
X025983Y012950D01*
X026120Y012950D01*
X026120Y017975D01*
X025640Y017975D01*
X025640Y017801D01*
X025793Y017801D01*
X025793Y017266D01*
X025793Y016732D01*
X025954Y016732D01*
X026000Y016744D01*
X026041Y016768D01*
X026075Y016801D01*
X026098Y016843D01*
X026111Y016888D01*
X026111Y017266D01*
X025793Y017266D01*
X025793Y017266D01*
X025793Y016732D01*
X025631Y016732D01*
X025616Y016736D01*
X025612Y016732D01*
X025147Y016732D01*
X025143Y016736D01*
X025128Y016732D01*
X024946Y016732D01*
X024946Y017266D01*
X024946Y017266D01*
X024946Y016732D01*
X024765Y016732D01*
X024750Y016736D01*
X024745Y016732D01*
X022155Y016732D01*
X022050Y016837D01*
X022050Y017695D01*
X022155Y017801D01*
X024745Y017801D01*
X024750Y017796D01*
X024765Y017801D01*
X024946Y017801D01*
X024946Y017266D01*
X024946Y017266D01*
X024946Y017801D01*
X025120Y017801D01*
X025120Y017975D01*
X018975Y017975D01*
X018975Y028725D01*
X013475Y028725D01*
X013475Y034620D01*
X000799Y034620D01*
X000580Y034401D01*
X000580Y016514D01*
X000685Y016619D01*
X001621Y016619D01*
X001727Y016513D01*
X001727Y015892D01*
X001621Y015786D01*
X000685Y015786D01*
X000580Y015891D01*
X000580Y014309D01*
X000685Y014414D01*
X001621Y014414D01*
X001727Y014308D01*
X001727Y013687D01*
X001621Y013581D01*
X000685Y013581D01*
X000580Y013686D01*
X000580Y000799D01*
X000580Y000893D02*
X002669Y000893D01*
X002669Y001051D02*
X000580Y001051D01*
X000580Y001210D02*
X002669Y001210D01*
X002669Y001368D02*
X000580Y001368D01*
X000580Y001527D02*
X002669Y001527D01*
X002669Y001685D02*
X000580Y001685D01*
X000580Y001844D02*
X002669Y001844D01*
X002669Y002002D02*
X000580Y002002D01*
X000580Y002161D02*
X002669Y002161D01*
X002669Y002319D02*
X002564Y002319D01*
X002575Y002478D02*
X002669Y002478D01*
X002669Y002636D02*
X002148Y002636D01*
X002052Y002636D02*
X000580Y002636D01*
X000580Y002478D02*
X001625Y002478D01*
X001636Y002319D02*
X000580Y002319D01*
X000580Y002795D02*
X001625Y002795D01*
X001634Y002953D02*
X000580Y002953D01*
X000580Y003112D02*
X001625Y003112D01*
X001625Y003270D02*
X000580Y003270D01*
X000580Y003429D02*
X001625Y003429D01*
X001625Y003587D02*
X000580Y003587D01*
X000580Y003746D02*
X001730Y003746D01*
X001840Y003904D02*
X000580Y003904D01*
X000580Y004063D02*
X000709Y004063D01*
X000644Y004221D02*
X000580Y004221D01*
X000580Y004380D02*
X000644Y004380D01*
X000644Y004538D02*
X000580Y004538D01*
X000580Y004697D02*
X000644Y004697D01*
X000672Y004855D02*
X000580Y004855D01*
X000580Y005014D02*
X001625Y005014D01*
X001625Y005172D02*
X000580Y005172D01*
X000580Y005331D02*
X001625Y005331D01*
X001625Y005489D02*
X000580Y005489D01*
X000580Y005648D02*
X000644Y005648D01*
X000644Y005806D02*
X000580Y005806D01*
X000580Y005965D02*
X000644Y005965D01*
X000644Y006123D02*
X000580Y006123D01*
X000580Y006282D02*
X000644Y006282D01*
X000580Y006440D02*
X000840Y006440D01*
X000840Y006599D02*
X000580Y006599D01*
X000580Y006757D02*
X000840Y006757D01*
X000840Y006916D02*
X000580Y006916D01*
X000580Y007074D02*
X000840Y007074D01*
X000840Y007233D02*
X000580Y007233D01*
X000580Y007391D02*
X000898Y007391D01*
X000995Y007550D02*
X000580Y007550D01*
X000580Y007708D02*
X000995Y007708D01*
X001063Y007867D02*
X000580Y007867D01*
X000580Y008025D02*
X001221Y008025D01*
X001213Y008184D02*
X000580Y008184D01*
X000580Y008342D02*
X001054Y008342D01*
X000957Y008501D02*
X000580Y008501D01*
X000580Y008659D02*
X000798Y008659D01*
X000640Y008818D02*
X000580Y008818D01*
X000580Y008976D02*
X000590Y008976D01*
X000580Y009135D02*
X000590Y009135D01*
X000580Y009293D02*
X000590Y009293D01*
X000580Y009452D02*
X000590Y009452D01*
X000580Y009610D02*
X000590Y009610D01*
X000580Y009769D02*
X000590Y009769D01*
X000580Y009927D02*
X000590Y009927D01*
X000580Y010086D02*
X000590Y010086D01*
X000580Y010244D02*
X000590Y010244D01*
X000580Y010403D02*
X000590Y010403D01*
X000580Y010561D02*
X000590Y010561D01*
X000580Y010720D02*
X000618Y010720D01*
X000580Y010878D02*
X000682Y010878D01*
X000625Y011037D02*
X000580Y011037D01*
X000580Y011195D02*
X000625Y011195D01*
X000625Y011354D02*
X000580Y011354D01*
X000580Y011512D02*
X000625Y011512D01*
X000625Y011671D02*
X000580Y011671D01*
X000580Y011829D02*
X000625Y011829D01*
X000625Y011988D02*
X000580Y011988D01*
X000580Y012146D02*
X000625Y012146D01*
X000664Y012305D02*
X000580Y012305D01*
X000580Y012463D02*
X000840Y012463D01*
X000879Y012622D02*
X000580Y012622D01*
X000580Y012780D02*
X001037Y012780D01*
X001196Y012939D02*
X000580Y012939D01*
X000580Y013097D02*
X001354Y013097D01*
X001513Y013256D02*
X000580Y013256D01*
X000580Y013414D02*
X001597Y013414D01*
X001663Y013573D02*
X000580Y013573D01*
X000580Y014365D02*
X000636Y014365D01*
X000580Y014524D02*
X002154Y014524D01*
X002154Y014682D02*
X000580Y014682D01*
X000580Y014841D02*
X002154Y014841D01*
X002154Y014999D02*
X000580Y014999D01*
X000580Y015158D02*
X002154Y015158D01*
X002154Y015316D02*
X000580Y015316D01*
X000580Y015475D02*
X002154Y015475D01*
X002154Y015633D02*
X000580Y015633D01*
X000580Y015792D02*
X000680Y015792D01*
X000650Y016584D02*
X000580Y016584D01*
X000580Y016743D02*
X004250Y016743D01*
X004408Y016901D02*
X000580Y016901D01*
X000580Y017060D02*
X004567Y017060D01*
X004757Y017218D02*
X000580Y017218D01*
X000580Y017377D02*
X006097Y017377D01*
X006097Y017535D02*
X000580Y017535D01*
X000580Y017694D02*
X006159Y017694D01*
X006317Y017852D02*
X000580Y017852D01*
X000580Y018011D02*
X006671Y018011D01*
X006830Y018169D02*
X002064Y018169D01*
X002057Y018163D02*
X002162Y018268D01*
X002162Y018932D01*
X002057Y019037D01*
X001393Y019037D01*
X001288Y018932D01*
X001288Y018268D01*
X001393Y018163D01*
X002057Y018163D01*
X002162Y018328D02*
X006988Y018328D01*
X007191Y017852D02*
X007972Y017852D01*
X007972Y017882D02*
X007972Y017568D01*
X008193Y017347D01*
X008507Y017347D01*
X008728Y017568D01*
X008728Y017715D01*
X010875Y017715D01*
X010875Y017104D01*
X010879Y017100D01*
X010875Y017096D01*
X010875Y016985D01*
X008458Y016985D01*
X008247Y017195D01*
X008152Y017235D01*
X006770Y017235D01*
X006853Y017318D01*
X006853Y017514D01*
X007324Y017985D01*
X008075Y017985D01*
X007972Y017882D01*
X007972Y017694D02*
X007033Y017694D01*
X006874Y017535D02*
X008005Y017535D01*
X008164Y017377D02*
X006853Y017377D01*
X007347Y016584D02*
X004827Y016584D01*
X004668Y016426D02*
X007347Y016426D01*
X007398Y016267D02*
X004510Y016267D01*
X004351Y016109D02*
X006949Y016109D01*
X006847Y015950D02*
X005640Y015950D01*
X005746Y015792D02*
X006847Y015792D01*
X006877Y015633D02*
X005746Y015633D01*
X005746Y015475D02*
X006877Y015475D01*
X006877Y015316D02*
X005746Y015316D01*
X005746Y015158D02*
X005900Y015158D01*
X005875Y014999D02*
X005707Y014999D01*
X005707Y014841D02*
X006302Y014841D01*
X006398Y014841D02*
X006877Y014841D01*
X006825Y014858D02*
X006825Y015089D01*
X006813Y015135D01*
X006789Y015176D01*
X006756Y015210D01*
X006715Y015233D01*
X006669Y015246D01*
X006398Y015246D01*
X006398Y014858D01*
X006825Y014858D01*
X006825Y014999D02*
X006877Y014999D01*
X006877Y015158D02*
X006800Y015158D01*
X006825Y014682D02*
X006877Y014682D01*
X006877Y014524D02*
X006824Y014524D01*
X006813Y014484D02*
X006813Y014484D01*
X006825Y014365D02*
X006877Y014365D01*
X006877Y014207D02*
X006825Y014207D01*
X006825Y014048D02*
X006877Y014048D01*
X006877Y013890D02*
X006825Y013890D01*
X006877Y013731D02*
X006747Y013731D01*
X006822Y013573D02*
X006822Y013573D01*
X006822Y013414D02*
X006822Y013414D01*
X006822Y013256D02*
X006822Y013256D01*
X006822Y013097D02*
X006822Y013097D01*
X006822Y012939D02*
X006822Y012939D01*
X006822Y012780D02*
X006822Y012780D01*
X006767Y012622D02*
X007192Y012622D01*
X007178Y012463D02*
X006767Y012463D01*
X006757Y012305D02*
X007020Y012305D01*
X006972Y012146D02*
X006639Y012146D01*
X006480Y011988D02*
X006972Y011988D01*
X007086Y011829D02*
X006985Y011728D01*
X006818Y011728D01*
X006602Y011512D02*
X006360Y011512D01*
X006360Y011354D02*
X006597Y011354D01*
X006597Y011195D02*
X006360Y011195D01*
X006360Y011037D02*
X006754Y011037D01*
X006975Y011350D02*
X007257Y011632D01*
X008040Y011632D01*
X008040Y011318D02*
X008818Y011318D01*
X008975Y011475D01*
X009975Y011475D01*
X010230Y011195D02*
X010445Y011195D01*
X010459Y011354D02*
X010353Y011354D01*
X010353Y011512D02*
X010445Y011512D01*
X010378Y011947D02*
X010975Y011350D01*
X011100Y011350D01*
X011225Y011225D01*
X011704Y011671D02*
X012079Y011671D01*
X012079Y011829D02*
X011808Y011829D01*
X011946Y011988D02*
X012097Y011988D01*
X012079Y012146D02*
X012005Y012146D01*
X012005Y012305D02*
X012079Y012305D01*
X012079Y012463D02*
X011946Y012463D01*
X012079Y012622D02*
X011807Y012622D01*
X011709Y012780D02*
X011637Y012757D01*
X011563Y012745D01*
X011245Y012745D01*
X011245Y013205D01*
X011245Y013245D01*
X011205Y013245D01*
X011205Y013705D01*
X010887Y013705D01*
X010813Y013693D01*
X010741Y013670D01*
X010673Y013636D01*
X010612Y013591D01*
X010559Y013538D01*
X010514Y013477D01*
X010480Y013409D01*
X010457Y013337D01*
X010445Y013263D01*
X010445Y013245D01*
X011205Y013245D01*
X011205Y013205D01*
X011245Y013205D01*
X012005Y013205D01*
X012005Y013187D01*
X011993Y013113D01*
X011970Y013041D01*
X011936Y012973D01*
X011891Y012912D01*
X011838Y012859D01*
X011777Y012814D01*
X011709Y012780D01*
X012079Y012780D01*
X012173Y012939D02*
X011910Y012939D01*
X011988Y013097D02*
X012235Y013097D01*
X012077Y013256D02*
X012005Y013256D01*
X012337Y013731D02*
X013965Y013731D01*
X013965Y013573D02*
X013412Y013573D01*
X013382Y013603D02*
X013068Y013603D01*
X012847Y013382D01*
X012847Y013183D01*
X012820Y013247D01*
X011954Y014114D01*
X012178Y014338D01*
X012180Y014328D01*
X012204Y014287D01*
X012238Y014253D01*
X012279Y014230D01*
X012324Y014217D01*
X012446Y014217D01*
X012446Y014466D01*
X012446Y014466D01*
X012446Y014217D01*
X012569Y014217D01*
X012614Y014230D01*
X012655Y014253D01*
X012689Y014287D01*
X012689Y014287D01*
X012714Y014263D01*
X012802Y014226D01*
X013072Y014226D01*
X013081Y014217D01*
X013427Y014217D01*
X013532Y014323D01*
X013532Y014610D01*
X013528Y014614D01*
X013532Y014629D01*
X013532Y014722D01*
X013254Y014722D01*
X013254Y014722D01*
X013532Y014722D01*
X013532Y014815D01*
X013528Y014830D01*
X013532Y014834D01*
X013532Y015121D01*
X013528Y015126D01*
X013532Y015141D01*
X013532Y015234D01*
X013532Y015326D01*
X013520Y015372D01*
X013496Y015413D01*
X013462Y015447D01*
X013431Y015465D01*
X013867Y015465D01*
X013965Y015367D01*
X013965Y012208D01*
X013621Y011863D01*
X013621Y011970D01*
X013553Y012038D01*
X013621Y012105D01*
X013621Y012845D01*
X013515Y012950D01*
X013485Y012950D01*
X013603Y013068D01*
X013603Y013382D01*
X013382Y013603D01*
X013571Y013414D02*
X013965Y013414D01*
X013965Y013256D02*
X013603Y013256D01*
X013603Y013097D02*
X013965Y013097D01*
X013965Y012939D02*
X013527Y012939D01*
X013621Y012780D02*
X013965Y012780D01*
X013965Y012622D02*
X013621Y012622D01*
X013621Y012463D02*
X013965Y012463D01*
X013965Y012305D02*
X013621Y012305D01*
X013621Y012146D02*
X013903Y012146D01*
X013745Y011988D02*
X013603Y011988D01*
X013725Y011600D02*
X014225Y012100D01*
X014225Y015475D01*
X013975Y015725D01*
X012475Y015725D01*
X011975Y015725D01*
X011691Y015475D02*
X010593Y015475D01*
X010752Y015316D02*
X011531Y015316D01*
X011373Y015158D02*
X010910Y015158D01*
X011069Y014999D02*
X011347Y014999D01*
X011347Y014841D02*
X011227Y014841D01*
X011386Y014682D02*
X011483Y014682D01*
X011544Y014524D02*
X011684Y014524D01*
X011600Y014100D02*
X010350Y015350D01*
X007850Y015350D01*
X008102Y015633D02*
X011597Y015633D01*
X011597Y015792D02*
X007603Y015792D01*
X007603Y015950D02*
X011665Y015950D01*
X011825Y016485D02*
X011825Y017096D01*
X011821Y017100D01*
X011825Y017104D01*
X011825Y017214D01*
X013211Y017214D01*
X013211Y017203D01*
X013317Y017097D01*
X013346Y017097D01*
X013322Y017091D01*
X013281Y017067D01*
X013247Y017033D01*
X013224Y016992D01*
X013211Y016947D01*
X013211Y016744D01*
X013648Y016744D01*
X013648Y016708D01*
X013211Y016708D01*
X013211Y016505D01*
X013217Y016485D01*
X011825Y016485D01*
X011825Y016584D02*
X013211Y016584D01*
X013211Y016901D02*
X011825Y016901D01*
X011825Y016743D02*
X013648Y016743D01*
X013685Y016743D02*
X014164Y016743D01*
X014183Y016723D02*
X014542Y016723D01*
X016759Y014507D01*
X016854Y014467D01*
X017590Y014467D01*
X017590Y013832D01*
X017462Y013704D01*
X017397Y013546D01*
X014497Y016445D01*
X014402Y016485D01*
X014117Y016485D01*
X014123Y016505D01*
X014123Y016708D01*
X013685Y016708D01*
X013685Y016744D01*
X014123Y016744D01*
X014123Y016784D01*
X014183Y016723D01*
X014123Y016584D02*
X014681Y016584D01*
X014840Y016426D02*
X014517Y016426D01*
X014676Y016267D02*
X014998Y016267D01*
X015157Y016109D02*
X014834Y016109D01*
X014993Y015950D02*
X015315Y015950D01*
X015474Y015792D02*
X015151Y015792D01*
X015310Y015633D02*
X015632Y015633D01*
X015791Y015475D02*
X015468Y015475D01*
X015627Y015316D02*
X015949Y015316D01*
X016108Y015158D02*
X015785Y015158D01*
X015944Y014999D02*
X016266Y014999D01*
X016425Y014841D02*
X016102Y014841D01*
X016261Y014682D02*
X016583Y014682D01*
X016742Y014524D02*
X016419Y014524D01*
X016578Y014365D02*
X017590Y014365D01*
X017590Y014207D02*
X016736Y014207D01*
X016895Y014048D02*
X017590Y014048D01*
X017590Y013890D02*
X017053Y013890D01*
X017212Y013731D02*
X017489Y013731D01*
X017408Y013573D02*
X017370Y013573D01*
X017850Y013445D02*
X017850Y014727D01*
X016906Y014727D01*
X014533Y017100D01*
X014533Y017042D01*
X014922Y017535D02*
X014123Y017535D01*
X014123Y017694D02*
X014764Y017694D01*
X014850Y017975D02*
X017100Y015725D01*
X016816Y015475D02*
X016526Y015475D01*
X016368Y015633D02*
X016722Y015633D01*
X016666Y015792D02*
X016209Y015792D01*
X016051Y015950D02*
X016507Y015950D01*
X016349Y016109D02*
X015892Y016109D01*
X015734Y016267D02*
X016190Y016267D01*
X016032Y016426D02*
X015575Y016426D01*
X015417Y016584D02*
X015873Y016584D01*
X015715Y016743D02*
X015258Y016743D01*
X015100Y016901D02*
X015556Y016901D01*
X015398Y017060D02*
X014989Y017060D01*
X014989Y017218D02*
X015239Y017218D01*
X015081Y017377D02*
X014984Y017377D01*
X014850Y017975D02*
X008600Y017975D01*
X008350Y017725D01*
X008536Y017377D02*
X010875Y017377D01*
X010875Y017535D02*
X008695Y017535D01*
X008728Y017694D02*
X010875Y017694D01*
X010875Y017218D02*
X008193Y017218D01*
X008383Y017060D02*
X010875Y017060D01*
X011310Y016725D02*
X011350Y016765D01*
X011310Y016725D02*
X008350Y016725D01*
X008100Y016975D01*
X004850Y016975D01*
X003850Y015975D01*
X003850Y013350D01*
X004623Y012577D01*
X004660Y012577D01*
X004629Y012939D02*
X004777Y012939D01*
X004610Y013097D02*
X004471Y013097D01*
X004452Y013256D02*
X004312Y013256D01*
X004293Y013414D02*
X004154Y013414D01*
X004110Y013573D02*
X004215Y013573D01*
X004185Y013731D02*
X004110Y013731D01*
X004110Y013890D02*
X004185Y013890D01*
X004185Y014048D02*
X004110Y014048D01*
X004110Y014207D02*
X004185Y014207D01*
X004185Y014365D02*
X004110Y014365D01*
X004110Y014524D02*
X004199Y014524D01*
X004243Y014682D02*
X004110Y014682D01*
X004110Y014841D02*
X004243Y014841D01*
X004243Y014999D02*
X004110Y014999D01*
X004110Y015158D02*
X004204Y015158D01*
X004204Y015316D02*
X004110Y015316D01*
X004110Y015475D02*
X004204Y015475D01*
X004204Y015633D02*
X004110Y015633D01*
X004110Y015792D02*
X004204Y015792D01*
X004193Y015950D02*
X004310Y015950D01*
X003933Y016426D02*
X001727Y016426D01*
X001727Y016267D02*
X003774Y016267D01*
X003624Y016109D02*
X001727Y016109D01*
X001727Y015950D02*
X002221Y015950D01*
X002154Y015792D02*
X001627Y015792D01*
X001656Y016584D02*
X004091Y016584D01*
X003590Y015950D02*
X002979Y015950D01*
X003046Y015792D02*
X003590Y015792D01*
X003350Y015350D02*
X003297Y015297D01*
X002600Y015297D01*
X002600Y014903D02*
X003172Y014903D01*
X003350Y014725D01*
X003350Y014100D02*
X003100Y014100D01*
X002725Y014475D01*
X002600Y014475D01*
X002600Y014509D01*
X002626Y014207D02*
X001727Y014207D01*
X001727Y014048D02*
X002784Y014048D01*
X002943Y013890D02*
X001727Y013890D01*
X001727Y013731D02*
X003184Y013731D01*
X003516Y013731D02*
X003590Y013731D01*
X003590Y013573D02*
X002287Y013573D01*
X002353Y013414D02*
X003590Y013414D01*
X003608Y013256D02*
X002353Y013256D01*
X002257Y013097D02*
X003735Y013097D01*
X003894Y012939D02*
X001931Y012939D01*
X001773Y012780D02*
X004052Y012780D01*
X004211Y012622D02*
X001614Y012622D01*
X001678Y012463D02*
X001456Y012463D01*
X001536Y012305D02*
X001597Y012305D01*
X001597Y012146D02*
X001575Y012146D01*
X001575Y011988D02*
X001678Y011988D01*
X001575Y011829D02*
X002753Y011829D01*
X002912Y011671D02*
X001575Y011671D01*
X001575Y011512D02*
X003070Y011512D01*
X003229Y011354D02*
X001575Y011354D01*
X001575Y011195D02*
X003387Y011195D01*
X003127Y011037D02*
X001575Y011037D01*
X001518Y010878D02*
X002972Y010878D01*
X002972Y010720D02*
X001327Y010720D01*
X001179Y010561D02*
X002979Y010561D01*
X003350Y010725D02*
X003387Y010688D01*
X004660Y010688D01*
X004660Y011003D02*
X003947Y011003D01*
X002725Y012225D01*
X001975Y012225D01*
X002830Y012463D02*
X004230Y012463D01*
X004230Y012305D02*
X003013Y012305D01*
X003172Y012146D02*
X004230Y012146D01*
X004230Y011988D02*
X004122Y011988D01*
X004228Y011829D02*
X004230Y011829D01*
X003850Y011725D02*
X004257Y011318D01*
X004660Y011318D01*
X004660Y011632D02*
X005193Y011632D01*
X005350Y011475D01*
X005090Y011200D02*
X005193Y011097D01*
X005507Y011097D01*
X005728Y011318D01*
X005728Y011632D01*
X005572Y011787D01*
X005728Y011943D01*
X005728Y012257D01*
X005507Y012478D01*
X005193Y012478D01*
X005090Y012375D01*
X005090Y012735D01*
X005618Y012735D01*
X005618Y012646D01*
X005657Y012550D01*
X005755Y012453D01*
X005828Y012380D01*
X005923Y012340D01*
X006097Y012340D01*
X005953Y012195D01*
X005880Y012122D01*
X005840Y012027D01*
X005840Y010958D01*
X005342Y010460D01*
X005303Y010364D01*
X005303Y010261D01*
X005303Y010215D01*
X005090Y010215D01*
X005090Y011200D01*
X005090Y011195D02*
X005095Y011195D01*
X005090Y011037D02*
X005840Y011037D01*
X005840Y011195D02*
X005605Y011195D01*
X005728Y011354D02*
X005840Y011354D01*
X005840Y011512D02*
X005728Y011512D01*
X005689Y011671D02*
X005840Y011671D01*
X005840Y011829D02*
X005614Y011829D01*
X005728Y011988D02*
X005840Y011988D01*
X005903Y012146D02*
X005728Y012146D01*
X005680Y012305D02*
X006062Y012305D01*
X005975Y012600D02*
X005878Y012697D01*
X005878Y013165D01*
X005563Y013165D02*
X005563Y013985D01*
X005447Y014100D01*
X005447Y015337D01*
X005310Y015475D01*
X004975Y015946D02*
X004971Y015950D01*
X004975Y015946D02*
X004979Y015950D01*
X004640Y015475D02*
X004503Y015337D01*
X004503Y014100D01*
X004475Y014072D01*
X004475Y013600D01*
X004910Y013165D01*
X005248Y013165D01*
X004958Y013485D02*
X004857Y013585D01*
X004975Y013585D01*
X005053Y013585D01*
X004958Y013490D01*
X004958Y013485D01*
X004975Y013585D02*
X004975Y014100D01*
X004975Y014100D01*
X004975Y014615D01*
X004814Y014615D01*
X004768Y014602D01*
X004763Y014599D01*
X004763Y015000D01*
X004971Y015000D01*
X004975Y015004D01*
X004979Y015000D01*
X005187Y015000D01*
X005187Y014599D01*
X005182Y014602D01*
X005136Y014615D01*
X004975Y014615D01*
X004975Y014100D01*
X004975Y013585D01*
X005041Y013573D02*
X004870Y013573D01*
X004975Y013731D02*
X004975Y013731D01*
X004975Y013890D02*
X004975Y013890D01*
X004975Y014048D02*
X004975Y014048D01*
X004975Y014100D02*
X004975Y014100D01*
X004975Y014207D02*
X004975Y014207D01*
X004975Y014365D02*
X004975Y014365D01*
X004975Y014524D02*
X004975Y014524D01*
X004763Y014682D02*
X005187Y014682D01*
X005187Y014841D02*
X004763Y014841D01*
X004763Y014999D02*
X005187Y014999D01*
X005707Y014682D02*
X005875Y014682D01*
X005876Y014524D02*
X005751Y014524D01*
X005765Y014365D02*
X005875Y014365D01*
X005875Y014207D02*
X005765Y014207D01*
X005818Y014048D02*
X005875Y014048D01*
X005875Y013890D02*
X005823Y013890D01*
X005823Y013731D02*
X005954Y013731D01*
X006193Y013573D02*
X006193Y013573D01*
X006193Y013414D02*
X006193Y013414D01*
X006193Y013256D02*
X006193Y013256D01*
X006507Y013165D02*
X006507Y012600D01*
X005975Y012600D01*
X005744Y012463D02*
X005522Y012463D01*
X005628Y012622D02*
X005090Y012622D01*
X005090Y012463D02*
X005178Y012463D01*
X005350Y012100D02*
X005197Y011947D01*
X004660Y011947D01*
X005090Y010878D02*
X005760Y010878D01*
X005602Y010720D02*
X005090Y010720D01*
X005090Y010561D02*
X005443Y010561D01*
X005318Y010403D02*
X005090Y010403D01*
X005090Y010244D02*
X005303Y010244D01*
X005563Y010313D02*
X005563Y009785D01*
X005563Y009313D01*
X004975Y008725D01*
X004975Y008600D01*
X003475Y008600D01*
X002475Y009600D01*
X002955Y009610D02*
X002972Y009610D01*
X002972Y009568D02*
X003193Y009347D01*
X003507Y009347D01*
X003685Y009525D01*
X004958Y009525D01*
X004958Y009460D01*
X005063Y009355D01*
X005237Y009355D01*
X004828Y008945D01*
X004755Y008872D01*
X004749Y008860D01*
X003583Y008860D01*
X002955Y009488D01*
X002955Y009799D01*
X002789Y009965D01*
X003055Y009965D01*
X002972Y009882D01*
X002972Y009568D01*
X002991Y009452D02*
X003089Y009452D01*
X003150Y009293D02*
X005175Y009293D01*
X005017Y009135D02*
X003308Y009135D01*
X003467Y008976D02*
X004858Y008976D01*
X004975Y008600D02*
X004975Y006725D01*
X005455Y006757D02*
X005905Y006757D01*
X005905Y006795D02*
X005905Y006655D01*
X006045Y006655D01*
X006045Y006795D01*
X005905Y006795D01*
X005905Y007655D01*
X005651Y007655D01*
X005606Y007643D01*
X005564Y007619D01*
X005531Y007586D01*
X005507Y007544D01*
X005495Y007499D01*
X005495Y006795D01*
X005905Y006795D01*
X005905Y006916D02*
X006045Y006916D01*
X006045Y006795D02*
X006045Y007655D01*
X006299Y007655D01*
X006344Y007643D01*
X006386Y007619D01*
X006419Y007586D01*
X006443Y007544D01*
X006455Y007499D01*
X006455Y006795D01*
X006045Y006795D01*
X006045Y006757D02*
X011075Y006757D01*
X010917Y006916D02*
X006455Y006916D01*
X006455Y007074D02*
X010758Y007074D01*
X010600Y007233D02*
X009937Y007233D01*
X009955Y007250D02*
X009955Y007700D01*
X009850Y007805D01*
X009100Y007805D01*
X009030Y007735D01*
X008750Y007735D01*
X008632Y007853D01*
X008318Y007853D01*
X008200Y007735D01*
X007920Y007735D01*
X007850Y007805D01*
X007100Y007805D01*
X006995Y007700D01*
X006995Y007250D01*
X007100Y007145D01*
X007850Y007145D01*
X007920Y007215D01*
X008200Y007215D01*
X008318Y007097D01*
X008632Y007097D01*
X008750Y007215D01*
X009030Y007215D01*
X009100Y007145D01*
X009850Y007145D01*
X009955Y007250D01*
X009955Y007391D02*
X010441Y007391D01*
X010283Y007550D02*
X009955Y007550D01*
X009947Y007708D02*
X010124Y007708D01*
X009966Y007867D02*
X005235Y007867D01*
X005235Y008025D02*
X005454Y008025D01*
X005454Y008184D02*
X005235Y008184D01*
X005235Y008342D02*
X005454Y008342D01*
X005454Y008501D02*
X005235Y008501D01*
X005277Y008659D02*
X005454Y008659D01*
X005435Y008818D02*
X005552Y008818D01*
X005594Y008976D02*
X005933Y008976D01*
X005933Y009135D02*
X005752Y009135D01*
X005823Y009293D02*
X005933Y009293D01*
X006193Y008818D02*
X005975Y008600D01*
X005975Y008435D01*
X005890Y008350D01*
X006193Y008818D02*
X006193Y009785D01*
X005862Y010244D02*
X007610Y010244D01*
X007610Y010403D02*
X006020Y010403D01*
X006179Y010561D02*
X007610Y010561D01*
X007610Y010720D02*
X006327Y010720D01*
X006360Y010878D02*
X007610Y010878D01*
X007610Y011037D02*
X007196Y011037D01*
X007353Y011195D02*
X007610Y011195D01*
X007610Y011354D02*
X007353Y011354D01*
X007350Y012100D02*
X007452Y012202D01*
X007452Y013165D01*
X007742Y013097D02*
X007780Y013097D01*
X007780Y012939D02*
X007742Y012939D01*
X007742Y013256D02*
X007780Y013256D01*
X007780Y013414D02*
X007742Y013414D01*
X007780Y013573D02*
X007659Y013573D01*
X007780Y013731D02*
X007397Y013731D01*
X007397Y013890D02*
X007780Y013890D01*
X007780Y014048D02*
X007397Y014048D01*
X007397Y014207D02*
X007780Y014207D01*
X007872Y014365D02*
X007397Y014365D01*
X007397Y014524D02*
X008031Y014524D01*
X008097Y014682D02*
X007397Y014682D01*
X007397Y014841D02*
X008181Y014841D01*
X008034Y014999D02*
X010333Y014999D01*
X010492Y014841D02*
X008769Y014841D01*
X008853Y014682D02*
X010650Y014682D01*
X010809Y014524D02*
X008853Y014524D01*
X008775Y014365D02*
X010967Y014365D01*
X011126Y014207D02*
X008449Y014207D01*
X008300Y014048D02*
X011284Y014048D01*
X011443Y013890D02*
X008300Y013890D01*
X008300Y013731D02*
X011601Y013731D01*
X011600Y014100D02*
X012600Y013100D01*
X012600Y012560D01*
X012515Y012475D02*
X012515Y011600D01*
X012515Y010725D01*
X012515Y009435D01*
X013975Y007975D01*
X014243Y007708D02*
X014500Y007708D01*
X014500Y007721D02*
X014500Y007650D01*
X014185Y007650D01*
X014353Y007818D01*
X014353Y008132D01*
X014132Y008353D01*
X013965Y008353D01*
X012775Y009542D01*
X012775Y010250D01*
X012846Y010250D01*
X012859Y010262D01*
X012905Y010250D01*
X013137Y010250D01*
X013137Y010677D01*
X013233Y010677D01*
X013233Y010773D01*
X013621Y010773D01*
X013621Y011044D01*
X013608Y011090D01*
X013585Y011131D01*
X013553Y011163D01*
X013621Y011230D01*
X013621Y011340D01*
X013777Y011340D01*
X013872Y011380D01*
X014372Y011880D01*
X014445Y011953D01*
X014485Y012048D01*
X014485Y015527D01*
X014445Y015622D01*
X014195Y015872D01*
X014122Y015945D01*
X014075Y015965D01*
X014242Y015965D01*
X017104Y013103D01*
X016943Y013103D01*
X016722Y012882D01*
X016722Y012568D01*
X016840Y012450D01*
X016840Y012371D01*
X016730Y012371D01*
X016625Y012265D01*
X016625Y011604D01*
X016629Y011600D01*
X016625Y011596D01*
X016625Y010935D01*
X016730Y010829D01*
X016840Y010829D01*
X016840Y010371D01*
X016730Y010371D01*
X016625Y010265D01*
X016625Y009604D01*
X016629Y009600D01*
X016625Y009596D01*
X016625Y009485D01*
X016610Y009485D01*
X016610Y010277D01*
X016570Y010372D01*
X016497Y010445D01*
X016358Y010585D01*
X016263Y010624D01*
X016147Y010624D01*
X016147Y010675D01*
X016042Y010780D01*
X015656Y010780D01*
X015551Y010675D01*
X015551Y010053D01*
X015656Y009948D01*
X016042Y009948D01*
X016090Y009996D01*
X016090Y009704D01*
X016042Y009752D01*
X015656Y009752D01*
X015648Y009744D01*
X015617Y009752D01*
X015475Y009752D01*
X015333Y009752D01*
X015302Y009744D01*
X015294Y009752D01*
X014908Y009752D01*
X014803Y009647D01*
X014803Y009596D01*
X014639Y009596D01*
X014507Y009728D01*
X014193Y009728D01*
X013972Y009507D01*
X013972Y009193D01*
X014193Y008972D01*
X014507Y008972D01*
X014611Y009076D01*
X014803Y009076D01*
X014803Y009025D01*
X014908Y008920D01*
X015294Y008920D01*
X015302Y008928D01*
X015333Y008920D01*
X015475Y008920D01*
X015589Y008920D01*
X015589Y008496D01*
X015480Y008496D01*
X015413Y008428D01*
X015345Y008496D01*
X014605Y008496D01*
X014500Y008390D01*
X014500Y007729D01*
X014504Y007725D01*
X014500Y007721D01*
X014500Y007867D02*
X014353Y007867D01*
X014353Y008025D02*
X014500Y008025D01*
X014500Y008184D02*
X014301Y008184D01*
X014143Y008342D02*
X014500Y008342D01*
X014511Y008976D02*
X014852Y008976D01*
X015101Y009336D02*
X014364Y009336D01*
X014350Y009350D01*
X014075Y009610D02*
X012775Y009610D01*
X012775Y009769D02*
X016090Y009769D01*
X016090Y009927D02*
X012775Y009927D01*
X012775Y010086D02*
X014803Y010086D01*
X014803Y010053D02*
X014908Y009948D01*
X015294Y009948D01*
X015399Y010053D01*
X015399Y010675D01*
X015361Y010713D01*
X015361Y010972D01*
X015507Y010972D01*
X015728Y011193D01*
X015728Y011507D01*
X015507Y011728D01*
X015193Y011728D01*
X014972Y011507D01*
X014972Y011340D01*
X014881Y011248D01*
X014841Y011153D01*
X014841Y010713D01*
X014803Y010675D01*
X014803Y010053D01*
X014803Y010244D02*
X012775Y010244D01*
X012859Y010262D02*
X012859Y010262D01*
X013137Y010403D02*
X013233Y010403D01*
X013233Y010250D02*
X013464Y010250D01*
X013510Y010262D01*
X013551Y010286D01*
X013585Y010319D01*
X013608Y010360D01*
X013621Y010406D01*
X013621Y010677D01*
X013233Y010677D01*
X013233Y010250D01*
X013233Y010561D02*
X013137Y010561D01*
X013233Y010720D02*
X014841Y010720D01*
X014841Y010878D02*
X013621Y010878D01*
X013621Y011037D02*
X014841Y011037D01*
X014859Y011195D02*
X013585Y011195D01*
X013809Y011354D02*
X014972Y011354D01*
X014977Y011512D02*
X014005Y011512D01*
X014163Y011671D02*
X015136Y011671D01*
X015350Y011350D02*
X015101Y011101D01*
X015101Y010364D01*
X014803Y010403D02*
X013620Y010403D01*
X013621Y010561D02*
X014803Y010561D01*
X015361Y010720D02*
X015595Y010720D01*
X015551Y010561D02*
X015399Y010561D01*
X015399Y010403D02*
X015551Y010403D01*
X015551Y010244D02*
X015399Y010244D01*
X015399Y010086D02*
X015551Y010086D01*
X015475Y009752D02*
X015475Y009336D01*
X015475Y009752D01*
X015475Y009610D02*
X015475Y009610D01*
X015475Y009452D02*
X015475Y009452D01*
X015475Y009336D02*
X015475Y009336D01*
X015475Y008920D01*
X015475Y009336D01*
X015475Y009336D01*
X015475Y009293D02*
X015475Y009293D01*
X015475Y009135D02*
X015475Y009135D01*
X015475Y008976D02*
X015475Y008976D01*
X015589Y008818D02*
X013500Y008818D01*
X013342Y008976D02*
X014189Y008976D01*
X014031Y009135D02*
X013183Y009135D01*
X013025Y009293D02*
X013972Y009293D01*
X013972Y009452D02*
X012866Y009452D01*
X012448Y009135D02*
X012058Y009135D01*
X011900Y009293D02*
X012293Y009293D01*
X012255Y009452D02*
X011741Y009452D01*
X011728Y009610D02*
X012255Y009610D01*
X012255Y009769D02*
X011591Y009769D01*
X011350Y009475D02*
X013435Y007390D01*
X014975Y007390D01*
X014975Y008060D02*
X015850Y008060D01*
X015849Y008061D01*
X015849Y009336D01*
X016147Y009135D02*
X016198Y009135D01*
X016109Y008976D02*
X016397Y008976D01*
X016475Y009225D02*
X016350Y009350D01*
X016350Y010225D01*
X016211Y010364D01*
X015849Y010364D01*
X016103Y010720D02*
X016840Y010720D01*
X016840Y010561D02*
X016382Y010561D01*
X016540Y010403D02*
X016840Y010403D01*
X016625Y010244D02*
X016610Y010244D01*
X016610Y010086D02*
X016625Y010086D01*
X016610Y009927D02*
X016625Y009927D01*
X016610Y009769D02*
X016625Y009769D01*
X016610Y009610D02*
X016625Y009610D01*
X016475Y009225D02*
X017060Y009225D01*
X017100Y009265D01*
X017100Y008475D01*
X017478Y008501D02*
X017597Y008501D01*
X017597Y008342D02*
X017478Y008342D01*
X017343Y008184D02*
X017732Y008184D01*
X017975Y008475D02*
X017975Y009265D01*
X018850Y009265D01*
X019725Y009265D01*
X020200Y009293D02*
X020677Y009293D01*
X020773Y009293D02*
X021250Y009293D01*
X021250Y009135D02*
X021200Y009135D01*
X021198Y008976D02*
X021250Y008976D01*
X021465Y008818D02*
X018235Y008818D01*
X018326Y008659D02*
X021465Y008659D01*
X021465Y008501D02*
X018353Y008501D01*
X018353Y008342D02*
X021349Y008342D01*
X021191Y008184D02*
X018218Y008184D01*
X017624Y008659D02*
X017451Y008659D01*
X017360Y008818D02*
X017715Y008818D01*
X016840Y008818D02*
X016109Y008818D01*
X016109Y008659D02*
X016749Y008659D01*
X016722Y008501D02*
X016109Y008501D01*
X016325Y008342D02*
X016722Y008342D01*
X016857Y008184D02*
X016325Y008184D01*
X016325Y008025D02*
X021032Y008025D01*
X020874Y007867D02*
X016325Y007867D01*
X016315Y007708D02*
X020715Y007708D01*
X020557Y007550D02*
X016325Y007550D01*
X016325Y007233D02*
X020240Y007233D01*
X020398Y007391D02*
X015898Y007391D01*
X015589Y008501D02*
X013817Y008501D01*
X013659Y008659D02*
X015589Y008659D01*
X014803Y009610D02*
X014625Y009610D01*
X015361Y010878D02*
X016682Y010878D01*
X016625Y011037D02*
X015571Y011037D01*
X015728Y011195D02*
X016625Y011195D01*
X016625Y011354D02*
X015728Y011354D01*
X015723Y011512D02*
X016625Y011512D01*
X016625Y011671D02*
X015564Y011671D01*
X016625Y011829D02*
X014322Y011829D01*
X014460Y011988D02*
X016625Y011988D01*
X016625Y012146D02*
X014485Y012146D01*
X014485Y012305D02*
X016664Y012305D01*
X016827Y012463D02*
X014485Y012463D01*
X014485Y012622D02*
X016722Y012622D01*
X016722Y012780D02*
X014485Y012780D01*
X014485Y012939D02*
X016779Y012939D01*
X016937Y013097D02*
X014485Y013097D01*
X014485Y013256D02*
X016952Y013256D01*
X016793Y013414D02*
X014485Y013414D01*
X014485Y013573D02*
X016635Y013573D01*
X016476Y013731D02*
X014485Y013731D01*
X014485Y013890D02*
X016318Y013890D01*
X016159Y014048D02*
X014485Y014048D01*
X014485Y014207D02*
X016001Y014207D01*
X015842Y014365D02*
X014485Y014365D01*
X014485Y014524D02*
X015684Y014524D01*
X015525Y014682D02*
X014485Y014682D01*
X014485Y014841D02*
X015367Y014841D01*
X015208Y014999D02*
X014485Y014999D01*
X014485Y015158D02*
X015050Y015158D01*
X014891Y015316D02*
X014485Y015316D01*
X014485Y015475D02*
X014733Y015475D01*
X014574Y015633D02*
X014435Y015633D01*
X014416Y015792D02*
X014276Y015792D01*
X014257Y015950D02*
X014111Y015950D01*
X014350Y016225D02*
X017975Y012600D01*
X017975Y009935D01*
X018235Y010403D02*
X018513Y010403D01*
X018472Y010561D02*
X018235Y010561D01*
X018235Y010720D02*
X018472Y010720D01*
X018432Y010878D02*
X018235Y010878D01*
X018235Y011037D02*
X018375Y011037D01*
X018375Y011195D02*
X018235Y011195D01*
X018235Y011354D02*
X018375Y011354D01*
X018375Y011512D02*
X018235Y011512D01*
X018235Y011671D02*
X018375Y011671D01*
X018375Y011829D02*
X018235Y011829D01*
X018235Y011988D02*
X018375Y011988D01*
X018375Y012146D02*
X018235Y012146D01*
X018235Y012305D02*
X018414Y012305D01*
X018235Y012463D02*
X021465Y012463D01*
X021465Y012305D02*
X019286Y012305D01*
X019325Y012146D02*
X021465Y012146D01*
X021465Y011988D02*
X019325Y011988D01*
X019325Y011829D02*
X021465Y011829D01*
X021465Y011671D02*
X019325Y011671D01*
X019325Y011512D02*
X021465Y011512D01*
X021465Y011354D02*
X019325Y011354D01*
X019325Y011195D02*
X021465Y011195D01*
X021465Y011037D02*
X019325Y011037D01*
X019268Y010878D02*
X021465Y010878D01*
X021465Y010720D02*
X019228Y010720D01*
X019228Y010561D02*
X021465Y010561D01*
X021465Y010403D02*
X019187Y010403D01*
X019677Y010244D02*
X019773Y010244D01*
X019773Y010086D02*
X019677Y010086D01*
X019773Y009927D02*
X020250Y009927D01*
X020250Y009769D02*
X020200Y009769D01*
X020188Y009610D02*
X020250Y009610D01*
X020250Y009452D02*
X020200Y009452D01*
X020200Y009135D02*
X020250Y009135D01*
X020252Y008976D02*
X020200Y008976D01*
X020677Y008976D02*
X020773Y008976D01*
X020773Y009135D02*
X020677Y009135D01*
X021200Y009452D02*
X021250Y009452D01*
X021250Y009610D02*
X021200Y009610D01*
X020725Y009935D02*
X021725Y009935D01*
X021725Y014225D01*
X022225Y014725D01*
X022975Y014725D01*
X023214Y014486D01*
X023214Y013526D01*
X022954Y014061D02*
X022549Y014061D01*
X022545Y014056D01*
X022529Y014061D01*
X022368Y014061D01*
X022368Y013526D01*
X022368Y012992D01*
X022521Y012992D01*
X022521Y012911D01*
X022454Y012845D01*
X022454Y012105D01*
X022513Y012047D01*
X022474Y012008D01*
X022474Y011308D01*
X022580Y011202D01*
X022909Y011202D01*
X022848Y011142D01*
X022848Y010442D01*
X022919Y010371D01*
X022855Y010371D01*
X022750Y010265D01*
X022750Y010195D01*
X022633Y010195D01*
X022537Y010155D01*
X022328Y009945D01*
X022255Y009872D01*
X022215Y009777D01*
X022215Y008712D01*
X021985Y008495D01*
X021985Y008829D01*
X022095Y008829D01*
X022200Y008935D01*
X022200Y009596D01*
X022196Y009600D01*
X022200Y009604D01*
X022200Y010265D01*
X022095Y010371D01*
X021985Y010371D01*
X021985Y014117D01*
X022333Y014465D01*
X022867Y014465D01*
X022954Y014378D01*
X022954Y014061D01*
X022954Y014207D02*
X022074Y014207D01*
X022160Y014048D02*
X022119Y014025D01*
X022086Y013991D01*
X022062Y013950D01*
X022050Y013904D01*
X022050Y013526D01*
X022050Y013148D01*
X022062Y013102D01*
X022086Y013061D01*
X022119Y013028D01*
X022160Y013004D01*
X022206Y012992D01*
X022368Y012992D01*
X022368Y013526D01*
X022368Y013526D01*
X022368Y013526D01*
X022050Y013526D01*
X022368Y013526D01*
X022368Y013526D01*
X022368Y014061D01*
X022206Y014061D01*
X022160Y014048D01*
X021985Y014048D01*
X021985Y013890D02*
X022050Y013890D01*
X022050Y013731D02*
X021985Y013731D01*
X021985Y013573D02*
X022050Y013573D01*
X022050Y013414D02*
X021985Y013414D01*
X021985Y013256D02*
X022050Y013256D01*
X022065Y013097D02*
X021985Y013097D01*
X021985Y012939D02*
X022521Y012939D01*
X022454Y012780D02*
X021985Y012780D01*
X021985Y012622D02*
X022454Y012622D01*
X022454Y012463D02*
X021985Y012463D01*
X021985Y012305D02*
X022454Y012305D01*
X022454Y012146D02*
X021985Y012146D01*
X021985Y011988D02*
X022474Y011988D01*
X022474Y011829D02*
X021985Y011829D01*
X021985Y011671D02*
X022474Y011671D01*
X022474Y011512D02*
X021985Y011512D01*
X021985Y011354D02*
X022474Y011354D01*
X022901Y011195D02*
X021985Y011195D01*
X021985Y011037D02*
X022848Y011037D01*
X022848Y010878D02*
X021985Y010878D01*
X021985Y010720D02*
X022848Y010720D01*
X022848Y010561D02*
X021985Y010561D01*
X021985Y010403D02*
X022887Y010403D01*
X022750Y010244D02*
X022200Y010244D01*
X022200Y010086D02*
X022468Y010086D01*
X022309Y009927D02*
X022200Y009927D01*
X022200Y009769D02*
X022215Y009769D01*
X022200Y009610D02*
X022215Y009610D01*
X022200Y009452D02*
X022215Y009452D01*
X022200Y009293D02*
X022215Y009293D01*
X022200Y009135D02*
X022215Y009135D01*
X022200Y008976D02*
X022215Y008976D01*
X022215Y008818D02*
X021985Y008818D01*
X021985Y008659D02*
X022159Y008659D01*
X021991Y008501D02*
X021985Y008501D01*
X021725Y008350D02*
X021725Y009265D01*
X021725Y008350D02*
X020225Y006850D01*
X013475Y006850D01*
X011350Y008975D01*
X011100Y008975D01*
X010600Y009475D01*
X010841Y009769D02*
X011109Y009769D01*
X010593Y010878D02*
X010232Y010878D01*
X010353Y010720D02*
X012079Y010720D01*
X012079Y010878D02*
X011857Y010878D01*
X011966Y011037D02*
X012079Y011037D01*
X012115Y011195D02*
X012005Y011195D01*
X011991Y011354D02*
X012079Y011354D01*
X012079Y011512D02*
X011917Y011512D01*
X012079Y010561D02*
X010353Y010561D01*
X010312Y010403D02*
X012079Y010403D01*
X012255Y010244D02*
X010154Y010244D01*
X009796Y010244D02*
X008470Y010244D01*
X008470Y010403D02*
X009638Y010403D01*
X009597Y010561D02*
X008470Y010561D01*
X008470Y010720D02*
X009488Y010720D01*
X009572Y011003D02*
X009975Y010600D01*
X009906Y011037D02*
X010484Y011037D01*
X010378Y011947D02*
X008040Y011947D01*
X008040Y012262D02*
X011188Y012262D01*
X011225Y012225D01*
X011205Y012745D02*
X010887Y012745D01*
X010813Y012757D01*
X010741Y012780D01*
X008452Y012780D01*
X008470Y012622D02*
X010643Y012622D01*
X010741Y012780D02*
X010673Y012814D01*
X010612Y012859D01*
X010559Y012912D01*
X010514Y012973D01*
X010480Y013041D01*
X010457Y013113D01*
X010445Y013187D01*
X010445Y013205D01*
X011205Y013205D01*
X011205Y012745D01*
X011205Y012780D02*
X011245Y012780D01*
X011245Y012939D02*
X011205Y012939D01*
X011205Y013097D02*
X011245Y013097D01*
X011245Y013256D02*
X011205Y013256D01*
X011205Y013414D02*
X011245Y013414D01*
X011245Y013573D02*
X011205Y013573D01*
X010594Y013573D02*
X008300Y013573D01*
X008300Y013414D02*
X010483Y013414D01*
X010445Y013256D02*
X008300Y013256D01*
X008300Y013097D02*
X010462Y013097D01*
X010540Y012939D02*
X008300Y012939D01*
X008040Y012577D02*
X008040Y014165D01*
X008475Y014600D01*
X007666Y014999D02*
X007397Y014999D01*
X007397Y015158D02*
X007508Y015158D01*
X007472Y015316D02*
X007397Y015316D01*
X007397Y015475D02*
X007472Y015475D01*
X007543Y015633D02*
X007598Y015633D01*
X007557Y016109D02*
X007501Y016109D01*
X007225Y015850D02*
X007137Y015762D01*
X007137Y013165D01*
X006507Y012600D02*
X006507Y012382D01*
X006100Y011975D01*
X006100Y010850D01*
X005563Y010313D01*
X005248Y009785D02*
X003410Y009785D01*
X003350Y009725D01*
X003611Y009452D02*
X004967Y009452D01*
X004660Y010373D02*
X004248Y010373D01*
X004100Y010225D01*
X002100Y010225D01*
X001475Y009600D01*
X001123Y009927D02*
X001110Y009927D01*
X001110Y010086D02*
X001593Y010086D01*
X001751Y010244D02*
X001110Y010244D01*
X001110Y010403D02*
X001910Y010403D01*
X001955Y009610D02*
X001995Y009610D01*
X001995Y009452D02*
X001933Y009452D01*
X001847Y009293D02*
X002103Y009293D01*
X002262Y009135D02*
X001606Y009135D01*
X001778Y008976D02*
X002172Y008976D01*
X002014Y008818D02*
X001936Y008818D01*
X001955Y008659D02*
X001995Y008659D01*
X001995Y008501D02*
X001955Y008501D01*
X001896Y008342D02*
X002054Y008342D01*
X002213Y008184D02*
X001737Y008184D01*
X001729Y008025D02*
X002221Y008025D01*
X002276Y008080D02*
X001995Y007799D01*
X001995Y007620D01*
X002455Y007620D01*
X002455Y008080D01*
X002276Y008080D01*
X002455Y008025D02*
X002495Y008025D01*
X002495Y008080D02*
X002495Y007620D01*
X002455Y007620D01*
X002455Y007580D01*
X001995Y007580D01*
X001995Y007401D01*
X002276Y007120D01*
X002455Y007120D01*
X002455Y007580D01*
X002495Y007580D01*
X002495Y007620D01*
X002955Y007620D01*
X002955Y007799D01*
X002674Y008080D01*
X002495Y008080D01*
X002495Y007867D02*
X002455Y007867D01*
X002455Y007708D02*
X002495Y007708D01*
X002495Y007580D02*
X002955Y007580D01*
X002955Y007401D01*
X002674Y007120D01*
X002495Y007120D01*
X002495Y007580D01*
X002495Y007550D02*
X002455Y007550D01*
X002455Y007391D02*
X002495Y007391D01*
X002495Y007233D02*
X002455Y007233D01*
X002164Y007233D02*
X001786Y007233D01*
X001945Y007391D02*
X002005Y007391D01*
X001995Y007550D02*
X001955Y007550D01*
X001955Y007708D02*
X001995Y007708D01*
X002063Y007867D02*
X001887Y007867D01*
X001475Y007600D02*
X001100Y007225D01*
X001100Y005973D01*
X001138Y005935D01*
X002100Y005935D01*
X001625Y005648D02*
X001556Y005648D01*
X001556Y006282D02*
X001641Y006282D01*
X001360Y006440D02*
X003495Y006440D01*
X003495Y006282D02*
X002559Y006282D01*
X002575Y006123D02*
X003495Y006123D01*
X003495Y005965D02*
X002575Y005965D01*
X002575Y005806D02*
X003589Y005806D01*
X003595Y005648D02*
X002575Y005648D01*
X002575Y005489D02*
X003595Y005489D01*
X003595Y005331D02*
X002575Y005331D01*
X002575Y005172D02*
X003595Y005172D01*
X003975Y004850D02*
X002975Y004850D01*
X002100Y003975D01*
X002100Y003310D01*
X002575Y003270D02*
X002669Y003270D01*
X002669Y003112D02*
X002575Y003112D01*
X002566Y002953D02*
X002669Y002953D01*
X002669Y002795D02*
X002575Y002795D01*
X002148Y002478D02*
X002052Y002478D01*
X002052Y002319D02*
X002148Y002319D01*
X002575Y003429D02*
X002669Y003429D01*
X002669Y003587D02*
X002575Y003587D01*
X002669Y003746D02*
X002470Y003746D01*
X002397Y003904D02*
X002669Y003904D01*
X002669Y004063D02*
X002555Y004063D01*
X002295Y004538D02*
X002281Y004538D01*
X002360Y004697D02*
X002454Y004697D01*
X002495Y004855D02*
X002612Y004855D01*
X002575Y005014D02*
X002771Y005014D01*
X003031Y004538D02*
X003750Y004538D01*
X004200Y004538D02*
X004750Y004538D01*
X004597Y004697D02*
X004353Y004697D01*
X004355Y004855D02*
X004595Y004855D01*
X004595Y005014D02*
X004355Y005014D01*
X004355Y005172D02*
X004595Y005172D01*
X004595Y005331D02*
X004355Y005331D01*
X004355Y005489D02*
X004595Y005489D01*
X004595Y005648D02*
X004355Y005648D01*
X004361Y005806D02*
X004589Y005806D01*
X004495Y005965D02*
X004455Y005965D01*
X004455Y006123D02*
X004495Y006123D01*
X004495Y006282D02*
X004455Y006282D01*
X004455Y006440D02*
X004495Y006440D01*
X004495Y006599D02*
X004455Y006599D01*
X004455Y006757D02*
X004495Y006757D01*
X004495Y006916D02*
X004455Y006916D01*
X004455Y007074D02*
X004495Y007074D01*
X004495Y007233D02*
X004455Y007233D01*
X004455Y007391D02*
X004495Y007391D01*
X004495Y007550D02*
X004455Y007550D01*
X004715Y007708D02*
X002955Y007708D01*
X002955Y007550D02*
X003495Y007550D01*
X003495Y007391D02*
X002945Y007391D01*
X002786Y007233D02*
X003495Y007233D01*
X003495Y007074D02*
X001360Y007074D01*
X001360Y006916D02*
X003495Y006916D01*
X003495Y006757D02*
X001360Y006757D01*
X001360Y006599D02*
X003495Y006599D01*
X002887Y007867D02*
X004715Y007867D01*
X004715Y008025D02*
X002729Y008025D01*
X002737Y008184D02*
X004715Y008184D01*
X005235Y007708D02*
X007003Y007708D01*
X006995Y007550D02*
X006440Y007550D01*
X006455Y007391D02*
X006995Y007391D01*
X007013Y007233D02*
X006455Y007233D01*
X006045Y007233D02*
X005905Y007233D01*
X005905Y007391D02*
X006045Y007391D01*
X006045Y007550D02*
X005905Y007550D01*
X005510Y007550D02*
X005455Y007550D01*
X005455Y007391D02*
X005495Y007391D01*
X005495Y007233D02*
X005455Y007233D01*
X005455Y007074D02*
X005495Y007074D01*
X005495Y006916D02*
X005455Y006916D01*
X005495Y006655D02*
X005495Y005951D01*
X005507Y005906D01*
X005531Y005864D01*
X005564Y005831D01*
X005606Y005807D01*
X005651Y005795D01*
X005905Y005795D01*
X005905Y006655D01*
X005495Y006655D01*
X005495Y006599D02*
X005455Y006599D01*
X005455Y006440D02*
X005495Y006440D01*
X005495Y006282D02*
X005455Y006282D01*
X005455Y006123D02*
X005495Y006123D01*
X005495Y005965D02*
X005455Y005965D01*
X005361Y005806D02*
X005610Y005806D01*
X005905Y005806D02*
X006045Y005806D01*
X006045Y005795D02*
X006299Y005795D01*
X006344Y005807D01*
X006386Y005831D01*
X006419Y005864D01*
X006443Y005906D01*
X006455Y005951D01*
X006455Y006655D01*
X006045Y006655D01*
X006045Y005795D01*
X006045Y005965D02*
X005905Y005965D01*
X005905Y006123D02*
X006045Y006123D01*
X006045Y006282D02*
X005905Y006282D01*
X005905Y006440D02*
X006045Y006440D01*
X006045Y006599D02*
X005905Y006599D01*
X005905Y007074D02*
X006045Y007074D01*
X006455Y006599D02*
X011234Y006599D01*
X011340Y006440D02*
X006455Y006440D01*
X006455Y006282D02*
X007086Y006282D01*
X007106Y006293D02*
X007064Y006269D01*
X007031Y006236D01*
X007007Y006194D01*
X006995Y006149D01*
X006995Y005975D01*
X007475Y005975D01*
X007475Y005975D01*
X007475Y006305D01*
X007799Y006305D01*
X007844Y006293D01*
X007886Y006269D01*
X007919Y006236D01*
X007943Y006194D01*
X007955Y006149D01*
X007955Y005975D01*
X007475Y005975D01*
X007475Y005975D01*
X007475Y005645D01*
X007799Y005645D01*
X007844Y005657D01*
X007886Y005681D01*
X007919Y005714D01*
X007943Y005756D01*
X007955Y005801D01*
X007955Y005975D01*
X007475Y005975D01*
X007475Y005975D01*
X007475Y005975D01*
X007475Y006305D01*
X007151Y006305D01*
X007106Y006293D01*
X006995Y006123D02*
X006455Y006123D01*
X006455Y005965D02*
X006995Y005965D01*
X006995Y005975D02*
X006995Y005801D01*
X007007Y005756D01*
X007031Y005714D01*
X007064Y005681D01*
X007106Y005657D01*
X007151Y005645D01*
X007475Y005645D01*
X007475Y005975D01*
X006995Y005975D01*
X006995Y005806D02*
X006340Y005806D01*
X007142Y005648D02*
X005355Y005648D01*
X005355Y005489D02*
X011222Y005489D01*
X011222Y005331D02*
X005355Y005331D01*
X007185Y004380D02*
X007635Y004380D01*
X007500Y004221D02*
X007281Y004221D01*
X007281Y004063D02*
X007500Y004063D01*
X007500Y003904D02*
X007281Y003904D01*
X007281Y003746D02*
X007500Y003746D01*
X007511Y003587D02*
X007281Y003587D01*
X007281Y003429D02*
X007500Y003429D01*
X007281Y003270D02*
X007927Y003270D01*
X008023Y003270D02*
X009355Y003270D01*
X009355Y003112D02*
X008450Y003112D01*
X008441Y002953D02*
X009355Y002953D01*
X009355Y002795D02*
X007281Y002795D01*
X007281Y002953D02*
X007508Y002953D01*
X007500Y003112D02*
X007281Y003112D01*
X007281Y002636D02*
X009368Y002636D01*
X009356Y002002D02*
X007281Y002002D01*
X007281Y001844D02*
X009355Y001844D01*
X009355Y001685D02*
X007281Y001685D01*
X007281Y001527D02*
X009355Y001527D01*
X009355Y001368D02*
X007281Y001368D01*
X007281Y001210D02*
X009355Y001210D01*
X009355Y001051D02*
X007281Y001051D01*
X007281Y000893D02*
X009355Y000893D01*
X009355Y000734D02*
X007281Y000734D01*
X007281Y002161D02*
X016255Y002161D01*
X016112Y002002D02*
X013844Y002002D01*
X013845Y001844D02*
X015306Y001844D01*
X015222Y001685D02*
X013845Y001685D01*
X013845Y001527D02*
X015220Y001527D01*
X015295Y001368D02*
X013845Y001368D01*
X013845Y001210D02*
X016100Y001210D01*
X016504Y001600D02*
X017629Y002725D01*
X017640Y002725D01*
X017592Y003270D02*
X017688Y003270D01*
X017688Y003429D02*
X017592Y003429D01*
X017592Y003587D02*
X017688Y003587D01*
X017592Y003746D02*
X015825Y003746D01*
X015825Y003733D02*
X015825Y003914D01*
X015918Y003821D01*
X016284Y003821D01*
X016297Y003833D01*
X016343Y003821D01*
X016475Y003821D01*
X016475Y004237D01*
X016475Y004237D01*
X016475Y004221D02*
X016475Y004221D01*
X016475Y004063D02*
X016475Y004063D01*
X016475Y003904D02*
X016475Y003904D01*
X016297Y003833D02*
X016297Y003833D01*
X016326Y003587D02*
X016624Y003587D01*
X016561Y003429D02*
X016389Y003429D01*
X016389Y003270D02*
X016561Y003270D01*
X016561Y003112D02*
X016389Y003112D01*
X016389Y002953D02*
X016561Y002953D01*
X016849Y002849D02*
X016475Y002475D01*
X014475Y002475D01*
X013600Y003350D01*
X013413Y003350D01*
X013350Y003413D01*
X013350Y003350D01*
X012855Y003429D02*
X010345Y003429D01*
X010345Y003587D02*
X012855Y003587D01*
X012855Y003746D02*
X010345Y003746D01*
X010345Y003904D02*
X012855Y003904D01*
X012855Y004063D02*
X010345Y004063D01*
X010300Y004221D02*
X012900Y004221D01*
X012855Y003270D02*
X010345Y003270D01*
X010345Y003112D02*
X012855Y003112D01*
X012855Y002953D02*
X010345Y002953D01*
X010345Y002795D02*
X012855Y002795D01*
X012868Y002636D02*
X010332Y002636D01*
X010344Y002002D02*
X012856Y002002D01*
X012855Y001844D02*
X010345Y001844D01*
X010345Y001685D02*
X012855Y001685D01*
X012855Y001527D02*
X010345Y001527D01*
X010345Y001368D02*
X012855Y001368D01*
X012855Y001210D02*
X010345Y001210D01*
X010345Y001051D02*
X012855Y001051D01*
X012855Y000893D02*
X010345Y000893D01*
X010345Y000734D02*
X012855Y000734D01*
X013273Y001368D02*
X013427Y001368D01*
X013427Y001527D02*
X013273Y001527D01*
X013273Y001685D02*
X013427Y001685D01*
X013427Y001844D02*
X013273Y001844D01*
X013273Y002002D02*
X013427Y002002D01*
X013832Y002636D02*
X013946Y002636D01*
X014105Y002478D02*
X007281Y002478D01*
X007281Y002319D02*
X014263Y002319D01*
X014523Y002795D02*
X014875Y002795D01*
X014875Y002953D02*
X014365Y002953D01*
X014206Y003112D02*
X014875Y003112D01*
X014875Y003270D02*
X014048Y003270D01*
X013889Y003429D02*
X014875Y003429D01*
X014875Y003587D02*
X013845Y003587D01*
X013845Y003746D02*
X014875Y003746D01*
X014875Y003904D02*
X013845Y003904D01*
X013845Y004063D02*
X014922Y004063D01*
X015302Y004063D02*
X015398Y004063D01*
X015398Y003904D02*
X015302Y003904D01*
X015302Y003746D02*
X015398Y003746D01*
X015398Y003733D02*
X015825Y003733D01*
X015825Y003587D02*
X015876Y003587D01*
X015835Y003904D02*
X015825Y003904D01*
X015813Y004063D02*
X015778Y004063D01*
X015813Y004221D02*
X013800Y004221D01*
X012993Y005965D02*
X011860Y005965D01*
X011860Y006123D02*
X012834Y006123D01*
X012676Y006282D02*
X011860Y006282D01*
X011860Y006440D02*
X012517Y006440D01*
X012359Y006599D02*
X011860Y006599D01*
X011811Y006757D02*
X012200Y006757D01*
X012042Y006916D02*
X011652Y006916D01*
X011494Y007074D02*
X011883Y007074D01*
X011725Y007233D02*
X011335Y007233D01*
X011177Y007391D02*
X011566Y007391D01*
X011408Y007550D02*
X011018Y007550D01*
X010860Y007708D02*
X011249Y007708D01*
X011091Y007867D02*
X010701Y007867D01*
X010475Y008225D02*
X011100Y008225D01*
X013225Y006100D01*
X017725Y006100D01*
X018310Y005515D01*
X018310Y004725D01*
X018310Y003725D01*
X018310Y002725D01*
X018746Y002795D02*
X020328Y002795D01*
X020328Y002851D02*
X020328Y002110D01*
X020199Y001980D01*
X018610Y001980D01*
X018521Y002069D01*
X017872Y002069D01*
X017766Y001964D01*
X017766Y001236D01*
X017872Y001131D01*
X018521Y001131D01*
X018610Y001220D01*
X020431Y001220D01*
X020571Y001278D01*
X020787Y001494D01*
X021528Y001494D01*
X021633Y001599D01*
X021633Y002851D01*
X021528Y002956D01*
X020434Y002956D01*
X020328Y002851D01*
X020431Y002953D02*
X018746Y002953D01*
X018729Y003112D02*
X026120Y003112D01*
X026120Y003270D02*
X023702Y003270D01*
X023723Y003279D02*
X023971Y003527D01*
X024105Y003850D01*
X024105Y004200D01*
X023971Y004523D01*
X023723Y004771D01*
X023400Y004905D01*
X023050Y004905D01*
X022727Y004771D01*
X022479Y004523D01*
X022345Y004200D01*
X022345Y003850D01*
X022479Y003527D01*
X022727Y003279D01*
X023050Y003145D01*
X023400Y003145D01*
X023723Y003279D01*
X023873Y003429D02*
X026120Y003429D01*
X026120Y003587D02*
X023996Y003587D01*
X024062Y003746D02*
X026120Y003746D01*
X026120Y003904D02*
X025997Y003904D01*
X025549Y003904D02*
X025389Y003904D01*
X025389Y004063D02*
X025549Y004063D01*
X025549Y004221D02*
X025389Y004221D01*
X025389Y004380D02*
X025549Y004380D01*
X025549Y004538D02*
X025389Y004538D01*
X025389Y004697D02*
X023798Y004697D01*
X023956Y004538D02*
X024817Y004538D01*
X024817Y004380D02*
X024031Y004380D01*
X024096Y004221D02*
X024817Y004221D01*
X024817Y004063D02*
X024105Y004063D01*
X024105Y003904D02*
X024941Y003904D01*
X024817Y004855D02*
X023521Y004855D01*
X022929Y004855D02*
X021633Y004855D01*
X021633Y004697D02*
X022652Y004697D01*
X022493Y004538D02*
X021633Y004538D01*
X021633Y004380D02*
X022419Y004380D01*
X022354Y004221D02*
X021633Y004221D01*
X021633Y004063D02*
X022345Y004063D01*
X022345Y003904D02*
X021537Y003904D01*
X021528Y003895D02*
X021633Y004001D01*
X021633Y005252D01*
X021528Y005358D01*
X020434Y005358D01*
X020328Y005252D01*
X020328Y004001D01*
X020434Y003895D01*
X021528Y003895D01*
X022388Y003746D02*
X018746Y003746D01*
X018746Y003904D02*
X020425Y003904D01*
X020328Y004063D02*
X018746Y004063D01*
X018570Y004221D02*
X020328Y004221D01*
X020328Y004380D02*
X018746Y004380D01*
X018746Y004538D02*
X020328Y004538D01*
X020328Y004697D02*
X018746Y004697D01*
X018746Y004855D02*
X020328Y004855D01*
X020328Y005014D02*
X018746Y005014D01*
X018668Y005172D02*
X020328Y005172D01*
X020407Y005331D02*
X018570Y005331D01*
X018570Y005489D02*
X026120Y005489D01*
X026120Y005331D02*
X026037Y005331D01*
X026120Y005648D02*
X018536Y005648D01*
X018387Y005806D02*
X026120Y005806D01*
X026120Y005965D02*
X018228Y005965D01*
X018070Y006123D02*
X026120Y006123D01*
X026120Y006282D02*
X020399Y006282D01*
X020567Y006440D02*
X026120Y006440D01*
X026120Y006599D02*
X020734Y006599D01*
X020902Y006757D02*
X026120Y006757D01*
X026120Y006916D02*
X021070Y006916D01*
X021238Y007074D02*
X026120Y007074D01*
X026120Y007233D02*
X021406Y007233D01*
X021574Y007391D02*
X026120Y007391D01*
X026120Y007550D02*
X021741Y007550D01*
X021909Y007708D02*
X026120Y007708D01*
X026120Y007867D02*
X022077Y007867D01*
X022245Y008025D02*
X023015Y008025D01*
X022857Y008184D02*
X022413Y008184D01*
X022580Y008342D02*
X022847Y008342D01*
X022847Y008501D02*
X022715Y008501D01*
X022735Y008659D02*
X022965Y008659D01*
X022965Y008818D02*
X022735Y008818D01*
X022735Y008976D02*
X022750Y008976D01*
X022735Y009135D02*
X022750Y009135D01*
X022735Y009293D02*
X022750Y009293D01*
X022735Y009452D02*
X022750Y009452D01*
X022735Y009610D02*
X022750Y009610D01*
X022475Y009725D02*
X022685Y009935D01*
X023225Y009935D01*
X023225Y010792D01*
X023602Y010720D02*
X026120Y010720D01*
X026120Y010878D02*
X023602Y010878D01*
X023602Y011037D02*
X026120Y011037D01*
X026120Y011195D02*
X023549Y011195D01*
X023976Y011354D02*
X026120Y011354D01*
X026120Y011512D02*
X023976Y011512D01*
X023976Y011671D02*
X026120Y011671D01*
X026120Y011829D02*
X023976Y011829D01*
X023976Y011988D02*
X026120Y011988D01*
X025983Y012146D02*
X025887Y012146D01*
X025887Y012305D02*
X025983Y012305D01*
X025983Y012622D02*
X025887Y012622D01*
X025887Y012780D02*
X025983Y012780D01*
X025983Y012939D02*
X025887Y012939D01*
X026110Y013097D02*
X026120Y013097D01*
X026111Y013256D02*
X026120Y013256D01*
X026111Y013414D02*
X026120Y013414D01*
X026111Y013573D02*
X026120Y013573D01*
X026111Y013731D02*
X026120Y013731D01*
X026111Y013890D02*
X026120Y013890D01*
X026120Y014048D02*
X026018Y014048D01*
X026120Y014207D02*
X023474Y014207D01*
X023474Y014365D02*
X026120Y014365D01*
X026120Y014524D02*
X023474Y014524D01*
X023386Y014682D02*
X026120Y014682D01*
X026120Y014841D02*
X023227Y014841D01*
X022954Y014365D02*
X022233Y014365D01*
X022368Y014048D02*
X022368Y014048D01*
X022368Y013890D02*
X022368Y013890D01*
X022368Y013731D02*
X022368Y013731D01*
X022368Y013573D02*
X022368Y013573D01*
X022368Y013414D02*
X022368Y013414D01*
X022368Y013256D02*
X022368Y013256D01*
X022368Y013097D02*
X022368Y013097D01*
X022781Y013526D02*
X022781Y012584D01*
X022890Y012475D01*
X022890Y011697D01*
X022851Y011658D01*
X023560Y011697D02*
X023599Y011658D01*
X023560Y011697D02*
X023560Y012475D01*
X024350Y012475D01*
X025265Y012475D01*
X024829Y012780D02*
X024773Y012780D01*
X024773Y012939D02*
X024923Y012939D01*
X024513Y012638D02*
X024513Y013526D01*
X024946Y013526D01*
X025380Y013526D01*
X025608Y012939D02*
X025611Y012939D01*
X024829Y012146D02*
X024556Y012146D01*
X024350Y012475D02*
X024513Y012638D01*
X024144Y012146D02*
X023996Y012146D01*
X023602Y010561D02*
X026120Y010561D01*
X026120Y010403D02*
X023563Y010403D01*
X023700Y010244D02*
X026120Y010244D01*
X026120Y010086D02*
X023700Y010086D01*
X023700Y009927D02*
X026120Y009927D01*
X026120Y009769D02*
X023700Y009769D01*
X023700Y009610D02*
X026120Y009610D01*
X026120Y009452D02*
X023700Y009452D01*
X023700Y009293D02*
X026120Y009293D01*
X026120Y009135D02*
X023700Y009135D01*
X023700Y008976D02*
X026120Y008976D01*
X026120Y008818D02*
X023485Y008818D01*
X023485Y008659D02*
X026120Y008659D01*
X026120Y008501D02*
X023603Y008501D01*
X023603Y008342D02*
X026120Y008342D01*
X026120Y008184D02*
X023593Y008184D01*
X023435Y008025D02*
X026120Y008025D01*
X025549Y005331D02*
X025389Y005331D01*
X025389Y005172D02*
X025549Y005172D01*
X025549Y005014D02*
X025389Y005014D01*
X025389Y004855D02*
X025549Y004855D01*
X024901Y005331D02*
X021555Y005331D01*
X021633Y005172D02*
X024817Y005172D01*
X024817Y005014D02*
X021633Y005014D01*
X022454Y003587D02*
X018746Y003587D01*
X018746Y003429D02*
X022577Y003429D01*
X022748Y003270D02*
X018660Y003270D01*
X018746Y002636D02*
X020328Y002636D01*
X020328Y002478D02*
X018746Y002478D01*
X018709Y002319D02*
X020328Y002319D01*
X020328Y002161D02*
X017432Y002161D01*
X017273Y002002D02*
X017805Y002002D01*
X017766Y001844D02*
X017115Y001844D01*
X016956Y001685D02*
X017766Y001685D01*
X017766Y001527D02*
X016934Y001527D01*
X016934Y001368D02*
X017766Y001368D01*
X017793Y001210D02*
X016907Y001210D01*
X016695Y002161D02*
X016696Y002161D01*
X016853Y002319D02*
X016855Y002319D01*
X016853Y002478D02*
X017013Y002478D01*
X017004Y002636D02*
X017172Y002636D01*
X017204Y002795D02*
X017108Y002795D01*
X017137Y002953D02*
X017204Y002953D01*
X017221Y003112D02*
X017137Y003112D01*
X017137Y003270D02*
X017301Y003270D01*
X017204Y003429D02*
X017137Y003429D01*
X017074Y003587D02*
X017204Y003587D01*
X017204Y003904D02*
X017115Y003904D01*
X017137Y004063D02*
X017209Y004063D01*
X017137Y004221D02*
X018050Y004221D01*
X017688Y004063D02*
X017592Y004063D01*
X017592Y003904D02*
X017688Y003904D01*
X017688Y004380D02*
X017592Y004380D01*
X017592Y004538D02*
X017688Y004538D01*
X017592Y004697D02*
X017091Y004697D01*
X017137Y004538D02*
X017204Y004538D01*
X017212Y004380D02*
X017137Y004380D01*
X016850Y004238D02*
X016850Y004600D01*
X016725Y004725D01*
X016100Y004725D01*
X016101Y004724D01*
X016101Y004237D01*
X015813Y004380D02*
X010230Y004380D01*
X009850Y004725D02*
X016100Y004725D01*
X016963Y004855D02*
X017204Y004855D01*
X017204Y005014D02*
X010099Y005014D01*
X009940Y005172D02*
X011368Y005172D01*
X011600Y005475D02*
X011600Y006600D01*
X008975Y009225D01*
X007225Y009225D01*
X007137Y009313D01*
X007137Y009563D01*
X006877Y009293D02*
X006453Y009293D01*
X006453Y009135D02*
X006948Y009135D01*
X007147Y008976D02*
X006453Y008976D01*
X006512Y008818D02*
X006608Y008818D01*
X006608Y008659D02*
X006512Y008659D01*
X006512Y008501D02*
X006608Y008501D01*
X006608Y008342D02*
X009490Y008342D01*
X009332Y008501D02*
X006996Y008501D01*
X006996Y008659D02*
X009173Y008659D01*
X009015Y008818D02*
X006868Y008818D01*
X006996Y008184D02*
X009649Y008184D01*
X009807Y008025D02*
X006994Y008025D01*
X006608Y008025D02*
X006512Y008025D01*
X006512Y008184D02*
X006608Y008184D01*
X007475Y007475D02*
X008475Y007475D01*
X009475Y007475D01*
X009475Y006305D02*
X009151Y006305D01*
X009106Y006293D01*
X009064Y006269D01*
X009031Y006236D01*
X009007Y006194D01*
X008995Y006149D01*
X008995Y005975D01*
X009475Y005975D01*
X009475Y005975D01*
X009475Y006305D01*
X009799Y006305D01*
X009844Y006293D01*
X009886Y006269D01*
X009919Y006236D01*
X009943Y006194D01*
X009955Y006149D01*
X009955Y005975D01*
X009475Y005975D01*
X009475Y005975D01*
X009475Y005645D01*
X009799Y005645D01*
X009844Y005657D01*
X009886Y005681D01*
X009919Y005714D01*
X009943Y005756D01*
X009955Y005801D01*
X009955Y005975D01*
X009475Y005975D01*
X009475Y005975D01*
X009475Y005975D01*
X009475Y006305D01*
X009475Y006282D02*
X009475Y006282D01*
X009475Y006123D02*
X009475Y006123D01*
X009475Y005975D02*
X008995Y005975D01*
X008995Y005801D01*
X009007Y005756D01*
X009031Y005714D01*
X009064Y005681D01*
X009106Y005657D01*
X009151Y005645D01*
X009475Y005645D01*
X009475Y005975D01*
X009475Y005965D02*
X009475Y005965D01*
X009475Y005806D02*
X009475Y005806D01*
X009475Y005648D02*
X009475Y005648D01*
X009808Y005648D02*
X011238Y005648D01*
X011340Y005806D02*
X009955Y005806D01*
X009955Y005965D02*
X011340Y005965D01*
X011340Y006123D02*
X009955Y006123D01*
X009864Y006282D02*
X011340Y006282D01*
X011860Y005806D02*
X017651Y005806D01*
X017810Y005648D02*
X011962Y005648D01*
X011978Y005489D02*
X017968Y005489D01*
X018050Y005331D02*
X011978Y005331D01*
X011832Y005172D02*
X017287Y005172D01*
X017592Y005172D02*
X017688Y005172D01*
X017688Y005014D02*
X017592Y005014D01*
X017592Y004855D02*
X017688Y004855D01*
X016850Y004238D02*
X016849Y004237D01*
X016849Y003213D02*
X016849Y002849D01*
X016850Y003212D02*
X016849Y003213D01*
X016101Y003213D02*
X016088Y003213D01*
X015850Y002975D01*
X015390Y002975D01*
X015350Y003015D01*
X013845Y001051D02*
X026120Y001051D01*
X026120Y000893D02*
X013845Y000893D01*
X013845Y000734D02*
X026055Y000734D01*
X026120Y001210D02*
X018600Y001210D01*
X018588Y002002D02*
X020221Y002002D01*
X020661Y001368D02*
X022994Y001368D01*
X023050Y001345D02*
X023400Y001345D01*
X023723Y001479D01*
X023971Y001727D01*
X024105Y002050D01*
X024105Y002400D01*
X023971Y002723D01*
X023723Y002971D01*
X023400Y003105D01*
X023050Y003105D01*
X022727Y002971D01*
X022479Y002723D01*
X022345Y002400D01*
X022345Y002050D01*
X022479Y001727D01*
X022727Y001479D01*
X023050Y001345D01*
X023456Y001368D02*
X026120Y001368D01*
X026120Y001527D02*
X026046Y001527D01*
X025549Y001527D02*
X025389Y001527D01*
X025389Y001685D02*
X025549Y001685D01*
X025549Y001844D02*
X025389Y001844D01*
X025389Y002002D02*
X025549Y002002D01*
X025389Y002161D02*
X024105Y002161D01*
X024105Y002319D02*
X024817Y002319D01*
X024817Y002478D02*
X024073Y002478D01*
X024007Y002636D02*
X024817Y002636D01*
X024817Y002795D02*
X023900Y002795D01*
X023742Y002953D02*
X024961Y002953D01*
X025389Y002953D02*
X025549Y002953D01*
X025549Y002795D02*
X025389Y002795D01*
X025389Y002636D02*
X025549Y002636D01*
X025549Y002478D02*
X025389Y002478D01*
X025389Y002319D02*
X025549Y002319D01*
X025977Y002953D02*
X026120Y002953D01*
X024892Y001527D02*
X023771Y001527D01*
X023930Y001685D02*
X024817Y001685D01*
X024817Y001844D02*
X024019Y001844D01*
X024085Y002002D02*
X024817Y002002D01*
X022679Y001527D02*
X021561Y001527D01*
X021633Y001685D02*
X022520Y001685D01*
X022431Y001844D02*
X021633Y001844D01*
X021633Y002002D02*
X022365Y002002D01*
X022345Y002161D02*
X021633Y002161D01*
X021633Y002319D02*
X022345Y002319D01*
X022377Y002478D02*
X021633Y002478D01*
X021633Y002636D02*
X022443Y002636D01*
X022550Y002795D02*
X021633Y002795D01*
X021531Y002953D02*
X022708Y002953D01*
X020225Y006475D02*
X013350Y006475D01*
X011225Y008600D01*
X010725Y008600D01*
X009850Y009475D01*
X010091Y009769D02*
X010359Y009769D01*
X009609Y009769D02*
X009299Y009769D01*
X009141Y009927D02*
X012255Y009927D01*
X012255Y010086D02*
X008367Y010086D01*
X008915Y009785D02*
X010475Y008225D01*
X009472Y009610D02*
X009458Y009610D01*
X008915Y009785D02*
X007452Y009785D01*
X006507Y009769D02*
X006507Y009769D01*
X006507Y009927D02*
X006507Y009927D01*
X006507Y010086D02*
X006507Y010086D01*
X006507Y009610D02*
X006507Y009610D01*
X006507Y009452D02*
X006507Y009452D01*
X008040Y011003D02*
X009572Y011003D01*
X012020Y014048D02*
X013965Y014048D01*
X013965Y013890D02*
X012178Y013890D01*
X012046Y014207D02*
X013965Y014207D01*
X013965Y014365D02*
X013532Y014365D01*
X013532Y014524D02*
X013965Y014524D01*
X013965Y014682D02*
X013532Y014682D01*
X013532Y014841D02*
X013965Y014841D01*
X013965Y014999D02*
X013532Y014999D01*
X013532Y015158D02*
X013965Y015158D01*
X013965Y015316D02*
X013532Y015316D01*
X013532Y015234D02*
X013254Y015234D01*
X013254Y015234D01*
X013532Y015234D01*
X013254Y015234D02*
X012975Y015234D01*
X013254Y015234D01*
X013254Y015234D01*
X012975Y015234D02*
X012975Y015215D01*
X012802Y015215D01*
X012725Y015183D01*
X012725Y015377D01*
X012715Y015387D01*
X012715Y015465D01*
X013076Y015465D01*
X013045Y015447D01*
X013011Y015413D01*
X012987Y015372D01*
X012975Y015326D01*
X012975Y015234D01*
X012975Y015316D02*
X012725Y015316D01*
X012446Y014365D02*
X012446Y014365D01*
X012495Y013573D02*
X013038Y013573D01*
X012879Y013414D02*
X012654Y013414D01*
X012812Y013256D02*
X012847Y013256D01*
X013225Y013225D02*
X013225Y012515D01*
X013185Y012475D01*
X013185Y011600D02*
X013725Y011600D01*
X012606Y008976D02*
X012217Y008976D01*
X012375Y008818D02*
X012765Y008818D01*
X012923Y008659D02*
X012534Y008659D01*
X012692Y008501D02*
X013082Y008501D01*
X013240Y008342D02*
X012851Y008342D01*
X013009Y008184D02*
X013399Y008184D01*
X013557Y008025D02*
X013168Y008025D01*
X013326Y007867D02*
X013597Y007867D01*
X013707Y007708D02*
X013485Y007708D01*
X017100Y009935D02*
X017100Y011265D01*
X017100Y011935D02*
X017100Y012725D01*
X018004Y012939D02*
X021465Y012939D01*
X021465Y013097D02*
X018148Y013097D01*
X018266Y013256D02*
X021465Y013256D01*
X021465Y013414D02*
X018307Y013414D01*
X018292Y013573D02*
X021465Y013573D01*
X021465Y013731D02*
X018211Y013731D01*
X018110Y013890D02*
X021465Y013890D01*
X021465Y014048D02*
X018110Y014048D01*
X018110Y014207D02*
X021465Y014207D01*
X021502Y014365D02*
X021419Y014365D01*
X021431Y014524D02*
X021656Y014524D01*
X021814Y014682D02*
X021431Y014682D01*
X021431Y014841D02*
X021973Y014841D01*
X021431Y014999D02*
X026120Y014999D01*
X026120Y015158D02*
X021350Y015158D01*
X020975Y014727D02*
X017850Y014727D01*
X018110Y014365D02*
X020531Y014365D01*
X020519Y014999D02*
X017002Y014999D01*
X016843Y015158D02*
X020600Y015158D01*
X020601Y015792D02*
X018257Y015792D01*
X018307Y015950D02*
X020519Y015950D01*
X020944Y016255D02*
X018100Y016255D01*
X017850Y016005D01*
X017672Y016426D02*
X016767Y016426D01*
X016609Y016584D02*
X020530Y016584D01*
X020715Y016743D02*
X016450Y016743D01*
X016292Y016901D02*
X019956Y016901D01*
X019954Y017060D02*
X016133Y017060D01*
X015975Y017218D02*
X020342Y017218D01*
X020342Y017060D02*
X020438Y017060D01*
X020438Y016901D02*
X020342Y016901D01*
X020342Y017377D02*
X020438Y017377D01*
X020438Y017535D02*
X020342Y017535D01*
X020342Y017694D02*
X020438Y017694D01*
X020695Y017694D02*
X020722Y017694D01*
X021060Y017225D02*
X020975Y017140D01*
X020975Y016223D01*
X020944Y016255D01*
X021235Y016743D02*
X022145Y016743D01*
X022050Y016901D02*
X021496Y016901D01*
X021496Y017060D02*
X022050Y017060D01*
X022050Y017218D02*
X021496Y017218D01*
X021496Y017377D02*
X022050Y017377D01*
X022050Y017535D02*
X021496Y017535D01*
X021397Y017694D02*
X022050Y017694D01*
X021420Y016584D02*
X026120Y016584D01*
X026120Y016426D02*
X021431Y016426D01*
X021431Y016267D02*
X026120Y016267D01*
X026120Y016109D02*
X021431Y016109D01*
X021431Y015950D02*
X026120Y015950D01*
X026120Y015792D02*
X021349Y015792D01*
X020086Y017694D02*
X015978Y017694D01*
X015978Y017852D02*
X025120Y017852D01*
X024946Y017694D02*
X024946Y017694D01*
X024946Y017535D02*
X024946Y017535D01*
X024946Y017377D02*
X024946Y017377D01*
X024946Y017218D02*
X024946Y017218D01*
X024946Y017060D02*
X024946Y017060D01*
X024946Y016901D02*
X024946Y016901D01*
X024946Y016743D02*
X024946Y016743D01*
X025380Y017266D02*
X025380Y018661D01*
X025369Y018672D01*
X025640Y017852D02*
X026120Y017852D01*
X026041Y017765D02*
X026000Y017788D01*
X025954Y017801D01*
X025793Y017801D01*
X025793Y017266D01*
X025793Y017266D01*
X026111Y017266D01*
X026111Y017644D01*
X026098Y017690D01*
X026075Y017731D01*
X026041Y017765D01*
X026096Y017694D02*
X026120Y017694D01*
X026111Y017535D02*
X026120Y017535D01*
X026111Y017377D02*
X026120Y017377D01*
X026111Y017218D02*
X026120Y017218D01*
X026111Y017060D02*
X026120Y017060D01*
X026111Y016901D02*
X026120Y016901D01*
X026120Y016743D02*
X025994Y016743D01*
X025793Y016743D02*
X025793Y016743D01*
X025793Y016901D02*
X025793Y016901D01*
X025793Y017060D02*
X025793Y017060D01*
X025793Y017218D02*
X025793Y017218D01*
X025793Y017266D02*
X025793Y017266D01*
X025793Y017377D02*
X025793Y017377D01*
X025793Y017535D02*
X025793Y017535D01*
X025793Y017694D02*
X025793Y017694D01*
X026120Y015633D02*
X018125Y015633D01*
X017575Y015633D02*
X017478Y015633D01*
X017384Y015475D02*
X026120Y015475D01*
X026120Y015316D02*
X016685Y015316D01*
X017084Y016109D02*
X017398Y016109D01*
X017466Y016267D02*
X016926Y016267D01*
X015816Y017377D02*
X019954Y017377D01*
X019954Y017535D02*
X015820Y017535D01*
X015974Y018011D02*
X018975Y018011D01*
X018975Y018169D02*
X018064Y018169D01*
X018057Y018163D02*
X018162Y018268D01*
X018162Y018932D01*
X018057Y019037D01*
X017393Y019037D01*
X017288Y018932D01*
X017288Y018268D01*
X017393Y018163D01*
X018057Y018163D01*
X018162Y018328D02*
X018975Y018328D01*
X018975Y018486D02*
X018162Y018486D01*
X018162Y018645D02*
X018975Y018645D01*
X018975Y018803D02*
X018162Y018803D01*
X018133Y018962D02*
X018975Y018962D01*
X018975Y019120D02*
X000580Y019120D01*
X000580Y018962D02*
X001317Y018962D01*
X001288Y018803D02*
X000580Y018803D01*
X000580Y018645D02*
X001288Y018645D01*
X001288Y018486D02*
X000580Y018486D01*
X000580Y018328D02*
X001288Y018328D01*
X001386Y018169D02*
X000580Y018169D01*
X000580Y019279D02*
X018975Y019279D01*
X018975Y019437D02*
X000580Y019437D01*
X000580Y019596D02*
X018975Y019596D01*
X018975Y019754D02*
X000580Y019754D01*
X000580Y019913D02*
X018975Y019913D01*
X018975Y020071D02*
X000580Y020071D01*
X000580Y020230D02*
X018975Y020230D01*
X018975Y020388D02*
X000580Y020388D01*
X000580Y020547D02*
X018975Y020547D01*
X018975Y020705D02*
X000580Y020705D01*
X000580Y020864D02*
X018975Y020864D01*
X018975Y021022D02*
X000580Y021022D01*
X000580Y021181D02*
X018975Y021181D01*
X018975Y021339D02*
X000580Y021339D01*
X000580Y021498D02*
X018975Y021498D01*
X018975Y021656D02*
X000580Y021656D01*
X000580Y021815D02*
X018975Y021815D01*
X018975Y021973D02*
X000580Y021973D01*
X000580Y022132D02*
X003409Y022132D01*
X003365Y022175D02*
X003470Y022070D01*
X003980Y022070D01*
X004085Y022175D01*
X004085Y023025D01*
X003980Y023130D01*
X003470Y023130D01*
X003365Y023025D01*
X003365Y022175D01*
X003365Y022290D02*
X000580Y022290D01*
X000580Y022449D02*
X003365Y022449D01*
X003365Y022607D02*
X000580Y022607D01*
X000580Y022766D02*
X003365Y022766D01*
X003365Y022924D02*
X000580Y022924D01*
X000580Y023083D02*
X003423Y023083D01*
X004027Y023083D02*
X015423Y023083D01*
X015470Y023130D02*
X015365Y023025D01*
X015365Y022175D01*
X015470Y022070D01*
X015980Y022070D01*
X016085Y022175D01*
X016085Y023025D01*
X015980Y023130D01*
X015470Y023130D01*
X015365Y022924D02*
X004085Y022924D01*
X004085Y022766D02*
X015365Y022766D01*
X015365Y022607D02*
X004085Y022607D01*
X004085Y022449D02*
X015365Y022449D01*
X015365Y022290D02*
X004085Y022290D01*
X004041Y022132D02*
X015409Y022132D01*
X016041Y022132D02*
X018975Y022132D01*
X018975Y022290D02*
X016085Y022290D01*
X016085Y022449D02*
X018975Y022449D01*
X018975Y022607D02*
X016085Y022607D01*
X016085Y022766D02*
X018975Y022766D01*
X018975Y022924D02*
X016085Y022924D01*
X016027Y023083D02*
X018975Y023083D01*
X018975Y023241D02*
X000580Y023241D01*
X000580Y023400D02*
X018975Y023400D01*
X018975Y023558D02*
X000580Y023558D01*
X000580Y023717D02*
X018975Y023717D01*
X018975Y023875D02*
X000580Y023875D01*
X000580Y024034D02*
X018975Y024034D01*
X018975Y024192D02*
X000580Y024192D01*
X000580Y024351D02*
X018975Y024351D01*
X018975Y024509D02*
X000580Y024509D01*
X000580Y024668D02*
X018975Y024668D01*
X018975Y024826D02*
X000580Y024826D01*
X000580Y024985D02*
X018975Y024985D01*
X018975Y025143D02*
X000580Y025143D01*
X000580Y025302D02*
X018975Y025302D01*
X018975Y025460D02*
X000580Y025460D01*
X000580Y025619D02*
X018975Y025619D01*
X018975Y025777D02*
X000580Y025777D01*
X000580Y025936D02*
X018975Y025936D01*
X018975Y026094D02*
X000580Y026094D01*
X000580Y026253D02*
X018975Y026253D01*
X018975Y026411D02*
X000580Y026411D01*
X000580Y026570D02*
X018975Y026570D01*
X018975Y026728D02*
X000580Y026728D01*
X000580Y026887D02*
X018975Y026887D01*
X018975Y027045D02*
X000580Y027045D01*
X000580Y027204D02*
X018975Y027204D01*
X018975Y027362D02*
X000580Y027362D01*
X000580Y027521D02*
X018975Y027521D01*
X018975Y027679D02*
X000580Y027679D01*
X000580Y027838D02*
X018975Y027838D01*
X018975Y027996D02*
X000580Y027996D01*
X000580Y028155D02*
X018975Y028155D01*
X018975Y028313D02*
X000580Y028313D01*
X000580Y028472D02*
X018975Y028472D01*
X018975Y028630D02*
X000580Y028630D01*
X000580Y028789D02*
X013475Y028789D01*
X013475Y028947D02*
X000580Y028947D01*
X000580Y029106D02*
X013475Y029106D01*
X013475Y029264D02*
X009008Y029264D01*
X008973Y029229D02*
X009096Y029352D01*
X009162Y029513D01*
X009162Y029687D01*
X009096Y029848D01*
X008985Y029959D01*
X008985Y030159D01*
X009154Y030159D01*
X009259Y030265D01*
X009259Y030886D01*
X009154Y030992D01*
X008296Y030992D01*
X008225Y030921D01*
X008154Y030992D01*
X007296Y030992D01*
X007200Y030896D01*
X007200Y031092D01*
X006773Y031092D01*
X006773Y030704D01*
X007044Y030704D01*
X007090Y030717D01*
X007131Y030740D01*
X007164Y030774D01*
X007188Y030815D01*
X007191Y030825D01*
X007191Y030265D01*
X007296Y030159D01*
X007465Y030159D01*
X007465Y029959D01*
X007354Y029848D01*
X007288Y029687D01*
X007288Y029513D01*
X007354Y029352D01*
X007477Y029229D01*
X007638Y029163D01*
X007812Y029163D01*
X007973Y029229D01*
X008096Y029352D01*
X008162Y029513D01*
X008162Y029687D01*
X008096Y029848D01*
X007985Y029959D01*
X007985Y030159D01*
X008154Y030159D01*
X008225Y030230D01*
X008296Y030159D01*
X008465Y030159D01*
X008465Y029959D01*
X008354Y029848D01*
X008288Y029687D01*
X008288Y029513D01*
X008354Y029352D01*
X008477Y029229D01*
X008638Y029163D01*
X008812Y029163D01*
X008973Y029229D01*
X009125Y029423D02*
X013475Y029423D01*
X013475Y029581D02*
X009162Y029581D01*
X009141Y029740D02*
X013475Y029740D01*
X013475Y029898D02*
X009046Y029898D01*
X008985Y030057D02*
X013475Y030057D01*
X013475Y030215D02*
X009210Y030215D01*
X009259Y030374D02*
X013475Y030374D01*
X013475Y030532D02*
X012817Y030532D01*
X012757Y030472D02*
X012978Y030693D01*
X012978Y031007D01*
X012840Y031145D01*
X012840Y032186D01*
X012970Y032186D01*
X013075Y032291D01*
X013075Y033031D01*
X012970Y033136D01*
X012230Y033136D01*
X012125Y033031D01*
X012125Y032291D01*
X012230Y032186D01*
X012360Y032186D01*
X012360Y031145D01*
X012222Y031007D01*
X012222Y030693D01*
X012443Y030472D01*
X012757Y030472D01*
X012975Y030691D02*
X013475Y030691D01*
X013475Y030849D02*
X012978Y030849D01*
X012977Y031008D02*
X013475Y031008D01*
X013475Y031166D02*
X012840Y031166D01*
X012840Y031325D02*
X013475Y031325D01*
X013475Y031483D02*
X012840Y031483D01*
X012840Y031642D02*
X013475Y031642D01*
X013475Y031800D02*
X012840Y031800D01*
X012840Y031959D02*
X013475Y031959D01*
X013475Y032117D02*
X012840Y032117D01*
X013060Y032276D02*
X013475Y032276D01*
X013475Y032434D02*
X013075Y032434D01*
X013075Y032593D02*
X013475Y032593D01*
X013475Y032751D02*
X013075Y032751D01*
X013075Y032910D02*
X013475Y032910D01*
X013475Y033068D02*
X013038Y033068D01*
X013475Y033227D02*
X000580Y033227D01*
X000580Y033385D02*
X013475Y033385D01*
X013475Y033544D02*
X000580Y033544D01*
X000580Y033702D02*
X011130Y033702D01*
X011125Y033720D02*
X011137Y033674D01*
X011161Y033633D01*
X011194Y033600D01*
X011235Y033576D01*
X011281Y033564D01*
X011532Y033564D01*
X011532Y033971D01*
X011668Y033971D01*
X011668Y034107D01*
X011532Y034107D01*
X011532Y034514D01*
X011281Y034514D01*
X011235Y034502D01*
X011194Y034478D01*
X011161Y034445D01*
X011137Y034404D01*
X011125Y034358D01*
X011125Y034107D01*
X011532Y034107D01*
X011532Y033971D01*
X011125Y033971D01*
X011125Y033720D01*
X011125Y033861D02*
X000580Y033861D01*
X000580Y034019D02*
X011532Y034019D01*
X011668Y034019D02*
X012532Y034019D01*
X012532Y033971D02*
X012125Y033971D01*
X012125Y033720D01*
X012137Y033674D01*
X012161Y033633D01*
X012194Y033600D01*
X012235Y033576D01*
X012281Y033564D01*
X012532Y033564D01*
X012532Y033971D01*
X012668Y033971D01*
X012668Y034107D01*
X012532Y034107D01*
X012532Y034514D01*
X012281Y034514D01*
X012235Y034502D01*
X012194Y034478D01*
X012161Y034445D01*
X012137Y034404D01*
X012125Y034358D01*
X012125Y034107D01*
X012532Y034107D01*
X012532Y033971D01*
X012532Y033861D02*
X012668Y033861D01*
X012668Y033971D02*
X012668Y033564D01*
X012919Y033564D01*
X012965Y033576D01*
X013006Y033600D01*
X013039Y033633D01*
X013063Y033674D01*
X013075Y033720D01*
X013075Y033971D01*
X012668Y033971D01*
X012668Y034019D02*
X013475Y034019D01*
X013475Y033861D02*
X013075Y033861D01*
X013070Y033702D02*
X013475Y033702D01*
X013075Y034107D02*
X013075Y034358D01*
X013063Y034404D01*
X013039Y034445D01*
X013006Y034478D01*
X012965Y034502D01*
X012919Y034514D01*
X012668Y034514D01*
X012668Y034107D01*
X013075Y034107D01*
X013075Y034178D02*
X013475Y034178D01*
X013475Y034336D02*
X013075Y034336D01*
X012978Y034495D02*
X013475Y034495D01*
X012668Y034495D02*
X012532Y034495D01*
X012532Y034336D02*
X012668Y034336D01*
X012668Y034178D02*
X012532Y034178D01*
X012222Y034495D02*
X011978Y034495D01*
X011965Y034502D02*
X011919Y034514D01*
X011668Y034514D01*
X011668Y034107D01*
X012075Y034107D01*
X012075Y034358D01*
X012063Y034404D01*
X012039Y034445D01*
X012006Y034478D01*
X011965Y034502D01*
X012075Y034336D02*
X012125Y034336D01*
X012125Y034178D02*
X012075Y034178D01*
X012075Y033971D02*
X011668Y033971D01*
X011668Y033564D01*
X011919Y033564D01*
X011965Y033576D01*
X012006Y033600D01*
X012039Y033633D01*
X012063Y033674D01*
X012075Y033720D01*
X012075Y033971D01*
X012075Y033861D02*
X012125Y033861D01*
X012130Y033702D02*
X012070Y033702D01*
X011668Y033702D02*
X011532Y033702D01*
X011532Y033861D02*
X011668Y033861D01*
X011668Y034178D02*
X011532Y034178D01*
X011532Y034336D02*
X011668Y034336D01*
X011668Y034495D02*
X011532Y034495D01*
X011222Y034495D02*
X000673Y034495D01*
X000580Y034336D02*
X011125Y034336D01*
X011125Y034178D02*
X000580Y034178D01*
X000580Y033068D02*
X007533Y033068D01*
X007514Y033049D02*
X007510Y033047D01*
X007403Y032940D01*
X007401Y032936D01*
X007347Y032882D01*
X007347Y032805D01*
X007345Y032801D01*
X007345Y032291D01*
X007296Y032291D01*
X007191Y032185D01*
X007191Y032150D01*
X007095Y032246D01*
X006985Y032246D01*
X006985Y032325D01*
X007103Y032443D01*
X007103Y032757D01*
X006882Y032978D01*
X006568Y032978D01*
X006347Y032757D01*
X006347Y032443D01*
X006465Y032325D01*
X006465Y032246D01*
X006355Y032246D01*
X006259Y032150D01*
X006259Y032185D01*
X006154Y032291D01*
X005296Y032291D01*
X005225Y032220D01*
X005154Y032291D01*
X004985Y032291D01*
X004985Y032325D01*
X005103Y032443D01*
X005103Y032757D01*
X004882Y032978D01*
X004568Y032978D01*
X004347Y032757D01*
X004347Y032443D01*
X004465Y032325D01*
X004465Y032291D01*
X004296Y032291D01*
X004225Y032220D01*
X004154Y032291D01*
X003985Y032291D01*
X003985Y032325D01*
X004103Y032443D01*
X004103Y032757D01*
X003882Y032978D01*
X003568Y032978D01*
X003347Y032757D01*
X003347Y032443D01*
X003465Y032325D01*
X003465Y032291D01*
X003296Y032291D01*
X003225Y032220D01*
X003154Y032291D01*
X002985Y032291D01*
X002985Y032325D01*
X003103Y032443D01*
X003103Y032757D01*
X002882Y032978D01*
X002568Y032978D01*
X002347Y032757D01*
X002347Y032443D01*
X002465Y032325D01*
X002465Y032291D01*
X002296Y032291D01*
X002225Y032220D01*
X002154Y032291D01*
X001985Y032291D01*
X001985Y032325D01*
X002103Y032443D01*
X002103Y032757D01*
X001882Y032978D01*
X001568Y032978D01*
X001347Y032757D01*
X001347Y032443D01*
X001465Y032325D01*
X001465Y032291D01*
X001296Y032291D01*
X001191Y032185D01*
X001191Y031564D01*
X001296Y031458D01*
X002154Y031458D01*
X002225Y031529D01*
X002296Y031458D01*
X003154Y031458D01*
X003225Y031529D01*
X003296Y031458D01*
X004154Y031458D01*
X004225Y031529D01*
X004296Y031458D01*
X005154Y031458D01*
X005225Y031529D01*
X005296Y031458D01*
X006154Y031458D01*
X006250Y031554D01*
X006250Y031479D01*
X006262Y031466D01*
X006250Y031420D01*
X006250Y031188D01*
X006677Y031188D01*
X006677Y031092D01*
X006773Y031092D01*
X006773Y031188D01*
X007200Y031188D01*
X007200Y031420D01*
X007188Y031466D01*
X007188Y031466D01*
X007200Y031479D01*
X007200Y031554D01*
X007296Y031458D01*
X008154Y031458D01*
X008225Y031529D01*
X008296Y031458D01*
X009154Y031458D01*
X009259Y031564D01*
X009259Y031615D01*
X009722Y031615D01*
X009722Y031568D01*
X009880Y031410D01*
X009880Y031325D01*
X009810Y031325D01*
X009704Y031220D01*
X009704Y030480D01*
X009810Y030375D01*
X010471Y030375D01*
X010475Y030379D01*
X010479Y030375D01*
X011140Y030375D01*
X011246Y030480D01*
X011246Y030590D01*
X011402Y030590D01*
X011497Y030630D01*
X011747Y030880D01*
X011820Y030953D01*
X011860Y031048D01*
X011860Y032186D01*
X011970Y032186D01*
X012075Y032291D01*
X012075Y033031D01*
X011970Y033136D01*
X011230Y033136D01*
X011125Y033031D01*
X011125Y032291D01*
X011230Y032186D01*
X011340Y032186D01*
X011340Y031208D01*
X011246Y031113D01*
X011246Y031220D01*
X011140Y031325D01*
X010479Y031325D01*
X010475Y031321D01*
X010471Y031325D01*
X010400Y031325D01*
X010400Y031491D01*
X010478Y031568D01*
X010478Y031882D01*
X010257Y032103D01*
X010078Y032103D01*
X010002Y032135D01*
X009259Y032135D01*
X009259Y032185D01*
X009195Y032250D01*
X009262Y032250D01*
X009262Y032677D01*
X009358Y032677D01*
X009358Y032773D01*
X009746Y032773D01*
X009746Y033044D01*
X009733Y033090D01*
X009710Y033131D01*
X009676Y033164D01*
X009635Y033188D01*
X009589Y033200D01*
X009358Y033200D01*
X009358Y032773D01*
X009262Y032773D01*
X009262Y033200D01*
X009030Y033200D01*
X008984Y033188D01*
X008984Y033188D01*
X008971Y033200D01*
X008310Y033200D01*
X008215Y033105D01*
X007649Y033105D01*
X007645Y033103D01*
X007568Y033103D01*
X007514Y033049D01*
X007375Y032910D02*
X006950Y032910D01*
X007103Y032751D02*
X007345Y032751D01*
X007345Y032593D02*
X007103Y032593D01*
X007094Y032434D02*
X007345Y032434D01*
X007281Y032276D02*
X006985Y032276D01*
X006725Y032600D02*
X006725Y031810D01*
X006660Y031875D01*
X005725Y031875D01*
X006169Y032276D02*
X006465Y032276D01*
X006356Y032434D02*
X005094Y032434D01*
X005103Y032593D02*
X006347Y032593D01*
X006347Y032751D02*
X005103Y032751D01*
X004950Y032910D02*
X006500Y032910D01*
X006250Y031483D02*
X006179Y031483D01*
X006262Y031466D02*
X006262Y031466D01*
X006250Y031325D02*
X000580Y031325D01*
X000580Y031483D02*
X001271Y031483D01*
X001191Y031642D02*
X000580Y031642D01*
X000580Y031800D02*
X001191Y031800D01*
X001191Y031959D02*
X000580Y031959D01*
X000580Y032117D02*
X001191Y032117D01*
X001281Y032276D02*
X000580Y032276D01*
X000580Y032434D02*
X001356Y032434D01*
X001347Y032593D02*
X000580Y032593D01*
X000580Y032751D02*
X001347Y032751D01*
X001500Y032910D02*
X000580Y032910D01*
X001725Y032600D02*
X001725Y031875D01*
X002169Y032276D02*
X002281Y032276D01*
X002356Y032434D02*
X002094Y032434D01*
X002103Y032593D02*
X002347Y032593D01*
X002347Y032751D02*
X002103Y032751D01*
X001950Y032910D02*
X002500Y032910D01*
X002725Y032600D02*
X002725Y031875D01*
X003169Y032276D02*
X003281Y032276D01*
X003356Y032434D02*
X003094Y032434D01*
X003103Y032593D02*
X003347Y032593D01*
X003347Y032751D02*
X003103Y032751D01*
X002950Y032910D02*
X003500Y032910D01*
X003725Y032600D02*
X003725Y031875D01*
X003271Y031483D02*
X003179Y031483D01*
X003154Y030992D02*
X002296Y030992D01*
X002225Y030921D01*
X002154Y030992D01*
X001296Y030992D01*
X001191Y030886D01*
X001191Y030265D01*
X001296Y030159D01*
X001465Y030159D01*
X001465Y029959D01*
X001354Y029848D01*
X001288Y029687D01*
X001288Y029513D01*
X001354Y029352D01*
X001477Y029229D01*
X001638Y029163D01*
X001812Y029163D01*
X001973Y029229D01*
X002096Y029352D01*
X002162Y029513D01*
X002162Y029687D01*
X002096Y029848D01*
X001985Y029959D01*
X001985Y030159D01*
X002154Y030159D01*
X002225Y030230D01*
X002296Y030159D01*
X002465Y030159D01*
X002465Y029959D01*
X002354Y029848D01*
X002288Y029687D01*
X002288Y029513D01*
X002354Y029352D01*
X002477Y029229D01*
X002638Y029163D01*
X002812Y029163D01*
X002973Y029229D01*
X003096Y029352D01*
X003162Y029513D01*
X003162Y029687D01*
X003096Y029848D01*
X002985Y029959D01*
X002985Y030159D01*
X003154Y030159D01*
X003225Y030230D01*
X003296Y030159D01*
X003465Y030159D01*
X003465Y029959D01*
X003354Y029848D01*
X003288Y029687D01*
X003288Y029513D01*
X003354Y029352D01*
X003477Y029229D01*
X003638Y029163D01*
X003812Y029163D01*
X003973Y029229D01*
X004096Y029352D01*
X004162Y029513D01*
X004162Y029687D01*
X004096Y029848D01*
X003985Y029959D01*
X003985Y030159D01*
X004154Y030159D01*
X004225Y030230D01*
X004296Y030159D01*
X004465Y030159D01*
X004465Y029959D01*
X004354Y029848D01*
X004288Y029687D01*
X004288Y029513D01*
X004354Y029352D01*
X004477Y029229D01*
X004638Y029163D01*
X004812Y029163D01*
X004973Y029229D01*
X005096Y029352D01*
X005162Y029513D01*
X005162Y029687D01*
X005096Y029848D01*
X004985Y029959D01*
X004985Y030159D01*
X005154Y030159D01*
X005225Y030230D01*
X005296Y030159D01*
X005465Y030159D01*
X005465Y029959D01*
X005354Y029848D01*
X005288Y029687D01*
X005288Y029513D01*
X005354Y029352D01*
X005477Y029229D01*
X005638Y029163D01*
X005812Y029163D01*
X005973Y029229D01*
X006096Y029352D01*
X006162Y029513D01*
X006162Y029687D01*
X006096Y029848D01*
X005985Y029959D01*
X005985Y030159D01*
X006154Y030159D01*
X006259Y030265D01*
X006259Y030825D01*
X006262Y030815D01*
X006286Y030774D01*
X006319Y030740D01*
X006360Y030717D01*
X006406Y030704D01*
X006677Y030704D01*
X006677Y031092D01*
X006250Y031092D01*
X006250Y030896D01*
X006154Y030992D01*
X005296Y030992D01*
X005225Y030921D01*
X005154Y030992D01*
X004296Y030992D01*
X004225Y030921D01*
X004154Y030992D01*
X003296Y030992D01*
X003225Y030921D01*
X003154Y030992D01*
X002725Y030575D02*
X002725Y029600D01*
X003125Y029423D02*
X003325Y029423D01*
X003288Y029581D02*
X003162Y029581D01*
X003141Y029740D02*
X003309Y029740D01*
X003404Y029898D02*
X003046Y029898D01*
X002985Y030057D02*
X003465Y030057D01*
X003240Y030215D02*
X003210Y030215D01*
X003725Y030575D02*
X003725Y029600D01*
X004046Y029898D02*
X004404Y029898D01*
X004465Y030057D02*
X003985Y030057D01*
X004210Y030215D02*
X004240Y030215D01*
X004309Y029740D02*
X004141Y029740D01*
X004162Y029581D02*
X004288Y029581D01*
X004325Y029423D02*
X004125Y029423D01*
X004008Y029264D02*
X004442Y029264D01*
X004725Y029600D02*
X004725Y030575D01*
X004985Y030057D02*
X005465Y030057D01*
X005404Y029898D02*
X005046Y029898D01*
X005141Y029740D02*
X005309Y029740D01*
X005288Y029581D02*
X005162Y029581D01*
X005125Y029423D02*
X005325Y029423D01*
X005442Y029264D02*
X005008Y029264D01*
X005725Y029600D02*
X005725Y030575D01*
X005985Y030057D02*
X007465Y030057D01*
X007404Y029898D02*
X007046Y029898D01*
X007059Y029885D02*
X007010Y029934D01*
X006954Y029974D01*
X006893Y030005D01*
X006827Y030027D01*
X006759Y030037D01*
X006725Y030037D01*
X006691Y030037D01*
X006623Y030027D01*
X006557Y030005D01*
X006496Y029974D01*
X006440Y029934D01*
X006391Y029885D01*
X006351Y029829D01*
X006320Y029768D01*
X006298Y029702D01*
X006288Y029634D01*
X006288Y029600D01*
X006288Y029566D01*
X006298Y029498D01*
X006320Y029432D01*
X006351Y029371D01*
X006391Y029315D01*
X006440Y029266D01*
X006496Y029226D01*
X006557Y029195D01*
X006623Y029173D01*
X006691Y029163D01*
X006725Y029163D01*
X006759Y029163D01*
X006827Y029173D01*
X006893Y029195D01*
X006954Y029226D01*
X007010Y029266D01*
X007059Y029315D01*
X007099Y029371D01*
X007130Y029432D01*
X007152Y029498D01*
X007162Y029566D01*
X007162Y029600D01*
X006725Y029600D01*
X007162Y029600D01*
X007162Y029634D01*
X007152Y029702D01*
X007130Y029768D01*
X007099Y029829D01*
X007059Y029885D01*
X007140Y029740D02*
X007309Y029740D01*
X007288Y029581D02*
X007162Y029581D01*
X007126Y029423D02*
X007325Y029423D01*
X007442Y029264D02*
X007007Y029264D01*
X006725Y029264D02*
X006725Y029264D01*
X006725Y029163D02*
X006725Y029600D01*
X006725Y029600D01*
X006725Y029600D01*
X006725Y030037D01*
X006725Y029600D01*
X006725Y029600D01*
X006725Y029600D01*
X006288Y029600D01*
X006725Y029600D01*
X006725Y029163D01*
X006725Y029423D02*
X006725Y029423D01*
X006725Y029581D02*
X006725Y029581D01*
X006725Y029740D02*
X006725Y029740D01*
X006725Y029898D02*
X006725Y029898D01*
X006404Y029898D02*
X006046Y029898D01*
X006141Y029740D02*
X006310Y029740D01*
X006288Y029581D02*
X006162Y029581D01*
X006125Y029423D02*
X006324Y029423D01*
X006443Y029264D02*
X006008Y029264D01*
X006210Y030215D02*
X007240Y030215D01*
X007191Y030374D02*
X006259Y030374D01*
X006259Y030532D02*
X007191Y030532D01*
X007191Y030691D02*
X006259Y030691D01*
X006250Y031008D02*
X000580Y031008D01*
X000580Y031166D02*
X006677Y031166D01*
X006773Y031166D02*
X009704Y031166D01*
X009704Y031008D02*
X007200Y031008D01*
X007200Y031325D02*
X009809Y031325D01*
X009807Y031483D02*
X009179Y031483D01*
X009259Y030849D02*
X009704Y030849D01*
X009704Y030691D02*
X009259Y030691D01*
X009259Y030532D02*
X009704Y030532D01*
X010140Y030850D02*
X010140Y031685D01*
X010100Y031725D01*
X009950Y031875D01*
X008725Y031875D01*
X008271Y031483D02*
X008179Y031483D01*
X007725Y030575D02*
X007725Y029600D01*
X008046Y029898D02*
X008404Y029898D01*
X008465Y030057D02*
X007985Y030057D01*
X008210Y030215D02*
X008240Y030215D01*
X008309Y029740D02*
X008141Y029740D01*
X008162Y029581D02*
X008288Y029581D01*
X008325Y029423D02*
X008125Y029423D01*
X008008Y029264D02*
X008442Y029264D01*
X008725Y029600D02*
X008725Y030575D01*
X009262Y032276D02*
X009358Y032276D01*
X009358Y032250D02*
X009589Y032250D01*
X009635Y032262D01*
X009676Y032286D01*
X009710Y032319D01*
X009733Y032360D01*
X009746Y032406D01*
X009746Y032677D01*
X009358Y032677D01*
X009358Y032250D01*
X009358Y032434D02*
X009262Y032434D01*
X009262Y032593D02*
X009358Y032593D01*
X009358Y032751D02*
X011125Y032751D01*
X011125Y032593D02*
X009746Y032593D01*
X009746Y032434D02*
X011125Y032434D01*
X011140Y032276D02*
X009659Y032276D01*
X010044Y032117D02*
X011340Y032117D01*
X011340Y031959D02*
X010401Y031959D01*
X010478Y031800D02*
X011340Y031800D01*
X011340Y031642D02*
X010478Y031642D01*
X010400Y031483D02*
X011340Y031483D01*
X011340Y031325D02*
X011141Y031325D01*
X011246Y031166D02*
X011298Y031166D01*
X011600Y031100D02*
X011350Y030850D01*
X010810Y030850D01*
X011246Y030532D02*
X012383Y030532D01*
X012225Y030691D02*
X011558Y030691D01*
X011717Y030849D02*
X012222Y030849D01*
X012223Y031008D02*
X011843Y031008D01*
X011860Y031166D02*
X012360Y031166D01*
X012360Y031325D02*
X011860Y031325D01*
X011860Y031483D02*
X012360Y031483D01*
X012360Y031642D02*
X011860Y031642D01*
X011860Y031800D02*
X012360Y031800D01*
X012360Y031959D02*
X011860Y031959D01*
X011860Y032117D02*
X012360Y032117D01*
X012140Y032276D02*
X012060Y032276D01*
X012075Y032434D02*
X012125Y032434D01*
X012125Y032593D02*
X012075Y032593D01*
X012075Y032751D02*
X012125Y032751D01*
X012125Y032910D02*
X012075Y032910D01*
X012038Y033068D02*
X012162Y033068D01*
X012532Y033702D02*
X012668Y033702D01*
X011600Y032661D02*
X011600Y031100D01*
X010478Y031325D02*
X010472Y031325D01*
X011125Y032910D02*
X009746Y032910D01*
X009739Y033068D02*
X011162Y033068D01*
X009358Y033068D02*
X009262Y033068D01*
X009262Y032910D02*
X009358Y032910D01*
X007271Y031483D02*
X007200Y031483D01*
X006773Y031008D02*
X006677Y031008D01*
X006677Y030849D02*
X006773Y030849D01*
X005271Y031483D02*
X005179Y031483D01*
X004725Y031875D02*
X004725Y032600D01*
X004347Y032593D02*
X004103Y032593D01*
X004103Y032751D02*
X004347Y032751D01*
X004500Y032910D02*
X003950Y032910D01*
X004094Y032434D02*
X004356Y032434D01*
X004281Y032276D02*
X004169Y032276D01*
X004179Y031483D02*
X004271Y031483D01*
X005169Y032276D02*
X005281Y032276D01*
X005240Y030215D02*
X005210Y030215D01*
X003442Y029264D02*
X003008Y029264D01*
X002442Y029264D02*
X002008Y029264D01*
X002125Y029423D02*
X002325Y029423D01*
X002288Y029581D02*
X002162Y029581D01*
X002141Y029740D02*
X002309Y029740D01*
X002404Y029898D02*
X002046Y029898D01*
X001985Y030057D02*
X002465Y030057D01*
X002240Y030215D02*
X002210Y030215D01*
X001725Y030575D02*
X001725Y029600D01*
X001404Y029898D02*
X000580Y029898D01*
X000580Y029740D02*
X001309Y029740D01*
X001288Y029581D02*
X000580Y029581D01*
X000580Y029423D02*
X001325Y029423D01*
X001442Y029264D02*
X000580Y029264D01*
X000580Y030057D02*
X001465Y030057D01*
X001240Y030215D02*
X000580Y030215D01*
X000580Y030374D02*
X001191Y030374D01*
X001191Y030532D02*
X000580Y030532D01*
X000580Y030691D02*
X001191Y030691D01*
X001191Y030849D02*
X000580Y030849D01*
X002179Y031483D02*
X002271Y031483D01*
X002133Y018962D02*
X017317Y018962D01*
X017288Y018803D02*
X002162Y018803D01*
X002162Y018645D02*
X017288Y018645D01*
X017288Y018486D02*
X002162Y018486D01*
X002600Y015950D02*
X002600Y015950D01*
X002600Y015792D02*
X002600Y015792D01*
X003046Y015633D02*
X003098Y015633D01*
X002154Y014365D02*
X001670Y014365D01*
X001975Y013350D02*
X001100Y012475D01*
X001100Y011935D01*
X001100Y011265D02*
X001100Y010850D01*
X000850Y010600D01*
X000850Y008975D01*
X001225Y008600D01*
X001475Y008600D01*
X001344Y009135D02*
X001110Y009135D01*
X002827Y009927D02*
X003017Y009927D01*
X002972Y009769D02*
X002955Y009769D01*
X002955Y008659D02*
X003048Y008659D01*
X002955Y008501D02*
X003207Y008501D01*
X003418Y008342D02*
X002896Y008342D01*
X002100Y005265D02*
X002100Y004725D01*
X001850Y004475D01*
X001848Y004477D01*
X001100Y004477D01*
X001491Y004063D02*
X001855Y004063D01*
X001705Y004855D02*
X001528Y004855D01*
X003330Y011988D02*
X003578Y011988D01*
X006302Y014999D02*
X006398Y014999D01*
X006398Y015158D02*
X006302Y015158D01*
X007725Y016475D02*
X007975Y016225D01*
X014350Y016225D01*
X013667Y017474D02*
X011389Y017474D01*
X011350Y017435D01*
X011825Y017060D02*
X013273Y017060D01*
X015462Y018328D02*
X017288Y018328D01*
X017386Y018169D02*
X015816Y018169D01*
X018163Y012780D02*
X021465Y012780D01*
X021465Y012622D02*
X018235Y012622D01*
X018802Y012305D02*
X018898Y012305D01*
X018898Y012146D02*
X018802Y012146D01*
X018802Y011988D02*
X018898Y011988D01*
X018850Y011265D02*
X018850Y010600D01*
X018850Y009935D01*
X020200Y010086D02*
X020250Y010086D01*
X020250Y010244D02*
X020192Y010244D01*
X021200Y010244D02*
X021250Y010244D01*
X022475Y009725D02*
X022475Y008600D01*
X020225Y006475D01*
X023225Y008350D02*
X023225Y009265D01*
X009927Y002002D02*
X009773Y002002D01*
X009773Y001844D02*
X009927Y001844D01*
X009927Y001685D02*
X009773Y001685D01*
X009773Y001527D02*
X009927Y001527D01*
X009927Y001368D02*
X009773Y001368D01*
X009341Y003429D02*
X008450Y003429D01*
X008439Y003587D02*
X009314Y003587D01*
X009355Y003746D02*
X008450Y003746D01*
X008450Y003904D02*
X009355Y003904D01*
X009355Y004063D02*
X008450Y004063D01*
X008450Y004221D02*
X009400Y004221D01*
X009408Y004380D02*
X008315Y004380D01*
X008023Y003112D02*
X007927Y003112D01*
X007927Y002953D02*
X008023Y002953D01*
X007808Y005648D02*
X009142Y005648D01*
X008995Y005806D02*
X007955Y005806D01*
X007955Y005965D02*
X008995Y005965D01*
X008995Y006123D02*
X007955Y006123D01*
X007864Y006282D02*
X009086Y006282D01*
X007475Y006282D02*
X007475Y006282D01*
X007475Y006123D02*
X007475Y006123D01*
X007475Y005965D02*
X007475Y005965D01*
X007475Y005806D02*
X007475Y005806D01*
X007475Y005648D02*
X007475Y005648D01*
D44*
X007975Y004850D02*
X009725Y004850D01*
X009788Y004788D01*
X009788Y003475D01*
X009850Y003413D01*
X009850Y004725D01*
X009788Y004788D01*
X009694Y003569D02*
X009850Y003413D01*
X010087Y001287D02*
X013350Y001287D01*
X015600Y001600D02*
X016504Y001600D01*
X018196Y001600D02*
X020356Y001600D01*
X020981Y002225D01*
X007975Y004850D02*
X004975Y004850D01*
X004975Y006725D01*
X003975Y006725D02*
X003975Y004850D01*
X007725Y031875D02*
X007725Y032725D01*
X008640Y032725D01*
D45*
X007725Y032725D03*
X006725Y032600D03*
X005725Y032850D03*
X004725Y032600D03*
X003725Y032600D03*
X002725Y032600D03*
X001725Y032600D03*
X001850Y028100D03*
X003725Y025850D03*
X001850Y023475D03*
X003725Y021475D03*
X001850Y019600D03*
X002100Y017350D03*
X003350Y015350D03*
X003350Y014725D03*
X003350Y014100D03*
X001975Y013350D03*
X001975Y012225D03*
X002475Y010975D03*
X003350Y010725D03*
X003350Y009725D03*
X004475Y009225D03*
X005350Y010850D03*
X005350Y011475D03*
X005350Y012100D03*
X006725Y011850D03*
X006975Y011350D03*
X007350Y012100D03*
X008975Y011475D03*
X009975Y011475D03*
X009975Y010600D03*
X009850Y009475D03*
X010600Y009475D03*
X011350Y009475D03*
X010100Y006725D03*
X009788Y004788D03*
X011600Y005475D03*
X011600Y004100D03*
X011600Y002475D03*
X011600Y000850D03*
X013350Y005225D03*
X015600Y005225D03*
X016475Y002475D03*
X015600Y001600D03*
X015600Y000850D03*
X019725Y000850D03*
X019725Y002475D03*
X019725Y004850D03*
X022100Y007225D03*
X023225Y008350D03*
X025600Y007225D03*
X025600Y011225D03*
X024350Y012475D03*
X024100Y014475D03*
X024100Y016100D03*
X025725Y016100D03*
X025725Y014475D03*
X022350Y016100D03*
X020475Y013850D03*
X020475Y011975D03*
X018850Y010600D03*
X017975Y008475D03*
X018725Y008100D03*
X017100Y008475D03*
X015350Y011350D03*
X014725Y012225D03*
X013600Y013850D03*
X013225Y013225D03*
X014725Y014975D03*
X016225Y012975D03*
X017100Y012725D03*
X017100Y015725D03*
X015600Y017850D03*
X018225Y019600D03*
X019475Y017225D03*
X019475Y015475D03*
X022225Y011975D03*
X020475Y008100D03*
X025600Y000850D03*
X014350Y009350D03*
X014350Y010350D03*
X013975Y007975D03*
X011725Y014975D03*
X011975Y015725D03*
X012600Y016850D03*
X011350Y018725D03*
X009350Y017475D03*
X008350Y017725D03*
X007725Y016475D03*
X007225Y015850D03*
X007850Y015350D03*
X008475Y014600D03*
X009350Y014725D03*
X006475Y017475D03*
X006725Y018725D03*
X006350Y015975D03*
X004975Y014725D03*
X003850Y011725D03*
X006725Y007350D03*
X006725Y005850D03*
X004975Y004850D03*
X003975Y004850D03*
X001850Y004475D03*
X001100Y003100D03*
X002100Y000850D03*
X007850Y000850D03*
X007850Y002475D03*
X008475Y007475D03*
X007850Y008475D03*
X008600Y021475D03*
X008600Y025850D03*
X008225Y028100D03*
X010100Y031725D03*
X012600Y030850D03*
X012475Y028100D03*
X012475Y025850D03*
X014350Y028100D03*
X015725Y028100D03*
X015725Y025850D03*
X018225Y028100D03*
X018225Y023475D03*
X015725Y021475D03*
X012475Y021475D03*
D46*
X015225Y018225D02*
X015600Y017850D01*
X015225Y018225D02*
X007225Y018225D01*
X006475Y017475D01*
X006350Y014140D02*
X006507Y014048D01*
X006507Y013165D01*
X011600Y014100D02*
X012222Y014722D01*
X012446Y014722D01*
X012850Y014722D01*
X012850Y014975D01*
X013254Y014975D01*
X013254Y014978D01*
X013251Y014975D01*
X013254Y014466D02*
X012850Y014466D01*
X012850Y014722D01*
X012446Y014978D02*
X011728Y014978D01*
X011725Y014975D01*
X012446Y015234D02*
X012475Y015262D01*
X012475Y015725D01*
X012600Y012560D02*
X012515Y012475D01*
X012600Y030850D02*
X012600Y032661D01*
D47*
X007975Y004850D02*
X007975Y003935D01*
M02*
