G75*
%MOIN*%
%OFA0B0*%
%FSLAX24Y24*%
%IPPOS*%
%LPD*%
%AMOC8*
5,1,8,0,0,1.08239X$1,22.5*
%
%ADD10C,0.0554*%
%ADD11C,0.0750*%
%ADD12C,0.1050*%
%ADD13C,0.0600*%
%ADD14C,0.0600*%
%ADD15OC8,0.0600*%
%ADD16C,0.0515*%
%ADD17R,0.0515X0.0515*%
%ADD18C,0.0160*%
%ADD19OC8,0.0396*%
%ADD20C,0.0400*%
%ADD21C,0.0120*%
D10*
X017850Y014070D03*
X017850Y016630D03*
D11*
X015725Y031850D03*
D12*
X014721Y030846D03*
X014721Y032854D03*
X016729Y032854D03*
X016729Y030846D03*
D13*
X011525Y013225D02*
X010925Y013225D01*
X010925Y012225D02*
X011525Y012225D01*
X011525Y011225D02*
X010925Y011225D01*
D14*
X001475Y009600D03*
D15*
X001475Y008600D03*
X001475Y007600D03*
X002475Y007600D03*
X002475Y008600D03*
X002475Y009600D03*
D16*
X002725Y029600D03*
X003725Y029600D03*
X004725Y029600D03*
X005725Y029600D03*
X006725Y029600D03*
X007725Y029600D03*
X008725Y029600D03*
X014725Y029600D03*
X015725Y029600D03*
X016725Y029600D03*
X001725Y029600D03*
D17*
X001725Y018600D03*
X017725Y018600D03*
D18*
X026055Y000734D02*
X000645Y000734D01*
X000580Y000799D02*
X000580Y012502D01*
X001578Y011505D01*
X001673Y011465D01*
X002200Y011465D01*
X002318Y011347D01*
X002632Y011347D01*
X002853Y011568D01*
X002853Y011882D01*
X002632Y012103D01*
X002353Y012103D01*
X002353Y012382D01*
X002132Y012603D01*
X001840Y012603D01*
X001360Y013083D01*
X001360Y018195D01*
X001393Y018163D01*
X002057Y018163D01*
X002162Y018268D01*
X002162Y018932D01*
X002057Y019037D01*
X001393Y019037D01*
X001360Y019005D01*
X001360Y029346D01*
X001477Y029229D01*
X001638Y029163D01*
X001812Y029163D01*
X001973Y029229D01*
X002096Y029352D01*
X002162Y029513D01*
X002162Y029687D01*
X002096Y029848D01*
X001973Y029971D01*
X001812Y030037D01*
X001638Y030037D01*
X001477Y029971D01*
X001360Y029854D01*
X001360Y030867D01*
X002715Y032222D01*
X002882Y032222D01*
X003103Y032443D01*
X003103Y032757D01*
X002882Y032978D01*
X002568Y032978D01*
X002347Y032757D01*
X002347Y032590D01*
X000985Y031228D01*
X000985Y031492D01*
X001715Y032222D01*
X001882Y032222D01*
X002103Y032443D01*
X002103Y032757D01*
X001882Y032978D01*
X001568Y032978D01*
X001347Y032757D01*
X001347Y032590D01*
X000580Y031823D01*
X000580Y033151D01*
X000799Y033370D01*
X013475Y033370D01*
X013475Y028725D01*
X018975Y028725D01*
X018975Y017975D01*
X026120Y017975D01*
X026120Y000799D01*
X025901Y000580D01*
X000799Y000580D01*
X000580Y000799D01*
X000580Y000893D02*
X026120Y000893D01*
X026120Y001051D02*
X000580Y001051D01*
X000580Y001210D02*
X026120Y001210D01*
X026120Y001368D02*
X023456Y001368D01*
X023400Y001345D02*
X023723Y001479D01*
X023971Y001727D01*
X024105Y002050D01*
X024105Y002400D01*
X023971Y002723D01*
X023723Y002971D01*
X023400Y003105D01*
X023050Y003105D01*
X022727Y002971D01*
X022479Y002723D01*
X022345Y002400D01*
X022345Y002050D01*
X022479Y001727D01*
X022727Y001479D01*
X023050Y001345D01*
X023400Y001345D01*
X022994Y001368D02*
X015905Y001368D01*
X015922Y001385D02*
X015815Y001278D01*
X015811Y001276D01*
X015757Y001222D01*
X015680Y001222D01*
X015676Y001220D01*
X006024Y001220D01*
X005885Y001278D01*
X003653Y003510D01*
X003595Y003649D01*
X003595Y004926D01*
X003597Y004930D01*
X003597Y005007D01*
X003651Y005061D01*
X003653Y005065D01*
X003760Y005172D01*
X003764Y005174D01*
X003818Y005228D01*
X003895Y005228D01*
X003899Y005230D01*
X004051Y005230D01*
X004055Y005228D01*
X004132Y005228D01*
X004186Y005174D01*
X004190Y005172D01*
X004297Y005065D01*
X004299Y005061D01*
X004353Y005007D01*
X004353Y004930D01*
X004355Y004926D01*
X004355Y003882D01*
X006257Y001980D01*
X015676Y001980D01*
X015680Y001978D01*
X015757Y001978D01*
X015811Y001924D01*
X015815Y001922D01*
X015922Y001815D01*
X015924Y001811D01*
X015978Y001757D01*
X015978Y001680D01*
X015980Y001676D01*
X015980Y001524D01*
X015978Y001520D01*
X015978Y001443D01*
X015924Y001389D01*
X015922Y001385D01*
X015980Y001527D02*
X022679Y001527D01*
X022520Y001685D02*
X015978Y001685D01*
X015894Y001844D02*
X022431Y001844D01*
X022365Y002002D02*
X006235Y002002D01*
X006077Y002161D02*
X016255Y002161D01*
X016318Y002097D02*
X016632Y002097D01*
X016853Y002318D01*
X016853Y002632D01*
X016735Y002750D01*
X016735Y005215D01*
X021402Y005215D01*
X021497Y005255D01*
X021570Y005328D01*
X024570Y008328D01*
X024610Y008423D01*
X024610Y012200D01*
X024728Y012318D01*
X024728Y012632D01*
X024507Y012853D01*
X024193Y012853D01*
X023972Y012632D01*
X023972Y012318D01*
X024090Y012200D01*
X024090Y008583D01*
X021242Y005735D01*
X016583Y005735D01*
X014353Y007965D01*
X014353Y008132D01*
X014132Y008353D01*
X013818Y008353D01*
X013597Y008132D01*
X013597Y007818D01*
X013818Y007597D01*
X013985Y007597D01*
X016215Y005367D01*
X016215Y002750D01*
X016097Y002632D01*
X016097Y002318D01*
X016318Y002097D01*
X016097Y002319D02*
X005918Y002319D01*
X005760Y002478D02*
X016097Y002478D01*
X016101Y002636D02*
X005601Y002636D01*
X005443Y002795D02*
X016215Y002795D01*
X016215Y002953D02*
X005284Y002953D01*
X005126Y003112D02*
X016215Y003112D01*
X016215Y003270D02*
X004967Y003270D01*
X004809Y003429D02*
X016215Y003429D01*
X016215Y003587D02*
X004650Y003587D01*
X004492Y003746D02*
X016215Y003746D01*
X016215Y003904D02*
X004355Y003904D01*
X004355Y004063D02*
X016215Y004063D01*
X016215Y004221D02*
X004355Y004221D01*
X004355Y004380D02*
X016215Y004380D01*
X016215Y004538D02*
X010075Y004538D01*
X010003Y004465D02*
X012797Y007260D01*
X012855Y007399D01*
X012855Y009568D01*
X014257Y010970D01*
X015362Y010970D01*
X015880Y010453D01*
X015953Y010380D01*
X016048Y010340D01*
X018575Y010340D01*
X018693Y010222D01*
X019007Y010222D01*
X019125Y010340D01*
X020867Y010340D01*
X022847Y008360D01*
X022847Y008193D01*
X023068Y007972D01*
X023382Y007972D01*
X023603Y008193D01*
X023603Y008507D01*
X023382Y008728D01*
X023215Y008728D01*
X021195Y010747D01*
X021122Y010820D01*
X021027Y010860D01*
X019125Y010860D01*
X019007Y010978D01*
X018693Y010978D01*
X018575Y010860D01*
X016208Y010860D01*
X015730Y011338D01*
X015730Y016370D01*
X017463Y016370D01*
X017591Y016242D01*
X017759Y016172D01*
X017941Y016172D01*
X018109Y016242D01*
X018238Y016371D01*
X018307Y016539D01*
X018307Y016720D01*
X018238Y016888D01*
X018109Y017017D01*
X017941Y017087D01*
X017759Y017087D01*
X017591Y017017D01*
X017463Y016890D01*
X015598Y016890D01*
X015565Y016922D01*
X014877Y017610D01*
X015305Y017610D01*
X015443Y017472D01*
X015757Y017472D01*
X015978Y017693D01*
X015978Y018007D01*
X015757Y018228D01*
X015443Y018228D01*
X015305Y018090D01*
X014949Y018090D01*
X011965Y021074D01*
X011965Y029876D01*
X012561Y030472D01*
X012757Y030472D01*
X012978Y030693D01*
X012978Y031007D01*
X012757Y031228D01*
X012443Y031228D01*
X012222Y031007D01*
X012222Y030811D01*
X011605Y030194D01*
X011605Y031926D01*
X011547Y032065D01*
X011440Y032172D01*
X010565Y033047D01*
X010426Y033105D01*
X007649Y033105D01*
X007645Y033103D01*
X007568Y033103D01*
X007514Y033049D01*
X007510Y033047D01*
X007403Y032940D01*
X007401Y032936D01*
X007347Y032882D01*
X007347Y032805D01*
X007345Y032801D01*
X007345Y032649D01*
X007347Y032645D01*
X007347Y032568D01*
X007401Y032514D01*
X007403Y032510D01*
X007510Y032403D01*
X007514Y032401D01*
X007568Y032347D01*
X007645Y032347D01*
X007649Y032345D01*
X010193Y032345D01*
X010845Y031693D01*
X010845Y031313D01*
X010820Y031372D01*
X010747Y031445D01*
X010478Y031715D01*
X010478Y031882D01*
X010257Y032103D01*
X009943Y032103D01*
X009722Y031882D01*
X009722Y031596D01*
X009622Y031695D01*
X009527Y031735D01*
X007958Y031735D01*
X007103Y032590D01*
X007103Y032757D01*
X006882Y032978D01*
X006568Y032978D01*
X006347Y032757D01*
X006347Y032443D01*
X006568Y032222D01*
X006735Y032222D01*
X007597Y031360D01*
X006208Y031360D01*
X005103Y032465D01*
X005103Y032757D01*
X004882Y032978D01*
X004568Y032978D01*
X004347Y032757D01*
X004347Y032443D01*
X004568Y032222D01*
X004610Y032222D01*
X005847Y030985D01*
X005708Y030985D01*
X004103Y032590D01*
X004103Y032757D01*
X003882Y032978D01*
X003568Y032978D01*
X003347Y032757D01*
X003347Y032443D01*
X003568Y032222D01*
X003735Y032222D01*
X005453Y030505D01*
X005548Y030465D01*
X009117Y030465D01*
X009215Y030367D01*
X009215Y020208D01*
X007078Y018070D01*
X007005Y017997D01*
X006965Y017902D01*
X006965Y016125D01*
X006847Y016007D01*
X006847Y015693D01*
X006930Y015610D01*
X003625Y015610D01*
X003507Y015728D01*
X003193Y015728D01*
X002972Y015507D01*
X002972Y015193D01*
X003128Y015037D01*
X002972Y014882D01*
X002972Y014568D01*
X003128Y014413D01*
X002972Y014257D01*
X002972Y013943D01*
X003193Y013722D01*
X003360Y013722D01*
X003453Y013630D01*
X003548Y013590D01*
X007374Y013590D01*
X007761Y013235D01*
X006173Y013235D01*
X006078Y013195D01*
X005360Y012478D01*
X005193Y012478D01*
X004972Y012257D01*
X004972Y011943D01*
X005128Y011787D01*
X004972Y011632D01*
X004972Y011318D01*
X005193Y011097D01*
X005507Y011097D01*
X005728Y011318D01*
X005728Y011485D01*
X006583Y012340D01*
X007055Y012340D01*
X006972Y012257D01*
X006972Y011943D01*
X007193Y011722D01*
X007360Y011722D01*
X007465Y011617D01*
X007465Y011228D01*
X007353Y011340D01*
X007353Y011507D01*
X007132Y011728D01*
X006818Y011728D01*
X006597Y011507D01*
X006597Y011193D01*
X006818Y010972D01*
X006985Y010972D01*
X007090Y010867D01*
X007090Y010298D01*
X007130Y010203D01*
X007203Y010130D01*
X008215Y009117D01*
X008215Y007750D01*
X008097Y007632D01*
X008097Y007465D01*
X007492Y006860D01*
X002083Y006860D01*
X001748Y007194D01*
X001955Y007401D01*
X001955Y007799D01*
X001674Y008080D01*
X001276Y008080D01*
X000995Y007799D01*
X000995Y007401D01*
X001215Y007181D01*
X001215Y007048D01*
X001255Y006953D01*
X001328Y006880D01*
X001828Y006380D01*
X001923Y006340D01*
X007652Y006340D01*
X007747Y006380D01*
X007820Y006453D01*
X008465Y007097D01*
X008632Y007097D01*
X008853Y007318D01*
X008853Y007632D01*
X008735Y007750D01*
X008735Y009222D01*
X009130Y008828D01*
X009203Y008755D01*
X009298Y008715D01*
X010902Y008715D01*
X010997Y008755D01*
X011340Y009097D01*
X011507Y009097D01*
X011728Y009318D01*
X011728Y009632D01*
X011507Y009853D01*
X011193Y009853D01*
X010975Y009635D01*
X010757Y009853D01*
X010590Y009853D01*
X010320Y010122D01*
X010247Y010195D01*
X010152Y010235D01*
X010145Y010235D01*
X010250Y010340D01*
X012027Y010340D01*
X012122Y010380D01*
X013372Y011630D01*
X013445Y011703D01*
X013485Y011798D01*
X013485Y012950D01*
X013603Y013068D01*
X013603Y013382D01*
X013382Y013603D01*
X013215Y013603D01*
X012051Y014766D01*
X012103Y014818D01*
X012103Y015132D01*
X011888Y015347D01*
X012132Y015347D01*
X012353Y015568D01*
X012353Y015882D01*
X012132Y016103D01*
X011818Y016103D01*
X011700Y015985D01*
X011423Y015985D01*
X011328Y015945D01*
X009755Y014372D01*
X009715Y014277D01*
X009715Y012575D01*
X009713Y012579D01*
X009695Y012622D01*
X009692Y012626D01*
X009690Y012630D01*
X009656Y012662D01*
X009622Y012695D01*
X009618Y012697D01*
X007781Y014412D01*
X007747Y014445D01*
X007743Y014447D01*
X007740Y014450D01*
X007695Y014467D01*
X007652Y014485D01*
X007647Y014485D01*
X007643Y014487D01*
X007596Y014485D01*
X003958Y014485D01*
X003728Y014715D01*
X003728Y014882D01*
X003572Y015037D01*
X003625Y015090D01*
X007575Y015090D01*
X007693Y014972D01*
X008007Y014972D01*
X008228Y015193D01*
X008228Y015507D01*
X008007Y015728D01*
X007693Y015728D01*
X007575Y015610D01*
X007520Y015610D01*
X007603Y015693D01*
X007603Y016007D01*
X007485Y016125D01*
X007485Y016180D01*
X007568Y016097D01*
X007882Y016097D01*
X008103Y016318D01*
X008103Y016632D01*
X007985Y016750D01*
X007985Y017555D01*
X008193Y017347D01*
X008507Y017347D01*
X008728Y017568D01*
X008728Y017735D01*
X010340Y019347D01*
X010340Y016833D01*
X008485Y014978D01*
X008318Y014978D01*
X008097Y014757D01*
X008097Y014443D01*
X008318Y014222D01*
X008632Y014222D01*
X008853Y014443D01*
X008853Y014610D01*
X010820Y016578D01*
X010860Y016673D01*
X010860Y020613D01*
X010903Y020510D01*
X014970Y016443D01*
X014970Y011730D01*
X014024Y011730D01*
X013885Y011672D01*
X012153Y009940D01*
X012095Y009801D01*
X012095Y007632D01*
X009465Y005003D01*
X009463Y004998D01*
X009409Y004944D01*
X009409Y004868D01*
X009408Y004863D01*
X009408Y004712D01*
X009409Y004707D01*
X009409Y004631D01*
X009463Y004577D01*
X009465Y004572D01*
X009572Y004465D01*
X009577Y004463D01*
X009631Y004409D01*
X009707Y004409D01*
X009712Y004408D01*
X009863Y004408D01*
X009868Y004409D01*
X009944Y004409D01*
X009998Y004463D01*
X010003Y004465D01*
X010234Y004697D02*
X016215Y004697D01*
X016215Y004855D02*
X010392Y004855D01*
X010551Y005014D02*
X016215Y005014D01*
X016215Y005172D02*
X011832Y005172D01*
X011757Y005097D02*
X011443Y005097D01*
X011222Y005318D01*
X011222Y005632D01*
X011443Y005853D01*
X011596Y005853D01*
X012965Y007327D01*
X012965Y008527D01*
X013005Y008622D01*
X013328Y008945D01*
X013423Y008985D01*
X014180Y008985D01*
X013972Y009193D01*
X013972Y009507D01*
X014193Y009728D01*
X014507Y009728D01*
X014625Y009610D01*
X016527Y009610D01*
X016622Y009570D01*
X017247Y008945D01*
X017320Y008872D01*
X017360Y008777D01*
X017360Y008750D01*
X017478Y008632D01*
X017478Y008318D01*
X017257Y008097D01*
X016943Y008097D01*
X016722Y008318D01*
X016722Y008632D01*
X016774Y008684D01*
X016367Y009090D01*
X014625Y009090D01*
X014507Y008972D01*
X014308Y008972D01*
X014372Y008945D01*
X014445Y008872D01*
X015333Y007985D01*
X017617Y007985D01*
X017715Y008083D01*
X017715Y008200D01*
X017597Y008318D01*
X017597Y008632D01*
X017818Y008853D01*
X018132Y008853D01*
X018353Y008632D01*
X018353Y008318D01*
X018235Y008200D01*
X018235Y007923D01*
X018195Y007828D01*
X017945Y007578D01*
X017872Y007505D01*
X017777Y007465D01*
X015173Y007465D01*
X015078Y007505D01*
X014117Y008465D01*
X013583Y008465D01*
X013485Y008367D01*
X013485Y007230D01*
X013487Y007183D01*
X013485Y007178D01*
X013485Y007173D01*
X013467Y007130D01*
X013451Y007086D01*
X013447Y007082D01*
X013445Y007078D01*
X013412Y007045D01*
X011978Y005500D01*
X011978Y005318D01*
X011757Y005097D01*
X011978Y005331D02*
X016215Y005331D01*
X016093Y005489D02*
X011978Y005489D01*
X012115Y005648D02*
X015935Y005648D01*
X015776Y005806D02*
X012262Y005806D01*
X012409Y005965D02*
X015618Y005965D01*
X015459Y006123D02*
X012557Y006123D01*
X012704Y006282D02*
X015301Y006282D01*
X015142Y006440D02*
X012851Y006440D01*
X012998Y006599D02*
X014984Y006599D01*
X014825Y006757D02*
X013145Y006757D01*
X013292Y006916D02*
X014667Y006916D01*
X014508Y007074D02*
X013442Y007074D01*
X013485Y007233D02*
X014350Y007233D01*
X014191Y007391D02*
X013485Y007391D01*
X013485Y007550D02*
X014033Y007550D01*
X013975Y007975D02*
X016475Y005475D01*
X021350Y005475D01*
X024350Y008475D01*
X024350Y012475D01*
X024728Y012463D02*
X026120Y012463D01*
X026120Y012305D02*
X024714Y012305D01*
X024610Y012146D02*
X026120Y012146D01*
X026120Y011988D02*
X024610Y011988D01*
X024610Y011829D02*
X026120Y011829D01*
X026120Y011671D02*
X024610Y011671D01*
X024610Y011512D02*
X026120Y011512D01*
X026120Y011354D02*
X024610Y011354D01*
X024610Y011195D02*
X026120Y011195D01*
X026120Y011037D02*
X024610Y011037D01*
X024610Y010878D02*
X026120Y010878D01*
X026120Y010720D02*
X024610Y010720D01*
X024610Y010561D02*
X026120Y010561D01*
X026120Y010403D02*
X024610Y010403D01*
X024610Y010244D02*
X026120Y010244D01*
X026120Y010086D02*
X024610Y010086D01*
X024610Y009927D02*
X026120Y009927D01*
X026120Y009769D02*
X024610Y009769D01*
X024610Y009610D02*
X026120Y009610D01*
X026120Y009452D02*
X024610Y009452D01*
X024610Y009293D02*
X026120Y009293D01*
X026120Y009135D02*
X024610Y009135D01*
X024610Y008976D02*
X026120Y008976D01*
X026120Y008818D02*
X024610Y008818D01*
X024610Y008659D02*
X026120Y008659D01*
X026120Y008501D02*
X024610Y008501D01*
X024576Y008342D02*
X026120Y008342D01*
X026120Y008184D02*
X024426Y008184D01*
X024268Y008025D02*
X026120Y008025D01*
X026120Y007867D02*
X024109Y007867D01*
X023951Y007708D02*
X026120Y007708D01*
X026120Y007550D02*
X023792Y007550D01*
X023634Y007391D02*
X026120Y007391D01*
X026120Y007233D02*
X023475Y007233D01*
X023317Y007074D02*
X026120Y007074D01*
X026120Y006916D02*
X023158Y006916D01*
X023000Y006757D02*
X026120Y006757D01*
X026120Y006599D02*
X022841Y006599D01*
X022683Y006440D02*
X026120Y006440D01*
X026120Y006282D02*
X022524Y006282D01*
X022366Y006123D02*
X026120Y006123D01*
X026120Y005965D02*
X022207Y005965D01*
X022049Y005806D02*
X026120Y005806D01*
X026120Y005648D02*
X021890Y005648D01*
X021732Y005489D02*
X026120Y005489D01*
X026120Y005331D02*
X021573Y005331D01*
X021313Y005806D02*
X016512Y005806D01*
X016353Y005965D02*
X021472Y005965D01*
X021630Y006123D02*
X016195Y006123D01*
X016036Y006282D02*
X021789Y006282D01*
X021947Y006440D02*
X015878Y006440D01*
X015719Y006599D02*
X022106Y006599D01*
X022264Y006757D02*
X015561Y006757D01*
X015402Y006916D02*
X022423Y006916D01*
X022581Y007074D02*
X015244Y007074D01*
X015085Y007233D02*
X022740Y007233D01*
X022898Y007391D02*
X014927Y007391D01*
X015033Y007550D02*
X014768Y007550D01*
X014874Y007708D02*
X014610Y007708D01*
X014716Y007867D02*
X014451Y007867D01*
X014353Y008025D02*
X014557Y008025D01*
X014399Y008184D02*
X014301Y008184D01*
X014240Y008342D02*
X014143Y008342D01*
X013807Y008342D02*
X013485Y008342D01*
X013485Y008184D02*
X013649Y008184D01*
X013597Y008025D02*
X013485Y008025D01*
X013485Y007867D02*
X013597Y007867D01*
X013707Y007708D02*
X013485Y007708D01*
X012965Y007708D02*
X012855Y007708D01*
X012855Y007550D02*
X012965Y007550D01*
X012965Y007391D02*
X012852Y007391D01*
X012877Y007233D02*
X012770Y007233D01*
X012730Y007074D02*
X012611Y007074D01*
X012583Y006916D02*
X012453Y006916D01*
X012436Y006757D02*
X012294Y006757D01*
X012288Y006599D02*
X012136Y006599D01*
X012141Y006440D02*
X011977Y006440D01*
X011994Y006282D02*
X011819Y006282D01*
X011847Y006123D02*
X011660Y006123D01*
X011700Y005965D02*
X011502Y005965D01*
X011396Y005806D02*
X011343Y005806D01*
X011238Y005648D02*
X011185Y005648D01*
X011222Y005489D02*
X011026Y005489D01*
X010868Y005331D02*
X011222Y005331D01*
X011368Y005172D02*
X010709Y005172D01*
X010269Y005806D02*
X004887Y005806D01*
X004747Y005945D02*
X005122Y005570D01*
X005195Y005497D01*
X005235Y005402D01*
X005235Y005125D01*
X005353Y005007D01*
X005353Y004693D01*
X005132Y004472D01*
X004818Y004472D01*
X004597Y004693D01*
X004597Y005007D01*
X004715Y005125D01*
X004715Y005242D01*
X004492Y005465D01*
X003208Y005465D01*
X002228Y004485D01*
X002228Y004318D01*
X002007Y004097D01*
X001693Y004097D01*
X001472Y004318D01*
X001472Y004632D01*
X001693Y004853D01*
X001860Y004853D01*
X002953Y005945D01*
X003048Y005985D01*
X004652Y005985D01*
X004747Y005945D01*
X004701Y005965D02*
X010427Y005965D01*
X010586Y006123D02*
X000580Y006123D01*
X000580Y005965D02*
X002999Y005965D01*
X002813Y005806D02*
X000580Y005806D01*
X000580Y005648D02*
X002655Y005648D01*
X002496Y005489D02*
X000580Y005489D01*
X000580Y005331D02*
X002338Y005331D01*
X002179Y005172D02*
X000580Y005172D01*
X000580Y005014D02*
X002021Y005014D01*
X001862Y004855D02*
X000580Y004855D01*
X000580Y004697D02*
X001537Y004697D01*
X001472Y004538D02*
X000580Y004538D01*
X000580Y004380D02*
X001472Y004380D01*
X001569Y004221D02*
X000580Y004221D01*
X000580Y004063D02*
X003595Y004063D01*
X003595Y004221D02*
X002131Y004221D01*
X002228Y004380D02*
X003595Y004380D01*
X003595Y004538D02*
X002281Y004538D01*
X002439Y004697D02*
X003595Y004697D01*
X003595Y004855D02*
X002598Y004855D01*
X002756Y005014D02*
X003604Y005014D01*
X003760Y005172D02*
X002915Y005172D01*
X003073Y005331D02*
X004627Y005331D01*
X004715Y005172D02*
X004190Y005172D01*
X004346Y005014D02*
X004604Y005014D01*
X004597Y004855D02*
X004355Y004855D01*
X004355Y004697D02*
X004597Y004697D01*
X004752Y004538D02*
X004355Y004538D01*
X004975Y004850D02*
X004975Y005350D01*
X004600Y005725D01*
X003100Y005725D01*
X001850Y004475D01*
X000580Y003904D02*
X003595Y003904D01*
X003595Y003746D02*
X000580Y003746D01*
X000580Y003587D02*
X003621Y003587D01*
X003734Y003429D02*
X000580Y003429D01*
X000580Y003270D02*
X003893Y003270D01*
X004051Y003112D02*
X000580Y003112D01*
X000580Y002953D02*
X004210Y002953D01*
X004368Y002795D02*
X000580Y002795D01*
X000580Y002636D02*
X004527Y002636D01*
X004685Y002478D02*
X000580Y002478D01*
X000580Y002319D02*
X004844Y002319D01*
X005002Y002161D02*
X000580Y002161D01*
X000580Y002002D02*
X005161Y002002D01*
X005319Y001844D02*
X000580Y001844D01*
X000580Y001685D02*
X005478Y001685D01*
X005636Y001527D02*
X000580Y001527D01*
X000580Y001368D02*
X005795Y001368D01*
X005198Y004538D02*
X009500Y004538D01*
X009409Y004697D02*
X005353Y004697D01*
X005353Y004855D02*
X009408Y004855D01*
X009476Y005014D02*
X005346Y005014D01*
X005235Y005172D02*
X009635Y005172D01*
X009793Y005331D02*
X005235Y005331D01*
X005199Y005489D02*
X009952Y005489D01*
X010110Y005648D02*
X005045Y005648D01*
X003497Y008380D02*
X003997Y008880D01*
X004070Y008953D01*
X004110Y009048D01*
X004110Y010277D01*
X004070Y010372D01*
X003728Y010715D01*
X003728Y010882D01*
X003507Y011103D01*
X003193Y011103D01*
X002972Y010882D01*
X002972Y010568D01*
X003055Y010485D01*
X001173Y010485D01*
X001078Y010445D01*
X000703Y010070D01*
X000630Y009997D01*
X000590Y009902D01*
X000590Y008923D01*
X000630Y008828D01*
X000995Y008462D01*
X000995Y008401D01*
X001276Y008120D01*
X001674Y008120D01*
X001955Y008401D01*
X001955Y008799D01*
X001674Y009080D01*
X001276Y009080D01*
X001194Y008998D01*
X001110Y009083D01*
X001110Y009286D01*
X001203Y009193D01*
X001380Y009120D01*
X001570Y009120D01*
X001747Y009193D01*
X001882Y009328D01*
X001955Y009505D01*
X001955Y009695D01*
X001882Y009872D01*
X001789Y009965D01*
X002161Y009965D01*
X001995Y009799D01*
X001995Y009401D01*
X002276Y009120D01*
X002674Y009120D01*
X002955Y009401D01*
X002955Y009799D01*
X002789Y009965D01*
X002992Y009965D01*
X003024Y009934D01*
X002972Y009882D01*
X002972Y009568D01*
X003193Y009347D01*
X003507Y009347D01*
X003590Y009430D01*
X003590Y009208D01*
X003242Y008860D01*
X002894Y008860D01*
X002674Y009080D01*
X002276Y009080D01*
X001995Y008799D01*
X001995Y008401D01*
X002276Y008120D01*
X002674Y008120D01*
X002894Y008340D01*
X003402Y008340D01*
X003497Y008380D01*
X003407Y008342D02*
X008215Y008342D01*
X008215Y008184D02*
X002737Y008184D01*
X002674Y008080D02*
X002955Y007799D01*
X002955Y007620D01*
X002495Y007620D01*
X002455Y007620D01*
X002455Y008080D01*
X002276Y008080D01*
X001995Y007799D01*
X001995Y007620D01*
X002455Y007620D01*
X002455Y007580D01*
X001995Y007580D01*
X001995Y007401D01*
X002276Y007120D01*
X002455Y007120D01*
X002455Y007580D01*
X002495Y007580D01*
X002495Y007620D01*
X002495Y008080D01*
X002674Y008080D01*
X002729Y008025D02*
X008215Y008025D01*
X008215Y007867D02*
X002887Y007867D01*
X002955Y007708D02*
X008173Y007708D01*
X008097Y007550D02*
X002955Y007550D01*
X002955Y007580D02*
X002495Y007580D01*
X002495Y007120D01*
X002674Y007120D01*
X002955Y007401D01*
X002955Y007580D01*
X002945Y007391D02*
X008023Y007391D01*
X007865Y007233D02*
X002786Y007233D01*
X002495Y007233D02*
X002455Y007233D01*
X002455Y007391D02*
X002495Y007391D01*
X002495Y007550D02*
X002455Y007550D01*
X002455Y007708D02*
X002495Y007708D01*
X002495Y007867D02*
X002455Y007867D01*
X002455Y008025D02*
X002495Y008025D01*
X002221Y008025D02*
X001729Y008025D01*
X001737Y008184D02*
X002213Y008184D01*
X002054Y008342D02*
X001896Y008342D01*
X001955Y008501D02*
X001995Y008501D01*
X001995Y008659D02*
X001955Y008659D01*
X001936Y008818D02*
X002014Y008818D01*
X002172Y008976D02*
X001778Y008976D01*
X001606Y009135D02*
X002262Y009135D01*
X002103Y009293D02*
X001847Y009293D01*
X001933Y009452D02*
X001995Y009452D01*
X001995Y009610D02*
X001955Y009610D01*
X001925Y009769D02*
X001995Y009769D01*
X002123Y009927D02*
X001827Y009927D01*
X001225Y010225D02*
X000850Y009850D01*
X000850Y008975D01*
X001225Y008600D01*
X001475Y008600D01*
X001213Y008184D02*
X000580Y008184D01*
X000580Y008342D02*
X001054Y008342D01*
X000957Y008501D02*
X000580Y008501D01*
X000580Y008659D02*
X000798Y008659D01*
X000640Y008818D02*
X000580Y008818D01*
X000580Y008976D02*
X000590Y008976D01*
X000580Y009135D02*
X000590Y009135D01*
X000580Y009293D02*
X000590Y009293D01*
X000580Y009452D02*
X000590Y009452D01*
X000580Y009610D02*
X000590Y009610D01*
X000580Y009769D02*
X000590Y009769D01*
X000580Y009927D02*
X000600Y009927D01*
X000580Y010086D02*
X000718Y010086D01*
X000580Y010244D02*
X000876Y010244D01*
X001035Y010403D02*
X000580Y010403D01*
X000580Y010561D02*
X002979Y010561D01*
X002972Y010720D02*
X000580Y010720D01*
X000580Y010878D02*
X002972Y010878D01*
X003127Y011037D02*
X000580Y011037D01*
X000580Y011195D02*
X005095Y011195D01*
X004972Y011354D02*
X002638Y011354D01*
X002797Y011512D02*
X004972Y011512D01*
X005011Y011671D02*
X002853Y011671D01*
X002853Y011829D02*
X005086Y011829D01*
X004972Y011988D02*
X002747Y011988D01*
X002475Y011725D02*
X001725Y011725D01*
X000725Y012725D01*
X000725Y031600D01*
X001725Y032600D01*
X002103Y032593D02*
X002347Y032593D01*
X002347Y032751D02*
X002103Y032751D01*
X001950Y032910D02*
X002500Y032910D01*
X002725Y032600D02*
X001100Y030975D01*
X001100Y012975D01*
X001850Y012225D01*
X001975Y012225D01*
X002272Y012463D02*
X005178Y012463D01*
X005020Y012305D02*
X002353Y012305D01*
X002353Y012146D02*
X004972Y012146D01*
X005350Y012100D02*
X006225Y012975D01*
X007850Y012975D01*
X008475Y012350D01*
X008475Y011100D01*
X009600Y009975D01*
X010100Y009975D01*
X010600Y009475D01*
X010841Y009769D02*
X011109Y009769D01*
X011350Y009475D02*
X010850Y008975D01*
X009350Y008975D01*
X007725Y010600D01*
X007725Y011725D01*
X007350Y012100D01*
X007086Y011829D02*
X006072Y011829D01*
X006230Y011988D02*
X006972Y011988D01*
X006972Y012146D02*
X006389Y012146D01*
X006547Y012305D02*
X007020Y012305D01*
X006475Y012600D02*
X005350Y011475D01*
X005605Y011195D02*
X006597Y011195D01*
X006597Y011354D02*
X005728Y011354D01*
X005755Y011512D02*
X006602Y011512D01*
X006761Y011671D02*
X005913Y011671D01*
X005504Y012622D02*
X001821Y012622D01*
X001663Y012780D02*
X005662Y012780D01*
X005821Y012939D02*
X001504Y012939D01*
X001360Y013097D02*
X001693Y013097D01*
X001597Y013193D02*
X001818Y012972D01*
X002132Y012972D01*
X002353Y013193D01*
X002353Y013507D01*
X002215Y013645D01*
X002215Y014997D01*
X004571Y017235D01*
X006180Y017235D01*
X006318Y017097D01*
X006632Y017097D01*
X006853Y017318D01*
X006853Y017632D01*
X006632Y017853D01*
X006318Y017853D01*
X006180Y017715D01*
X004478Y017715D01*
X004433Y017716D01*
X004430Y017715D01*
X004427Y017715D01*
X004386Y017698D01*
X004344Y017682D01*
X004342Y017680D01*
X004339Y017678D01*
X004307Y017647D01*
X001842Y015305D01*
X001839Y015303D01*
X001807Y015272D01*
X001775Y015241D01*
X001774Y015238D01*
X001772Y015236D01*
X001754Y015195D01*
X001736Y015154D01*
X001736Y015151D01*
X001735Y015148D01*
X001735Y015103D01*
X001734Y015058D01*
X001735Y015055D01*
X001735Y013645D01*
X001597Y013507D01*
X001597Y013193D01*
X001597Y013256D02*
X001360Y013256D01*
X001360Y013414D02*
X001597Y013414D01*
X001663Y013573D02*
X001360Y013573D01*
X001360Y013731D02*
X001735Y013731D01*
X001735Y013890D02*
X001360Y013890D01*
X001360Y014048D02*
X001735Y014048D01*
X001735Y014207D02*
X001360Y014207D01*
X001360Y014365D02*
X001735Y014365D01*
X001735Y014524D02*
X001360Y014524D01*
X001360Y014682D02*
X001735Y014682D01*
X001735Y014841D02*
X001360Y014841D01*
X001360Y014999D02*
X001735Y014999D01*
X001738Y015158D02*
X001360Y015158D01*
X001360Y015316D02*
X001854Y015316D01*
X002021Y015475D02*
X001360Y015475D01*
X001360Y015633D02*
X002188Y015633D01*
X002354Y015792D02*
X001360Y015792D01*
X001360Y015950D02*
X002521Y015950D01*
X002688Y016109D02*
X001360Y016109D01*
X001360Y016267D02*
X002855Y016267D01*
X003022Y016426D02*
X001360Y016426D01*
X001360Y016584D02*
X003189Y016584D01*
X003356Y016743D02*
X001360Y016743D01*
X001360Y016901D02*
X003522Y016901D01*
X003689Y017060D02*
X001360Y017060D01*
X001360Y017218D02*
X003856Y017218D01*
X004023Y017377D02*
X001360Y017377D01*
X001360Y017535D02*
X004190Y017535D01*
X004375Y017694D02*
X001360Y017694D01*
X001360Y017852D02*
X006317Y017852D01*
X006633Y017852D02*
X006965Y017852D01*
X006965Y017694D02*
X006791Y017694D01*
X006853Y017535D02*
X006965Y017535D01*
X006965Y017377D02*
X006853Y017377D01*
X006753Y017218D02*
X006965Y017218D01*
X006965Y017060D02*
X004386Y017060D01*
X004553Y017218D02*
X006197Y017218D01*
X006965Y016901D02*
X004219Y016901D01*
X004052Y016743D02*
X006965Y016743D01*
X006965Y016584D02*
X003886Y016584D01*
X003719Y016426D02*
X006965Y016426D01*
X006965Y016267D02*
X003552Y016267D01*
X003385Y016109D02*
X006949Y016109D01*
X006847Y015950D02*
X003218Y015950D01*
X003051Y015792D02*
X006847Y015792D01*
X006907Y015633D02*
X003602Y015633D01*
X003350Y015350D02*
X007850Y015350D01*
X008102Y015633D02*
X009140Y015633D01*
X008982Y015475D02*
X008228Y015475D01*
X008228Y015316D02*
X008823Y015316D01*
X008665Y015158D02*
X008192Y015158D01*
X008034Y014999D02*
X008506Y014999D01*
X008181Y014841D02*
X003728Y014841D01*
X003761Y014682D02*
X008097Y014682D01*
X008097Y014524D02*
X003919Y014524D01*
X003850Y014225D02*
X007600Y014225D01*
X009475Y012475D01*
X009475Y011100D01*
X009975Y010600D01*
X011975Y010600D01*
X013225Y011850D01*
X013225Y013225D01*
X011725Y014725D01*
X011725Y014975D01*
X011465Y014700D02*
X011465Y014673D01*
X011505Y014578D01*
X011578Y014505D01*
X012847Y013235D01*
X012847Y013068D01*
X012965Y012950D01*
X012965Y011958D01*
X011867Y010860D01*
X011839Y010860D01*
X011932Y010953D01*
X012005Y011130D01*
X012005Y011320D01*
X011932Y011497D01*
X011797Y011632D01*
X011620Y011705D01*
X010830Y011705D01*
X010653Y011632D01*
X010518Y011497D01*
X010445Y011320D01*
X010445Y011130D01*
X010518Y010953D01*
X010611Y010860D01*
X010250Y010860D01*
X010132Y010978D01*
X009965Y010978D01*
X009846Y011097D01*
X010132Y011097D01*
X010353Y011318D01*
X010353Y011632D01*
X010235Y011750D01*
X010235Y014117D01*
X011583Y015465D01*
X011700Y015465D01*
X011812Y015353D01*
X011568Y015353D01*
X011347Y015132D01*
X011347Y014818D01*
X011465Y014700D01*
X011465Y014682D02*
X010800Y014682D01*
X010958Y014841D02*
X011347Y014841D01*
X011347Y014999D02*
X011117Y014999D01*
X011275Y015158D02*
X011373Y015158D01*
X011434Y015316D02*
X011531Y015316D01*
X011919Y015316D02*
X014970Y015316D01*
X014970Y015158D02*
X012077Y015158D01*
X012103Y014999D02*
X014970Y014999D01*
X014970Y014841D02*
X012103Y014841D01*
X012136Y014682D02*
X014970Y014682D01*
X014970Y014524D02*
X012294Y014524D01*
X012453Y014365D02*
X014970Y014365D01*
X014970Y014207D02*
X012611Y014207D01*
X012770Y014048D02*
X014970Y014048D01*
X014970Y013890D02*
X012928Y013890D01*
X013087Y013731D02*
X014970Y013731D01*
X014970Y013573D02*
X013412Y013573D01*
X013571Y013414D02*
X014970Y013414D01*
X014970Y013256D02*
X013603Y013256D01*
X013603Y013097D02*
X014970Y013097D01*
X014970Y012939D02*
X013485Y012939D01*
X013485Y012780D02*
X014970Y012780D01*
X014970Y012622D02*
X013485Y012622D01*
X013485Y012463D02*
X014970Y012463D01*
X014970Y012305D02*
X013485Y012305D01*
X013485Y012146D02*
X014970Y012146D01*
X014970Y011988D02*
X013485Y011988D01*
X013485Y011829D02*
X014970Y011829D01*
X015350Y011350D02*
X016100Y010600D01*
X018850Y010600D01*
X020975Y010600D01*
X023225Y008350D01*
X023603Y008342D02*
X023849Y008342D01*
X023691Y008184D02*
X023593Y008184D01*
X023532Y008025D02*
X023435Y008025D01*
X023374Y007867D02*
X018211Y007867D01*
X018235Y008025D02*
X023015Y008025D01*
X022857Y008184D02*
X018235Y008184D01*
X018353Y008342D02*
X022847Y008342D01*
X022707Y008501D02*
X018353Y008501D01*
X018326Y008659D02*
X022548Y008659D01*
X022390Y008818D02*
X018167Y008818D01*
X017783Y008818D02*
X017343Y008818D01*
X017451Y008659D02*
X017624Y008659D01*
X017597Y008501D02*
X017478Y008501D01*
X017478Y008342D02*
X017597Y008342D01*
X017715Y008184D02*
X017343Y008184D01*
X017657Y008025D02*
X015293Y008025D01*
X015134Y008184D02*
X016857Y008184D01*
X016722Y008342D02*
X014976Y008342D01*
X014817Y008501D02*
X016722Y008501D01*
X016749Y008659D02*
X014659Y008659D01*
X014500Y008818D02*
X016640Y008818D01*
X016481Y008976D02*
X014511Y008976D01*
X014225Y008725D02*
X013475Y008725D01*
X013225Y008475D01*
X013225Y007225D01*
X011600Y005475D01*
X010903Y006440D02*
X007808Y006440D01*
X007966Y006599D02*
X011061Y006599D01*
X011220Y006757D02*
X008125Y006757D01*
X008283Y006916D02*
X011378Y006916D01*
X011537Y007074D02*
X008442Y007074D01*
X008767Y007233D02*
X011695Y007233D01*
X011854Y007391D02*
X008853Y007391D01*
X008853Y007550D02*
X012012Y007550D01*
X012095Y007708D02*
X008777Y007708D01*
X008735Y007867D02*
X012095Y007867D01*
X012095Y008025D02*
X008735Y008025D01*
X008735Y008184D02*
X012095Y008184D01*
X012095Y008342D02*
X008735Y008342D01*
X008735Y008501D02*
X012095Y008501D01*
X012095Y008659D02*
X008735Y008659D01*
X008735Y008818D02*
X009140Y008818D01*
X008981Y008976D02*
X008735Y008976D01*
X008735Y009135D02*
X008823Y009135D01*
X008475Y009225D02*
X007350Y010350D01*
X007350Y010975D01*
X006975Y011350D01*
X006754Y011037D02*
X003573Y011037D01*
X003728Y010878D02*
X007079Y010878D01*
X007090Y010720D02*
X003728Y010720D01*
X003882Y010561D02*
X007090Y010561D01*
X007090Y010403D02*
X004040Y010403D01*
X004110Y010244D02*
X007112Y010244D01*
X007247Y010086D02*
X004110Y010086D01*
X004110Y009927D02*
X007405Y009927D01*
X007564Y009769D02*
X004110Y009769D01*
X004110Y009610D02*
X007722Y009610D01*
X007881Y009452D02*
X004110Y009452D01*
X004110Y009293D02*
X008039Y009293D01*
X008198Y009135D02*
X004110Y009135D01*
X004080Y008976D02*
X008215Y008976D01*
X008215Y008818D02*
X003935Y008818D01*
X003777Y008659D02*
X008215Y008659D01*
X008215Y008501D02*
X003618Y008501D01*
X003350Y008600D02*
X003850Y009100D01*
X003850Y010225D01*
X003350Y010725D01*
X003100Y010225D02*
X001225Y010225D01*
X001110Y009135D02*
X001344Y009135D01*
X001221Y008025D02*
X000580Y008025D01*
X000580Y007867D02*
X001063Y007867D01*
X000995Y007708D02*
X000580Y007708D01*
X000580Y007550D02*
X000995Y007550D01*
X001005Y007391D02*
X000580Y007391D01*
X000580Y007233D02*
X001164Y007233D01*
X001215Y007074D02*
X000580Y007074D01*
X000580Y006916D02*
X001292Y006916D01*
X001450Y006757D02*
X000580Y006757D01*
X000580Y006599D02*
X001609Y006599D01*
X001767Y006440D02*
X000580Y006440D01*
X000580Y006282D02*
X010744Y006282D01*
X011060Y008818D02*
X012095Y008818D01*
X012095Y008976D02*
X011219Y008976D01*
X011544Y009135D02*
X012095Y009135D01*
X012095Y009293D02*
X011703Y009293D01*
X011728Y009452D02*
X012095Y009452D01*
X012095Y009610D02*
X011728Y009610D01*
X011591Y009769D02*
X012095Y009769D01*
X012147Y009927D02*
X010516Y009927D01*
X010357Y010086D02*
X012298Y010086D01*
X012457Y010244D02*
X010154Y010244D01*
X010232Y010878D02*
X010593Y010878D01*
X010484Y011037D02*
X009906Y011037D01*
X010230Y011195D02*
X010445Y011195D01*
X010459Y011354D02*
X010353Y011354D01*
X010353Y011512D02*
X010533Y011512D01*
X010746Y011671D02*
X010314Y011671D01*
X010235Y011829D02*
X010642Y011829D01*
X010653Y011818D02*
X010830Y011745D01*
X011620Y011745D01*
X011797Y011818D01*
X011932Y011953D01*
X012005Y012130D01*
X012005Y012320D01*
X011932Y012497D01*
X011797Y012632D01*
X011620Y012705D01*
X010830Y012705D01*
X010653Y012632D01*
X010518Y012497D01*
X010445Y012320D01*
X010445Y012130D01*
X010518Y011953D01*
X010653Y011818D01*
X010504Y011988D02*
X010235Y011988D01*
X010235Y012146D02*
X010445Y012146D01*
X010445Y012305D02*
X010235Y012305D01*
X010235Y012463D02*
X010504Y012463D01*
X010643Y012622D02*
X010235Y012622D01*
X010235Y012780D02*
X010741Y012780D01*
X010813Y012757D01*
X010887Y012745D01*
X011205Y012745D01*
X011205Y013205D01*
X011245Y013205D01*
X011245Y013245D01*
X011205Y013245D01*
X011205Y013705D01*
X010887Y013705D01*
X010813Y013693D01*
X010741Y013670D01*
X010673Y013636D01*
X010612Y013591D01*
X010559Y013538D01*
X010514Y013477D01*
X010480Y013409D01*
X010457Y013337D01*
X010445Y013263D01*
X010445Y013245D01*
X011205Y013245D01*
X011205Y013205D01*
X010445Y013205D01*
X010445Y013187D01*
X010457Y013113D01*
X010480Y013041D01*
X010514Y012973D01*
X010559Y012912D01*
X010612Y012859D01*
X010673Y012814D01*
X010741Y012780D01*
X010540Y012939D02*
X010235Y012939D01*
X010235Y013097D02*
X010462Y013097D01*
X010445Y013256D02*
X010235Y013256D01*
X010235Y013414D02*
X010483Y013414D01*
X010594Y013573D02*
X010235Y013573D01*
X010235Y013731D02*
X012351Y013731D01*
X012193Y013890D02*
X010235Y013890D01*
X010235Y014048D02*
X012034Y014048D01*
X011876Y014207D02*
X010324Y014207D01*
X010483Y014365D02*
X011717Y014365D01*
X011559Y014524D02*
X010641Y014524D01*
X010223Y014841D02*
X009083Y014841D01*
X009242Y014999D02*
X010381Y014999D01*
X010540Y015158D02*
X009400Y015158D01*
X009559Y015316D02*
X010698Y015316D01*
X010857Y015475D02*
X009717Y015475D01*
X009876Y015633D02*
X011015Y015633D01*
X011174Y015792D02*
X010034Y015792D01*
X010193Y015950D02*
X011339Y015950D01*
X011475Y015725D02*
X009975Y014225D01*
X009975Y011475D01*
X008975Y011475D02*
X008975Y012475D01*
X007475Y013850D01*
X003600Y013850D01*
X003350Y014100D01*
X003080Y014365D02*
X002215Y014365D01*
X002215Y014207D02*
X002972Y014207D01*
X002972Y014048D02*
X002215Y014048D01*
X002215Y013890D02*
X003026Y013890D01*
X003184Y013731D02*
X002215Y013731D01*
X002287Y013573D02*
X007393Y013573D01*
X007566Y013414D02*
X002353Y013414D01*
X002353Y013256D02*
X007739Y013256D01*
X007600Y012600D02*
X006475Y012600D01*
X005979Y013097D02*
X002257Y013097D01*
X002215Y014524D02*
X003017Y014524D01*
X002972Y014682D02*
X002215Y014682D01*
X002215Y014841D02*
X002972Y014841D01*
X003089Y014999D02*
X002217Y014999D01*
X002384Y015158D02*
X003008Y015158D01*
X002972Y015316D02*
X002551Y015316D01*
X002718Y015475D02*
X002972Y015475D01*
X002885Y015633D02*
X003098Y015633D01*
X003611Y014999D02*
X007666Y014999D01*
X007598Y015633D02*
X007543Y015633D01*
X007603Y015792D02*
X009299Y015792D01*
X009457Y015950D02*
X007603Y015950D01*
X007557Y016109D02*
X007501Y016109D01*
X007225Y015850D02*
X007225Y017850D01*
X009475Y020100D01*
X009475Y030475D01*
X009225Y030725D01*
X005600Y030725D01*
X003725Y032600D01*
X003347Y032593D02*
X003103Y032593D01*
X003103Y032751D02*
X003347Y032751D01*
X003500Y032910D02*
X002950Y032910D01*
X003094Y032434D02*
X003356Y032434D01*
X003515Y032276D02*
X002935Y032276D01*
X002610Y032117D02*
X003840Y032117D01*
X003999Y031959D02*
X002451Y031959D01*
X002293Y031800D02*
X004157Y031800D01*
X004316Y031642D02*
X002134Y031642D01*
X001976Y031483D02*
X004474Y031483D01*
X004633Y031325D02*
X001817Y031325D01*
X001659Y031166D02*
X004791Y031166D01*
X004950Y031008D02*
X001500Y031008D01*
X001360Y030849D02*
X005108Y030849D01*
X005267Y030691D02*
X001360Y030691D01*
X001360Y030532D02*
X005425Y030532D01*
X005638Y030037D02*
X005477Y029971D01*
X005354Y029848D01*
X005288Y029687D01*
X005288Y029513D01*
X005354Y029352D01*
X005477Y029229D01*
X005638Y029163D01*
X005812Y029163D01*
X005973Y029229D01*
X006096Y029352D01*
X006162Y029513D01*
X006162Y029687D01*
X006096Y029848D01*
X005973Y029971D01*
X005812Y030037D01*
X005638Y030037D01*
X005404Y029898D02*
X005046Y029898D01*
X005096Y029848D02*
X004973Y029971D01*
X004812Y030037D01*
X004638Y030037D01*
X004477Y029971D01*
X004354Y029848D01*
X004288Y029687D01*
X004288Y029513D01*
X004354Y029352D01*
X004477Y029229D01*
X004638Y029163D01*
X004812Y029163D01*
X004973Y029229D01*
X005096Y029352D01*
X005162Y029513D01*
X005162Y029687D01*
X005096Y029848D01*
X005141Y029740D02*
X005309Y029740D01*
X005288Y029581D02*
X005162Y029581D01*
X005125Y029423D02*
X005325Y029423D01*
X005442Y029264D02*
X005008Y029264D01*
X004442Y029264D02*
X004008Y029264D01*
X003973Y029229D02*
X004096Y029352D01*
X004162Y029513D01*
X004162Y029687D01*
X004096Y029848D01*
X003973Y029971D01*
X003812Y030037D01*
X003638Y030037D01*
X003477Y029971D01*
X003354Y029848D01*
X003288Y029687D01*
X003288Y029513D01*
X003354Y029352D01*
X003477Y029229D01*
X003638Y029163D01*
X003812Y029163D01*
X003973Y029229D01*
X004125Y029423D02*
X004325Y029423D01*
X004288Y029581D02*
X004162Y029581D01*
X004141Y029740D02*
X004309Y029740D01*
X004404Y029898D02*
X004046Y029898D01*
X003404Y029898D02*
X003046Y029898D01*
X003096Y029848D02*
X002973Y029971D01*
X002812Y030037D01*
X002638Y030037D01*
X002477Y029971D01*
X002354Y029848D01*
X002288Y029687D01*
X002288Y029513D01*
X002354Y029352D01*
X002477Y029229D01*
X002638Y029163D01*
X002812Y029163D01*
X002973Y029229D01*
X003096Y029352D01*
X003162Y029513D01*
X003162Y029687D01*
X003096Y029848D01*
X003141Y029740D02*
X003309Y029740D01*
X003288Y029581D02*
X003162Y029581D01*
X003125Y029423D02*
X003325Y029423D01*
X003442Y029264D02*
X003008Y029264D01*
X002442Y029264D02*
X002008Y029264D01*
X002125Y029423D02*
X002325Y029423D01*
X002288Y029581D02*
X002162Y029581D01*
X002141Y029740D02*
X002309Y029740D01*
X002404Y029898D02*
X002046Y029898D01*
X001404Y029898D02*
X001360Y029898D01*
X001360Y030057D02*
X009215Y030057D01*
X009215Y030215D02*
X001360Y030215D01*
X001360Y030374D02*
X009209Y030374D01*
X008973Y029971D02*
X008812Y030037D01*
X008638Y030037D01*
X008477Y029971D01*
X008354Y029848D01*
X008288Y029687D01*
X008288Y029513D01*
X008354Y029352D01*
X008477Y029229D01*
X008638Y029163D01*
X008812Y029163D01*
X008973Y029229D01*
X009096Y029352D01*
X009162Y029513D01*
X009162Y029687D01*
X009096Y029848D01*
X008973Y029971D01*
X009046Y029898D02*
X009215Y029898D01*
X009215Y029740D02*
X009141Y029740D01*
X009162Y029581D02*
X009215Y029581D01*
X009215Y029423D02*
X009125Y029423D01*
X009215Y029264D02*
X009008Y029264D01*
X009215Y029106D02*
X001360Y029106D01*
X001360Y029264D02*
X001442Y029264D01*
X001360Y028947D02*
X009215Y028947D01*
X009215Y028789D02*
X001360Y028789D01*
X001360Y028630D02*
X009215Y028630D01*
X009215Y028472D02*
X001360Y028472D01*
X001360Y028313D02*
X009215Y028313D01*
X009215Y028155D02*
X001360Y028155D01*
X001360Y027996D02*
X009215Y027996D01*
X009215Y027838D02*
X001360Y027838D01*
X001360Y027679D02*
X009215Y027679D01*
X009215Y027521D02*
X001360Y027521D01*
X001360Y027362D02*
X009215Y027362D01*
X009215Y027204D02*
X001360Y027204D01*
X001360Y027045D02*
X009215Y027045D01*
X009215Y026887D02*
X001360Y026887D01*
X001360Y026728D02*
X009215Y026728D01*
X009215Y026570D02*
X001360Y026570D01*
X001360Y026411D02*
X009215Y026411D01*
X009215Y026253D02*
X001360Y026253D01*
X001360Y026094D02*
X009215Y026094D01*
X009215Y025936D02*
X001360Y025936D01*
X001360Y025777D02*
X009215Y025777D01*
X009215Y025619D02*
X001360Y025619D01*
X001360Y025460D02*
X009215Y025460D01*
X009215Y025302D02*
X001360Y025302D01*
X001360Y025143D02*
X009215Y025143D01*
X009215Y024985D02*
X001360Y024985D01*
X001360Y024826D02*
X009215Y024826D01*
X009215Y024668D02*
X001360Y024668D01*
X001360Y024509D02*
X009215Y024509D01*
X009215Y024351D02*
X001360Y024351D01*
X001360Y024192D02*
X009215Y024192D01*
X009215Y024034D02*
X001360Y024034D01*
X001360Y023875D02*
X009215Y023875D01*
X009215Y023717D02*
X001360Y023717D01*
X001360Y023558D02*
X009215Y023558D01*
X009215Y023400D02*
X001360Y023400D01*
X001360Y023241D02*
X009215Y023241D01*
X009215Y023083D02*
X001360Y023083D01*
X001360Y022924D02*
X009215Y022924D01*
X009215Y022766D02*
X001360Y022766D01*
X001360Y022607D02*
X009215Y022607D01*
X009215Y022449D02*
X001360Y022449D01*
X001360Y022290D02*
X009215Y022290D01*
X009215Y022132D02*
X001360Y022132D01*
X001360Y021973D02*
X009215Y021973D01*
X009215Y021815D02*
X001360Y021815D01*
X001360Y021656D02*
X009215Y021656D01*
X009215Y021498D02*
X001360Y021498D01*
X001360Y021339D02*
X009215Y021339D01*
X009215Y021181D02*
X001360Y021181D01*
X001360Y021022D02*
X009215Y021022D01*
X009215Y020864D02*
X001360Y020864D01*
X001360Y020705D02*
X009215Y020705D01*
X009215Y020547D02*
X001360Y020547D01*
X001360Y020388D02*
X009215Y020388D01*
X009215Y020230D02*
X001360Y020230D01*
X001360Y020071D02*
X009078Y020071D01*
X008920Y019913D02*
X001360Y019913D01*
X001360Y019754D02*
X008761Y019754D01*
X008603Y019596D02*
X001360Y019596D01*
X001360Y019437D02*
X008444Y019437D01*
X008286Y019279D02*
X001360Y019279D01*
X001360Y019120D02*
X008127Y019120D01*
X007969Y018962D02*
X002133Y018962D01*
X002162Y018803D02*
X007810Y018803D01*
X007652Y018645D02*
X002162Y018645D01*
X002162Y018486D02*
X007493Y018486D01*
X007335Y018328D02*
X002162Y018328D01*
X002064Y018169D02*
X007176Y018169D01*
X007018Y018011D02*
X001360Y018011D01*
X001360Y018169D02*
X001386Y018169D01*
X003350Y014725D02*
X003850Y014225D01*
X002312Y011354D02*
X000580Y011354D01*
X000580Y011512D02*
X001570Y011512D01*
X001412Y011671D02*
X000580Y011671D01*
X000580Y011829D02*
X001253Y011829D01*
X001095Y011988D02*
X000580Y011988D01*
X000580Y012146D02*
X000936Y012146D01*
X000778Y012305D02*
X000580Y012305D01*
X000580Y012463D02*
X000619Y012463D01*
X002827Y009927D02*
X003017Y009927D01*
X002972Y009769D02*
X002955Y009769D01*
X002955Y009610D02*
X002972Y009610D01*
X002955Y009452D02*
X003089Y009452D01*
X002847Y009293D02*
X003590Y009293D01*
X003517Y009135D02*
X002688Y009135D01*
X002778Y008976D02*
X003358Y008976D01*
X003350Y008600D02*
X002475Y008600D01*
X002063Y007867D02*
X001887Y007867D01*
X001955Y007708D02*
X001995Y007708D01*
X001995Y007550D02*
X001955Y007550D01*
X001945Y007391D02*
X002005Y007391D01*
X002164Y007233D02*
X001786Y007233D01*
X001869Y007074D02*
X007706Y007074D01*
X007548Y006916D02*
X002027Y006916D01*
X001975Y006600D02*
X001475Y007100D01*
X001475Y007600D01*
X001975Y006600D02*
X007600Y006600D01*
X008475Y007475D01*
X008475Y009225D01*
X009475Y009475D02*
X008100Y010850D01*
X008100Y012100D01*
X007600Y012600D01*
X007412Y011671D02*
X007189Y011671D01*
X007348Y011512D02*
X007465Y011512D01*
X007465Y011354D02*
X007353Y011354D01*
X008850Y013414D02*
X009715Y013414D01*
X009715Y013256D02*
X009020Y013256D01*
X009190Y013097D02*
X009715Y013097D01*
X009715Y012939D02*
X009359Y012939D01*
X009529Y012780D02*
X009715Y012780D01*
X009715Y012622D02*
X009696Y012622D01*
X009715Y013573D02*
X008680Y013573D01*
X008510Y013731D02*
X009715Y013731D01*
X009715Y013890D02*
X008340Y013890D01*
X008171Y014048D02*
X009715Y014048D01*
X009715Y014207D02*
X008001Y014207D01*
X007831Y014365D02*
X008175Y014365D01*
X008475Y014600D02*
X010600Y016725D01*
X010600Y031225D01*
X010100Y031725D01*
X009799Y031959D02*
X007734Y031959D01*
X007576Y032117D02*
X010421Y032117D01*
X010401Y031959D02*
X010579Y031959D01*
X010478Y031800D02*
X010738Y031800D01*
X010845Y031642D02*
X010551Y031642D01*
X010710Y031483D02*
X010845Y031483D01*
X010840Y031325D02*
X010845Y031325D01*
X011591Y031959D02*
X013475Y031959D01*
X013475Y032117D02*
X011495Y032117D01*
X011337Y032276D02*
X013475Y032276D01*
X013475Y032434D02*
X011178Y032434D01*
X011020Y032593D02*
X013475Y032593D01*
X013475Y032751D02*
X010861Y032751D01*
X010703Y032910D02*
X013475Y032910D01*
X013475Y033068D02*
X010515Y033068D01*
X010262Y032276D02*
X007417Y032276D01*
X007479Y032434D02*
X007259Y032434D01*
X007347Y032593D02*
X007103Y032593D01*
X007103Y032751D02*
X007345Y032751D01*
X007375Y032910D02*
X006950Y032910D01*
X006725Y032600D02*
X007850Y031475D01*
X009475Y031475D01*
X010225Y030725D01*
X010225Y019600D01*
X008350Y017725D01*
X008005Y017535D02*
X007985Y017535D01*
X007985Y017377D02*
X008164Y017377D01*
X007985Y017218D02*
X010340Y017218D01*
X010340Y017060D02*
X007985Y017060D01*
X007985Y016901D02*
X010340Y016901D01*
X010250Y016743D02*
X007992Y016743D01*
X008103Y016584D02*
X010091Y016584D01*
X009933Y016426D02*
X008103Y016426D01*
X008052Y016267D02*
X009774Y016267D01*
X009616Y016109D02*
X007893Y016109D01*
X007725Y016475D02*
X007725Y017850D01*
X009850Y019975D01*
X009850Y030600D01*
X009350Y031100D01*
X006100Y031100D01*
X004725Y032475D01*
X004725Y032600D01*
X005103Y032593D02*
X006347Y032593D01*
X006347Y032751D02*
X005103Y032751D01*
X004950Y032910D02*
X006500Y032910D01*
X006356Y032434D02*
X005134Y032434D01*
X005292Y032276D02*
X006515Y032276D01*
X006840Y032117D02*
X005451Y032117D01*
X005609Y031959D02*
X006999Y031959D01*
X007157Y031800D02*
X005768Y031800D01*
X005926Y031642D02*
X007316Y031642D01*
X007474Y031483D02*
X006085Y031483D01*
X005666Y031166D02*
X005527Y031166D01*
X005508Y031325D02*
X005368Y031325D01*
X005349Y031483D02*
X005210Y031483D01*
X005191Y031642D02*
X005051Y031642D01*
X005032Y031800D02*
X004893Y031800D01*
X004874Y031959D02*
X004734Y031959D01*
X004715Y032117D02*
X004576Y032117D01*
X004515Y032276D02*
X004417Y032276D01*
X004356Y032434D02*
X004259Y032434D01*
X004347Y032593D02*
X004103Y032593D01*
X004103Y032751D02*
X004347Y032751D01*
X004500Y032910D02*
X003950Y032910D01*
X002191Y032434D02*
X002094Y032434D01*
X002033Y032276D02*
X001935Y032276D01*
X001874Y032117D02*
X001610Y032117D01*
X001716Y031959D02*
X001451Y031959D01*
X001557Y031800D02*
X001293Y031800D01*
X001399Y031642D02*
X001134Y031642D01*
X001240Y031483D02*
X000985Y031483D01*
X000985Y031325D02*
X001082Y031325D01*
X000716Y031959D02*
X000580Y031959D01*
X000580Y032117D02*
X000874Y032117D01*
X001033Y032276D02*
X000580Y032276D01*
X000580Y032434D02*
X001191Y032434D01*
X001347Y032593D02*
X000580Y032593D01*
X000580Y032751D02*
X001347Y032751D01*
X001500Y032910D02*
X000580Y032910D01*
X000580Y033068D02*
X007533Y033068D01*
X007893Y031800D02*
X009722Y031800D01*
X009722Y031642D02*
X009676Y031642D01*
X008404Y029898D02*
X008046Y029898D01*
X008096Y029848D02*
X007973Y029971D01*
X007812Y030037D01*
X007638Y030037D01*
X007477Y029971D01*
X007354Y029848D01*
X007288Y029687D01*
X007288Y029513D01*
X007354Y029352D01*
X007477Y029229D01*
X007638Y029163D01*
X007812Y029163D01*
X007973Y029229D01*
X008096Y029352D01*
X008162Y029513D01*
X008162Y029687D01*
X008096Y029848D01*
X008141Y029740D02*
X008309Y029740D01*
X008288Y029581D02*
X008162Y029581D01*
X008125Y029423D02*
X008325Y029423D01*
X008442Y029264D02*
X008008Y029264D01*
X007442Y029264D02*
X007007Y029264D01*
X007010Y029266D02*
X007059Y029315D01*
X007099Y029371D01*
X007130Y029432D01*
X007152Y029498D01*
X007162Y029566D01*
X007162Y029600D01*
X006725Y029600D01*
X007162Y029600D01*
X007162Y029634D01*
X007152Y029702D01*
X007130Y029768D01*
X007099Y029829D01*
X007059Y029885D01*
X007010Y029934D01*
X006954Y029974D01*
X006893Y030005D01*
X006827Y030027D01*
X006759Y030037D01*
X006725Y030037D01*
X006691Y030037D01*
X006623Y030027D01*
X006557Y030005D01*
X006496Y029974D01*
X006440Y029934D01*
X006391Y029885D01*
X006351Y029829D01*
X006320Y029768D01*
X006298Y029702D01*
X006288Y029634D01*
X006288Y029600D01*
X006288Y029566D01*
X006298Y029498D01*
X006320Y029432D01*
X006351Y029371D01*
X006391Y029315D01*
X006440Y029266D01*
X006496Y029226D01*
X006557Y029195D01*
X006623Y029173D01*
X006691Y029163D01*
X006725Y029163D01*
X006759Y029163D01*
X006827Y029173D01*
X006893Y029195D01*
X006954Y029226D01*
X007010Y029266D01*
X007126Y029423D02*
X007325Y029423D01*
X007288Y029581D02*
X007162Y029581D01*
X007140Y029740D02*
X007309Y029740D01*
X007404Y029898D02*
X007046Y029898D01*
X006725Y029898D02*
X006725Y029898D01*
X006725Y030037D02*
X006725Y029600D01*
X006725Y029600D01*
X006725Y029600D01*
X006725Y030037D01*
X006725Y029740D02*
X006725Y029740D01*
X006725Y029600D02*
X006288Y029600D01*
X006725Y029600D01*
X006725Y029163D01*
X006725Y029600D01*
X006725Y029600D01*
X006725Y029600D01*
X006725Y029581D02*
X006725Y029581D01*
X006725Y029423D02*
X006725Y029423D01*
X006725Y029264D02*
X006725Y029264D01*
X006443Y029264D02*
X006008Y029264D01*
X006125Y029423D02*
X006324Y029423D01*
X006288Y029581D02*
X006162Y029581D01*
X006141Y029740D02*
X006310Y029740D01*
X006404Y029898D02*
X006046Y029898D01*
X005825Y031008D02*
X005685Y031008D01*
X000655Y033227D02*
X013475Y033227D01*
X013850Y032975D02*
X014026Y032975D01*
X014021Y032934D01*
X014641Y032934D01*
X014641Y032774D01*
X014021Y032774D01*
X014028Y032716D01*
X014052Y032627D01*
X014087Y032541D01*
X014134Y032461D01*
X014190Y032388D01*
X014255Y032323D01*
X014329Y032266D01*
X014409Y032220D01*
X014494Y032185D01*
X014583Y032161D01*
X014641Y032153D01*
X014641Y032774D01*
X014801Y032774D01*
X014801Y032153D01*
X014859Y032161D01*
X014948Y032185D01*
X015034Y032220D01*
X015114Y032266D01*
X015187Y032323D01*
X015252Y032388D01*
X015309Y032461D01*
X015355Y032541D01*
X015390Y032627D01*
X015414Y032716D01*
X015422Y032774D01*
X014801Y032774D01*
X014801Y032934D01*
X015422Y032934D01*
X015416Y032975D01*
X016034Y032975D01*
X016028Y032934D01*
X016649Y032934D01*
X016649Y032774D01*
X016028Y032774D01*
X016036Y032716D01*
X016060Y032627D01*
X016095Y032541D01*
X016141Y032461D01*
X016198Y032388D01*
X016263Y032323D01*
X016336Y032266D01*
X016416Y032220D01*
X016502Y032185D01*
X016591Y032161D01*
X016649Y032153D01*
X016649Y032774D01*
X016809Y032774D01*
X016809Y032934D01*
X017429Y032934D01*
X017424Y032975D01*
X017600Y032975D01*
X017600Y029100D01*
X013850Y029100D01*
X013850Y032975D01*
X013850Y032910D02*
X014641Y032910D01*
X014641Y032751D02*
X014801Y032751D01*
X014801Y032593D02*
X014641Y032593D01*
X014641Y032434D02*
X014801Y032434D01*
X014801Y032276D02*
X014641Y032276D01*
X014317Y032276D02*
X013850Y032276D01*
X013850Y032434D02*
X014155Y032434D01*
X014066Y032593D02*
X013850Y032593D01*
X013850Y032751D02*
X014024Y032751D01*
X013850Y032117D02*
X015235Y032117D01*
X015254Y032164D02*
X015170Y031960D01*
X015170Y031740D01*
X015254Y031536D01*
X015411Y031379D01*
X015465Y031357D01*
X015465Y029959D01*
X015354Y029848D01*
X015288Y029687D01*
X015288Y029513D01*
X015354Y029352D01*
X015477Y029229D01*
X015638Y029163D01*
X015812Y029163D01*
X015973Y029229D01*
X016096Y029352D01*
X016162Y029513D01*
X016162Y029687D01*
X016096Y029848D01*
X015985Y029959D01*
X015985Y031357D01*
X016039Y031379D01*
X016196Y031536D01*
X016280Y031740D01*
X016280Y031960D01*
X016196Y032164D01*
X016039Y032321D01*
X015835Y032405D01*
X015615Y032405D01*
X015411Y032321D01*
X015254Y032164D01*
X015366Y032276D02*
X015125Y032276D01*
X015288Y032434D02*
X016162Y032434D01*
X016084Y032276D02*
X016325Y032276D01*
X016215Y032117D02*
X017600Y032117D01*
X017600Y031959D02*
X016280Y031959D01*
X016280Y031800D02*
X017600Y031800D01*
X017600Y031642D02*
X016239Y031642D01*
X016143Y031483D02*
X016424Y031483D01*
X016416Y031480D02*
X016336Y031434D01*
X016263Y031377D01*
X016198Y031312D01*
X016141Y031239D01*
X016095Y031159D01*
X016060Y031073D01*
X016036Y030984D01*
X016028Y030926D01*
X016649Y030926D01*
X016649Y030766D01*
X016809Y030766D01*
X016809Y030926D01*
X017429Y030926D01*
X017422Y030984D01*
X017398Y031073D01*
X017363Y031159D01*
X017316Y031239D01*
X017260Y031312D01*
X017195Y031377D01*
X017121Y031434D01*
X017041Y031480D01*
X016956Y031515D01*
X016867Y031539D01*
X016809Y031547D01*
X016809Y030926D01*
X016649Y030926D01*
X016649Y031547D01*
X016591Y031539D01*
X016502Y031515D01*
X016416Y031480D01*
X016649Y031483D02*
X016809Y031483D01*
X016809Y031325D02*
X016649Y031325D01*
X016649Y031166D02*
X016809Y031166D01*
X016809Y031008D02*
X016649Y031008D01*
X016649Y030849D02*
X015985Y030849D01*
X016028Y030766D02*
X016036Y030708D01*
X016060Y030619D01*
X016095Y030534D01*
X016141Y030454D01*
X016198Y030380D01*
X016263Y030315D01*
X016336Y030259D01*
X016416Y030212D01*
X016502Y030177D01*
X016591Y030153D01*
X016649Y030146D01*
X016649Y030766D01*
X016028Y030766D01*
X016041Y030691D02*
X015985Y030691D01*
X015985Y030532D02*
X016096Y030532D01*
X016204Y030374D02*
X015985Y030374D01*
X015985Y030215D02*
X016412Y030215D01*
X016649Y030215D02*
X016809Y030215D01*
X016809Y030146D02*
X016867Y030153D01*
X016956Y030177D01*
X017041Y030212D01*
X017121Y030259D01*
X017195Y030315D01*
X017260Y030380D01*
X017316Y030454D01*
X017363Y030534D01*
X017398Y030619D01*
X017422Y030708D01*
X017429Y030766D01*
X016809Y030766D01*
X016809Y030146D01*
X016759Y030037D02*
X016725Y030037D01*
X016691Y030037D01*
X016623Y030027D01*
X016557Y030005D01*
X016496Y029974D01*
X016440Y029934D01*
X016391Y029885D01*
X016351Y029829D01*
X016320Y029768D01*
X016298Y029702D01*
X016288Y029634D01*
X016288Y029600D01*
X016288Y029566D01*
X016298Y029498D01*
X016320Y029432D01*
X016351Y029371D01*
X016391Y029315D01*
X016440Y029266D01*
X016496Y029226D01*
X016557Y029195D01*
X016623Y029173D01*
X016691Y029163D01*
X016725Y029163D01*
X016759Y029163D01*
X016827Y029173D01*
X016893Y029195D01*
X016954Y029226D01*
X017010Y029266D01*
X017059Y029315D01*
X017099Y029371D01*
X017130Y029432D01*
X017152Y029498D01*
X017162Y029566D01*
X017162Y029600D01*
X016725Y029600D01*
X017162Y029600D01*
X017162Y029634D01*
X017152Y029702D01*
X017130Y029768D01*
X017099Y029829D01*
X017059Y029885D01*
X017010Y029934D01*
X016954Y029974D01*
X016893Y030005D01*
X016827Y030027D01*
X016759Y030037D01*
X016725Y030037D02*
X016725Y029600D01*
X016725Y029600D01*
X016725Y029600D01*
X016725Y029163D01*
X016725Y029600D01*
X016725Y029600D01*
X016725Y029600D01*
X016288Y029600D01*
X016725Y029600D01*
X016725Y030037D01*
X016725Y029898D02*
X016725Y029898D01*
X016725Y029740D02*
X016725Y029740D01*
X016725Y029581D02*
X016725Y029581D01*
X016725Y029423D02*
X016725Y029423D01*
X016725Y029264D02*
X016725Y029264D01*
X017007Y029264D02*
X017600Y029264D01*
X017600Y029106D02*
X013850Y029106D01*
X013850Y029264D02*
X014443Y029264D01*
X014440Y029266D02*
X014496Y029226D01*
X014557Y029195D01*
X014623Y029173D01*
X014691Y029163D01*
X014725Y029163D01*
X014759Y029163D01*
X014827Y029173D01*
X014893Y029195D01*
X014954Y029226D01*
X015010Y029266D01*
X015059Y029315D01*
X015099Y029371D01*
X015130Y029432D01*
X015152Y029498D01*
X015162Y029566D01*
X015162Y029600D01*
X014725Y029600D01*
X015162Y029600D01*
X015162Y029634D01*
X015152Y029702D01*
X015130Y029768D01*
X015099Y029829D01*
X015059Y029885D01*
X015010Y029934D01*
X014954Y029974D01*
X014893Y030005D01*
X014827Y030027D01*
X014759Y030037D01*
X014725Y030037D01*
X014691Y030037D01*
X014623Y030027D01*
X014557Y030005D01*
X014496Y029974D01*
X014440Y029934D01*
X014391Y029885D01*
X014351Y029829D01*
X014320Y029768D01*
X014298Y029702D01*
X014288Y029634D01*
X014288Y029600D01*
X014288Y029566D01*
X014298Y029498D01*
X014320Y029432D01*
X014351Y029371D01*
X014391Y029315D01*
X014440Y029266D01*
X014324Y029423D02*
X013850Y029423D01*
X013850Y029581D02*
X014288Y029581D01*
X014288Y029600D02*
X014725Y029600D01*
X014725Y029600D01*
X014725Y029600D01*
X014725Y030037D01*
X014725Y029600D01*
X014725Y029163D01*
X014725Y029600D01*
X014725Y029600D01*
X014725Y029600D01*
X014288Y029600D01*
X014310Y029740D02*
X013850Y029740D01*
X013850Y029898D02*
X014404Y029898D01*
X014494Y030177D02*
X014583Y030153D01*
X014641Y030146D01*
X014641Y030766D01*
X014021Y030766D01*
X014028Y030708D01*
X014052Y030619D01*
X014087Y030534D01*
X014134Y030454D01*
X014190Y030380D01*
X014255Y030315D01*
X014329Y030259D01*
X014409Y030212D01*
X014494Y030177D01*
X014404Y030215D02*
X013850Y030215D01*
X013850Y030057D02*
X015465Y030057D01*
X015465Y030215D02*
X015038Y030215D01*
X015034Y030212D02*
X015114Y030259D01*
X015187Y030315D01*
X015252Y030380D01*
X015309Y030454D01*
X015355Y030534D01*
X015390Y030619D01*
X015414Y030708D01*
X015422Y030766D01*
X014801Y030766D01*
X014801Y030146D01*
X014859Y030153D01*
X014948Y030177D01*
X015034Y030212D01*
X014801Y030215D02*
X014641Y030215D01*
X014641Y030374D02*
X014801Y030374D01*
X014801Y030532D02*
X014641Y030532D01*
X014641Y030691D02*
X014801Y030691D01*
X014801Y030766D02*
X014641Y030766D01*
X014641Y030926D01*
X014021Y030926D01*
X014028Y030984D01*
X014052Y031073D01*
X014087Y031159D01*
X014134Y031239D01*
X014190Y031312D01*
X014255Y031377D01*
X014329Y031434D01*
X014409Y031480D01*
X014494Y031515D01*
X014583Y031539D01*
X014641Y031547D01*
X014641Y030926D01*
X014801Y030926D01*
X014801Y031547D01*
X014859Y031539D01*
X014948Y031515D01*
X015034Y031480D01*
X015114Y031434D01*
X015187Y031377D01*
X015252Y031312D01*
X015309Y031239D01*
X015355Y031159D01*
X015390Y031073D01*
X015414Y030984D01*
X015422Y030926D01*
X014801Y030926D01*
X014801Y030766D01*
X014801Y030849D02*
X015465Y030849D01*
X015465Y030691D02*
X015409Y030691D01*
X015354Y030532D02*
X015465Y030532D01*
X015465Y030374D02*
X015246Y030374D01*
X015408Y031008D02*
X015465Y031008D01*
X015465Y031166D02*
X015350Y031166D01*
X015240Y031325D02*
X015465Y031325D01*
X015307Y031483D02*
X015026Y031483D01*
X014801Y031483D02*
X014641Y031483D01*
X014641Y031325D02*
X014801Y031325D01*
X014801Y031166D02*
X014641Y031166D01*
X014641Y031008D02*
X014801Y031008D01*
X014641Y030849D02*
X013850Y030849D01*
X013850Y030691D02*
X014033Y030691D01*
X014088Y030532D02*
X013850Y030532D01*
X013850Y030374D02*
X014197Y030374D01*
X014034Y031008D02*
X013850Y031008D01*
X013850Y031166D02*
X014092Y031166D01*
X014203Y031325D02*
X013850Y031325D01*
X013850Y031483D02*
X014417Y031483D01*
X013850Y031642D02*
X015211Y031642D01*
X015170Y031800D02*
X013850Y031800D01*
X013850Y031959D02*
X015170Y031959D01*
X015725Y031850D02*
X015725Y029600D01*
X016125Y029423D02*
X016324Y029423D01*
X016288Y029581D02*
X016162Y029581D01*
X016141Y029740D02*
X016310Y029740D01*
X016404Y029898D02*
X016046Y029898D01*
X015985Y030057D02*
X017600Y030057D01*
X017600Y030215D02*
X017046Y030215D01*
X017253Y030374D02*
X017600Y030374D01*
X017600Y030532D02*
X017362Y030532D01*
X017417Y030691D02*
X017600Y030691D01*
X017600Y030849D02*
X016809Y030849D01*
X016809Y030691D02*
X016649Y030691D01*
X016649Y030532D02*
X016809Y030532D01*
X016809Y030374D02*
X016649Y030374D01*
X017046Y029898D02*
X017600Y029898D01*
X017600Y029740D02*
X017140Y029740D01*
X017162Y029581D02*
X017600Y029581D01*
X017600Y029423D02*
X017126Y029423D01*
X016443Y029264D02*
X016008Y029264D01*
X015442Y029264D02*
X015007Y029264D01*
X015126Y029423D02*
X015325Y029423D01*
X015288Y029581D02*
X015162Y029581D01*
X015140Y029740D02*
X015309Y029740D01*
X015404Y029898D02*
X015046Y029898D01*
X014725Y029898D02*
X014725Y029898D01*
X014725Y029740D02*
X014725Y029740D01*
X014725Y029581D02*
X014725Y029581D01*
X014725Y029423D02*
X014725Y029423D01*
X014725Y029264D02*
X014725Y029264D01*
X013475Y029264D02*
X011965Y029264D01*
X011965Y029106D02*
X013475Y029106D01*
X013475Y028947D02*
X011965Y028947D01*
X011965Y028789D02*
X013475Y028789D01*
X013475Y029423D02*
X011965Y029423D01*
X011965Y029581D02*
X013475Y029581D01*
X013475Y029740D02*
X011965Y029740D01*
X011987Y029898D02*
X013475Y029898D01*
X013475Y030057D02*
X012146Y030057D01*
X012304Y030215D02*
X013475Y030215D01*
X013475Y030374D02*
X012463Y030374D01*
X012817Y030532D02*
X013475Y030532D01*
X013475Y030691D02*
X012975Y030691D01*
X012978Y030849D02*
X013475Y030849D01*
X013475Y031008D02*
X012977Y031008D01*
X012819Y031166D02*
X013475Y031166D01*
X013475Y031325D02*
X011605Y031325D01*
X011605Y031483D02*
X013475Y031483D01*
X013475Y031642D02*
X011605Y031642D01*
X011605Y031800D02*
X013475Y031800D01*
X012381Y031166D02*
X011605Y031166D01*
X011605Y031008D02*
X012223Y031008D01*
X012222Y030849D02*
X011605Y030849D01*
X011605Y030691D02*
X012101Y030691D01*
X011943Y030532D02*
X011605Y030532D01*
X011605Y030374D02*
X011784Y030374D01*
X011626Y030215D02*
X011605Y030215D01*
X011965Y028630D02*
X018975Y028630D01*
X018975Y028472D02*
X011965Y028472D01*
X011965Y028313D02*
X018975Y028313D01*
X018975Y028155D02*
X011965Y028155D01*
X011965Y027996D02*
X018975Y027996D01*
X018975Y027838D02*
X011965Y027838D01*
X011965Y027679D02*
X018975Y027679D01*
X018975Y027521D02*
X011965Y027521D01*
X011965Y027362D02*
X018975Y027362D01*
X018975Y027204D02*
X011965Y027204D01*
X011965Y027045D02*
X018975Y027045D01*
X018975Y026887D02*
X011965Y026887D01*
X011965Y026728D02*
X018975Y026728D01*
X018975Y026570D02*
X011965Y026570D01*
X011965Y026411D02*
X018975Y026411D01*
X018975Y026253D02*
X011965Y026253D01*
X011965Y026094D02*
X018975Y026094D01*
X018975Y025936D02*
X011965Y025936D01*
X011965Y025777D02*
X018975Y025777D01*
X018975Y025619D02*
X011965Y025619D01*
X011965Y025460D02*
X018975Y025460D01*
X018975Y025302D02*
X011965Y025302D01*
X011965Y025143D02*
X018975Y025143D01*
X018975Y024985D02*
X011965Y024985D01*
X011965Y024826D02*
X018975Y024826D01*
X018975Y024668D02*
X011965Y024668D01*
X011965Y024509D02*
X018975Y024509D01*
X018975Y024351D02*
X011965Y024351D01*
X011965Y024192D02*
X018975Y024192D01*
X018975Y024034D02*
X011965Y024034D01*
X011965Y023875D02*
X018975Y023875D01*
X018975Y023717D02*
X011965Y023717D01*
X011965Y023558D02*
X018975Y023558D01*
X018975Y023400D02*
X011965Y023400D01*
X011965Y023241D02*
X018975Y023241D01*
X018975Y023083D02*
X011965Y023083D01*
X011965Y022924D02*
X018975Y022924D01*
X018975Y022766D02*
X011965Y022766D01*
X011965Y022607D02*
X018975Y022607D01*
X018975Y022449D02*
X011965Y022449D01*
X011965Y022290D02*
X018975Y022290D01*
X018975Y022132D02*
X011965Y022132D01*
X011965Y021973D02*
X018975Y021973D01*
X018975Y021815D02*
X011965Y021815D01*
X011965Y021656D02*
X018975Y021656D01*
X018975Y021498D02*
X011965Y021498D01*
X011965Y021339D02*
X018975Y021339D01*
X018975Y021181D02*
X011965Y021181D01*
X012017Y021022D02*
X018975Y021022D01*
X018975Y020864D02*
X012176Y020864D01*
X012334Y020705D02*
X018975Y020705D01*
X018975Y020547D02*
X012493Y020547D01*
X012651Y020388D02*
X018975Y020388D01*
X018975Y020230D02*
X012810Y020230D01*
X012968Y020071D02*
X018975Y020071D01*
X018975Y019913D02*
X013127Y019913D01*
X013285Y019754D02*
X018975Y019754D01*
X018975Y019596D02*
X013444Y019596D01*
X013602Y019437D02*
X018975Y019437D01*
X018975Y019279D02*
X013761Y019279D01*
X013919Y019120D02*
X018975Y019120D01*
X018975Y018962D02*
X018133Y018962D01*
X018162Y018932D02*
X018057Y019037D01*
X017393Y019037D01*
X017288Y018932D01*
X017288Y018268D01*
X017393Y018163D01*
X018057Y018163D01*
X018162Y018268D01*
X018162Y018932D01*
X018162Y018803D02*
X018975Y018803D01*
X018975Y018645D02*
X018162Y018645D01*
X018162Y018486D02*
X018975Y018486D01*
X018975Y018328D02*
X018162Y018328D01*
X018064Y018169D02*
X018975Y018169D01*
X018975Y018011D02*
X015974Y018011D01*
X015978Y017852D02*
X026120Y017852D01*
X026120Y017694D02*
X015978Y017694D01*
X015820Y017535D02*
X026120Y017535D01*
X026120Y017377D02*
X015111Y017377D01*
X014952Y017535D02*
X015380Y017535D01*
X015269Y017218D02*
X026120Y017218D01*
X026120Y017060D02*
X018007Y017060D01*
X018225Y016901D02*
X026120Y016901D01*
X026120Y016743D02*
X018298Y016743D01*
X018307Y016584D02*
X026120Y016584D01*
X026120Y016426D02*
X018260Y016426D01*
X018134Y016267D02*
X026120Y016267D01*
X026120Y016109D02*
X015730Y016109D01*
X015730Y016267D02*
X017566Y016267D01*
X017257Y016103D02*
X017478Y015882D01*
X017478Y015568D01*
X017360Y015450D01*
X017360Y013000D01*
X017478Y012882D01*
X017478Y012568D01*
X017257Y012347D01*
X016943Y012347D01*
X016722Y012568D01*
X016722Y012882D01*
X016840Y013000D01*
X016840Y015450D01*
X016722Y015568D01*
X016722Y015882D01*
X016943Y016103D01*
X017257Y016103D01*
X017410Y015950D02*
X026120Y015950D01*
X026120Y015792D02*
X017478Y015792D01*
X017478Y015633D02*
X026120Y015633D01*
X026120Y015475D02*
X017384Y015475D01*
X017360Y015316D02*
X026120Y015316D01*
X026120Y015158D02*
X017360Y015158D01*
X017360Y014999D02*
X026120Y014999D01*
X026120Y014841D02*
X017360Y014841D01*
X017360Y014682D02*
X026120Y014682D01*
X026120Y014524D02*
X017951Y014524D01*
X017941Y014528D02*
X017759Y014528D01*
X017591Y014458D01*
X017462Y014329D01*
X017393Y014161D01*
X017393Y013980D01*
X017462Y013812D01*
X017591Y013683D01*
X017759Y013613D01*
X017941Y013613D01*
X018109Y013683D01*
X018238Y013812D01*
X018307Y013980D01*
X018307Y014161D01*
X018238Y014329D01*
X018109Y014458D01*
X017941Y014528D01*
X017749Y014524D02*
X017360Y014524D01*
X017360Y014365D02*
X017498Y014365D01*
X017412Y014207D02*
X017360Y014207D01*
X017360Y014048D02*
X017393Y014048D01*
X017360Y013890D02*
X017430Y013890D01*
X017360Y013731D02*
X017543Y013731D01*
X017360Y013573D02*
X026120Y013573D01*
X026120Y013731D02*
X018157Y013731D01*
X018270Y013890D02*
X026120Y013890D01*
X026120Y014048D02*
X018307Y014048D01*
X018288Y014207D02*
X026120Y014207D01*
X026120Y014365D02*
X018202Y014365D01*
X017360Y013414D02*
X026120Y013414D01*
X026120Y013256D02*
X017360Y013256D01*
X017360Y013097D02*
X026120Y013097D01*
X026120Y012939D02*
X017421Y012939D01*
X017478Y012780D02*
X024120Y012780D01*
X023972Y012622D02*
X017478Y012622D01*
X017373Y012463D02*
X023972Y012463D01*
X023986Y012305D02*
X015730Y012305D01*
X015730Y012463D02*
X016827Y012463D01*
X016722Y012622D02*
X015730Y012622D01*
X015730Y012780D02*
X016722Y012780D01*
X016779Y012939D02*
X015730Y012939D01*
X015730Y013097D02*
X016840Y013097D01*
X016840Y013256D02*
X015730Y013256D01*
X015730Y013414D02*
X016840Y013414D01*
X016840Y013573D02*
X015730Y013573D01*
X015730Y013731D02*
X016840Y013731D01*
X016840Y013890D02*
X015730Y013890D01*
X015730Y014048D02*
X016840Y014048D01*
X016840Y014207D02*
X015730Y014207D01*
X015730Y014365D02*
X016840Y014365D01*
X016840Y014524D02*
X015730Y014524D01*
X015730Y014682D02*
X016840Y014682D01*
X016840Y014841D02*
X015730Y014841D01*
X015730Y014999D02*
X016840Y014999D01*
X016840Y015158D02*
X015730Y015158D01*
X015730Y015316D02*
X016840Y015316D01*
X016816Y015475D02*
X015730Y015475D01*
X015730Y015633D02*
X016722Y015633D01*
X016722Y015792D02*
X015730Y015792D01*
X015730Y015950D02*
X016790Y015950D01*
X017100Y015725D02*
X017100Y012725D01*
X016031Y011037D02*
X024090Y011037D01*
X024090Y011195D02*
X015873Y011195D01*
X015730Y011354D02*
X024090Y011354D01*
X024090Y011512D02*
X015730Y011512D01*
X015730Y011671D02*
X024090Y011671D01*
X024090Y011829D02*
X015730Y011829D01*
X015730Y011988D02*
X024090Y011988D01*
X024090Y012146D02*
X015730Y012146D01*
X015454Y010878D02*
X014165Y010878D01*
X014007Y010720D02*
X015613Y010720D01*
X015771Y010561D02*
X013848Y010561D01*
X013690Y010403D02*
X015930Y010403D01*
X016190Y010878D02*
X018593Y010878D01*
X018671Y010244D02*
X013531Y010244D01*
X013373Y010086D02*
X021122Y010086D01*
X020963Y010244D02*
X019029Y010244D01*
X019107Y010878D02*
X024090Y010878D01*
X024090Y010720D02*
X021223Y010720D01*
X021382Y010561D02*
X024090Y010561D01*
X024090Y010403D02*
X021540Y010403D01*
X021699Y010244D02*
X024090Y010244D01*
X024090Y010086D02*
X021857Y010086D01*
X022016Y009927D02*
X024090Y009927D01*
X024090Y009769D02*
X022174Y009769D01*
X022333Y009610D02*
X024090Y009610D01*
X024090Y009452D02*
X022491Y009452D01*
X022650Y009293D02*
X024090Y009293D01*
X024090Y009135D02*
X022808Y009135D01*
X022967Y008976D02*
X024090Y008976D01*
X024090Y008818D02*
X023125Y008818D01*
X023451Y008659D02*
X024090Y008659D01*
X024008Y008501D02*
X023603Y008501D01*
X023215Y007708D02*
X018076Y007708D01*
X017917Y007550D02*
X023057Y007550D01*
X022231Y008976D02*
X017217Y008976D01*
X017058Y009135D02*
X022073Y009135D01*
X021914Y009293D02*
X016900Y009293D01*
X016741Y009452D02*
X021756Y009452D01*
X021597Y009610D02*
X014625Y009610D01*
X014350Y009350D02*
X016475Y009350D01*
X017100Y008725D01*
X017100Y008475D01*
X017725Y007725D02*
X015225Y007725D01*
X014225Y008725D01*
X014031Y009135D02*
X012855Y009135D01*
X012855Y009293D02*
X013972Y009293D01*
X013972Y009452D02*
X012855Y009452D01*
X012897Y009610D02*
X014075Y009610D01*
X013402Y008976D02*
X012855Y008976D01*
X012855Y008818D02*
X013200Y008818D01*
X013041Y008659D02*
X012855Y008659D01*
X012855Y008501D02*
X012965Y008501D01*
X012965Y008342D02*
X012855Y008342D01*
X012855Y008184D02*
X012965Y008184D01*
X012965Y008025D02*
X012855Y008025D01*
X012855Y007867D02*
X012965Y007867D01*
X013056Y009769D02*
X021439Y009769D01*
X021280Y009927D02*
X013214Y009927D01*
X012774Y010561D02*
X012304Y010561D01*
X012462Y010720D02*
X012932Y010720D01*
X013091Y010878D02*
X012621Y010878D01*
X012779Y011037D02*
X013249Y011037D01*
X013408Y011195D02*
X012938Y011195D01*
X013096Y011354D02*
X013566Y011354D01*
X013725Y011512D02*
X013255Y011512D01*
X013413Y011671D02*
X013883Y011671D01*
X012965Y011988D02*
X011946Y011988D01*
X012005Y012146D02*
X012965Y012146D01*
X012965Y012305D02*
X012005Y012305D01*
X011946Y012463D02*
X012965Y012463D01*
X012965Y012622D02*
X011807Y012622D01*
X011709Y012780D02*
X011777Y012814D01*
X011838Y012859D01*
X011891Y012912D01*
X011936Y012973D01*
X011970Y013041D01*
X011993Y013113D01*
X012005Y013187D01*
X012005Y013205D01*
X011245Y013205D01*
X011245Y012745D01*
X011563Y012745D01*
X011637Y012757D01*
X011709Y012780D01*
X012965Y012780D01*
X012965Y012939D02*
X011910Y012939D01*
X011988Y013097D02*
X012847Y013097D01*
X012827Y013256D02*
X012005Y013256D01*
X012005Y013263D02*
X011993Y013337D01*
X011970Y013409D01*
X011936Y013477D01*
X011891Y013538D01*
X011838Y013591D01*
X011777Y013636D01*
X011709Y013670D01*
X011637Y013693D01*
X011563Y013705D01*
X011245Y013705D01*
X011245Y013245D01*
X012005Y013245D01*
X012005Y013263D01*
X011967Y013414D02*
X012668Y013414D01*
X012510Y013573D02*
X011856Y013573D01*
X011245Y013573D02*
X011205Y013573D01*
X011205Y013414D02*
X011245Y013414D01*
X011245Y013256D02*
X011205Y013256D01*
X011205Y013097D02*
X011245Y013097D01*
X011245Y012939D02*
X011205Y012939D01*
X011205Y012780D02*
X011245Y012780D01*
X011808Y011829D02*
X012836Y011829D01*
X012678Y011671D02*
X011704Y011671D01*
X011917Y011512D02*
X012519Y011512D01*
X012361Y011354D02*
X011991Y011354D01*
X012005Y011195D02*
X012202Y011195D01*
X012044Y011037D02*
X011966Y011037D01*
X011885Y010878D02*
X011857Y010878D01*
X012145Y010403D02*
X012615Y010403D01*
X009850Y009475D02*
X009475Y009475D01*
X009752Y014365D02*
X008775Y014365D01*
X008853Y014524D02*
X009906Y014524D01*
X010064Y014682D02*
X008925Y014682D01*
X010351Y016109D02*
X014970Y016109D01*
X014970Y016267D02*
X010510Y016267D01*
X010668Y016426D02*
X014970Y016426D01*
X014829Y016584D02*
X010823Y016584D01*
X010860Y016743D02*
X014670Y016743D01*
X014512Y016901D02*
X010860Y016901D01*
X010860Y017060D02*
X014353Y017060D01*
X014195Y017218D02*
X010860Y017218D01*
X010860Y017377D02*
X014036Y017377D01*
X013878Y017535D02*
X010860Y017535D01*
X010860Y017694D02*
X013719Y017694D01*
X013561Y017852D02*
X010860Y017852D01*
X010860Y018011D02*
X013402Y018011D01*
X013244Y018169D02*
X010860Y018169D01*
X010860Y018328D02*
X013085Y018328D01*
X012927Y018486D02*
X010860Y018486D01*
X010860Y018645D02*
X012768Y018645D01*
X012610Y018803D02*
X010860Y018803D01*
X010860Y018962D02*
X012451Y018962D01*
X012293Y019120D02*
X010860Y019120D01*
X010860Y019279D02*
X012134Y019279D01*
X011976Y019437D02*
X010860Y019437D01*
X010860Y019596D02*
X011817Y019596D01*
X011659Y019754D02*
X010860Y019754D01*
X010860Y019913D02*
X011500Y019913D01*
X011342Y020071D02*
X010860Y020071D01*
X010860Y020230D02*
X011183Y020230D01*
X011025Y020388D02*
X010860Y020388D01*
X010860Y020547D02*
X010888Y020547D01*
X010340Y019279D02*
X010271Y019279D01*
X010340Y019120D02*
X010113Y019120D01*
X009954Y018962D02*
X010340Y018962D01*
X010340Y018803D02*
X009796Y018803D01*
X009637Y018645D02*
X010340Y018645D01*
X010340Y018486D02*
X009479Y018486D01*
X009320Y018328D02*
X010340Y018328D01*
X010340Y018169D02*
X009162Y018169D01*
X009003Y018011D02*
X010340Y018011D01*
X010340Y017852D02*
X008845Y017852D01*
X008728Y017694D02*
X010340Y017694D01*
X010340Y017535D02*
X008695Y017535D01*
X008536Y017377D02*
X010340Y017377D01*
X011475Y015725D02*
X011975Y015725D01*
X012259Y015475D02*
X014970Y015475D01*
X014970Y015633D02*
X012353Y015633D01*
X012353Y015792D02*
X014970Y015792D01*
X014970Y015950D02*
X012285Y015950D01*
X014553Y018486D02*
X017288Y018486D01*
X017288Y018328D02*
X014712Y018328D01*
X014870Y018169D02*
X015384Y018169D01*
X015816Y018169D02*
X017386Y018169D01*
X017288Y018645D02*
X014395Y018645D01*
X014236Y018803D02*
X017288Y018803D01*
X017317Y018962D02*
X014078Y018962D01*
X015428Y017060D02*
X017693Y017060D01*
X017475Y016901D02*
X015586Y016901D01*
X015380Y016630D02*
X015350Y016600D01*
X015380Y016630D02*
X017850Y016630D01*
X017975Y008350D02*
X017975Y007975D01*
X017725Y007725D01*
X016475Y005475D02*
X016475Y002475D01*
X016853Y002478D02*
X022377Y002478D01*
X022345Y002319D02*
X016853Y002319D01*
X016695Y002161D02*
X022345Y002161D01*
X022443Y002636D02*
X016849Y002636D01*
X016735Y002795D02*
X022550Y002795D01*
X022708Y002953D02*
X016735Y002953D01*
X016735Y003112D02*
X026120Y003112D01*
X026120Y003270D02*
X023702Y003270D01*
X023723Y003279D02*
X023971Y003527D01*
X024105Y003850D01*
X024105Y004200D01*
X023971Y004523D01*
X023723Y004771D01*
X023400Y004905D01*
X023050Y004905D01*
X022727Y004771D01*
X022479Y004523D01*
X022345Y004200D01*
X022345Y003850D01*
X022479Y003527D01*
X022727Y003279D01*
X023050Y003145D01*
X023400Y003145D01*
X023723Y003279D01*
X023873Y003429D02*
X026120Y003429D01*
X026120Y003587D02*
X023996Y003587D01*
X024062Y003746D02*
X026120Y003746D01*
X026120Y003904D02*
X024105Y003904D01*
X024105Y004063D02*
X026120Y004063D01*
X026120Y004221D02*
X024096Y004221D01*
X024031Y004380D02*
X026120Y004380D01*
X026120Y004538D02*
X023956Y004538D01*
X023798Y004697D02*
X026120Y004697D01*
X026120Y004855D02*
X023521Y004855D01*
X022929Y004855D02*
X016735Y004855D01*
X016735Y004697D02*
X022652Y004697D01*
X022493Y004538D02*
X016735Y004538D01*
X016735Y004380D02*
X022419Y004380D01*
X022354Y004221D02*
X016735Y004221D01*
X016735Y004063D02*
X022345Y004063D01*
X022345Y003904D02*
X016735Y003904D01*
X016735Y003746D02*
X022388Y003746D01*
X022454Y003587D02*
X016735Y003587D01*
X016735Y003429D02*
X022577Y003429D01*
X022748Y003270D02*
X016735Y003270D01*
X016735Y005014D02*
X026120Y005014D01*
X026120Y005172D02*
X016735Y005172D01*
X023742Y002953D02*
X026120Y002953D01*
X026120Y002795D02*
X023900Y002795D01*
X024007Y002636D02*
X026120Y002636D01*
X026120Y002478D02*
X024073Y002478D01*
X024105Y002319D02*
X026120Y002319D01*
X026120Y002161D02*
X024105Y002161D01*
X024085Y002002D02*
X026120Y002002D01*
X026120Y001844D02*
X024019Y001844D01*
X023930Y001685D02*
X026120Y001685D01*
X026120Y001527D02*
X023771Y001527D01*
X024728Y012622D02*
X026120Y012622D01*
X026120Y012780D02*
X024580Y012780D01*
X017600Y031008D02*
X017416Y031008D01*
X017358Y031166D02*
X017600Y031166D01*
X017600Y031325D02*
X017247Y031325D01*
X017033Y031483D02*
X017600Y031483D01*
X017600Y032276D02*
X017133Y032276D01*
X017121Y032266D02*
X017195Y032323D01*
X017260Y032388D01*
X017316Y032461D01*
X017363Y032541D01*
X017398Y032627D01*
X017422Y032716D01*
X017429Y032774D01*
X016809Y032774D01*
X016809Y032153D01*
X016867Y032161D01*
X016956Y032185D01*
X017041Y032220D01*
X017121Y032266D01*
X017295Y032434D02*
X017600Y032434D01*
X017600Y032593D02*
X017384Y032593D01*
X017426Y032751D02*
X017600Y032751D01*
X017600Y032910D02*
X016809Y032910D01*
X016809Y032751D02*
X016649Y032751D01*
X016649Y032593D02*
X016809Y032593D01*
X016809Y032434D02*
X016649Y032434D01*
X016649Y032276D02*
X016809Y032276D01*
X016649Y032910D02*
X014801Y032910D01*
X015419Y032751D02*
X016031Y032751D01*
X016074Y032593D02*
X015376Y032593D01*
X015985Y031325D02*
X016210Y031325D01*
X016100Y031166D02*
X015985Y031166D01*
X015985Y031008D02*
X016042Y031008D01*
X003100Y010225D02*
X003350Y009975D01*
X003350Y009725D01*
D19*
X003350Y009725D03*
X003350Y010725D03*
X002475Y010975D03*
X002475Y011725D03*
X001975Y012225D03*
X001975Y013350D03*
X003350Y014100D03*
X003350Y014725D03*
X003350Y015350D03*
X004975Y014725D03*
X006350Y015975D03*
X007225Y015850D03*
X007725Y016475D03*
X008350Y017725D03*
X009350Y017475D03*
X007850Y015350D03*
X008475Y014600D03*
X009350Y014725D03*
X007350Y012100D03*
X006975Y011350D03*
X006725Y011850D03*
X005350Y012100D03*
X005350Y011475D03*
X005350Y010850D03*
X004475Y009225D03*
X006725Y007350D03*
X006725Y005850D03*
X004975Y004850D03*
X003975Y004850D03*
X001850Y004475D03*
X001100Y003100D03*
X002100Y000850D03*
X007850Y000850D03*
X007850Y002475D03*
X009788Y004788D03*
X010100Y006725D03*
X008475Y007475D03*
X007850Y008475D03*
X009850Y009475D03*
X010600Y009475D03*
X011350Y009475D03*
X009975Y010600D03*
X009975Y011475D03*
X008975Y011475D03*
X011725Y014975D03*
X011975Y015725D03*
X011350Y017475D03*
X011350Y018725D03*
X012475Y021475D03*
X015600Y017850D03*
X017100Y015725D03*
X016225Y012975D03*
X017100Y012725D03*
X018850Y010600D03*
X017975Y008475D03*
X018725Y008100D03*
X017100Y008475D03*
X015350Y011350D03*
X014725Y012225D03*
X013600Y013850D03*
X013225Y013225D03*
X014725Y014975D03*
X014350Y010350D03*
X014350Y009350D03*
X013975Y007975D03*
X013350Y005225D03*
X011600Y005475D03*
X011600Y004100D03*
X011600Y002475D03*
X011600Y000850D03*
X015600Y000850D03*
X015600Y001600D03*
X016475Y002475D03*
X015600Y005225D03*
X019725Y004850D03*
X019725Y002475D03*
X019725Y000850D03*
X022100Y007225D03*
X023225Y008350D03*
X025600Y007225D03*
X025600Y011225D03*
X024350Y012475D03*
X024100Y014475D03*
X024100Y016100D03*
X025725Y016100D03*
X025725Y014475D03*
X022350Y016100D03*
X020475Y013850D03*
X020475Y011975D03*
X022225Y011975D03*
X020475Y008100D03*
X019475Y015475D03*
X019475Y017225D03*
X018225Y019600D03*
X015725Y021475D03*
X018225Y023475D03*
X015725Y025850D03*
X015725Y028100D03*
X014350Y028100D03*
X012475Y028100D03*
X012475Y025850D03*
X012600Y030850D03*
X010100Y031725D03*
X007725Y032725D03*
X006725Y032600D03*
X005725Y032850D03*
X004725Y032600D03*
X003725Y032600D03*
X002725Y032600D03*
X001725Y032600D03*
X001850Y028100D03*
X003725Y025850D03*
X001850Y023475D03*
X003725Y021475D03*
X001850Y019600D03*
X002100Y017350D03*
X006475Y017475D03*
X006725Y018725D03*
X008600Y021475D03*
X008600Y025850D03*
X008225Y028100D03*
X018225Y028100D03*
X025600Y000850D03*
D20*
X015600Y001600D02*
X006100Y001600D01*
X003975Y003725D01*
X003975Y004850D01*
X009788Y004788D02*
X012475Y007475D01*
X012475Y009725D01*
X014100Y011350D01*
X015350Y011350D01*
X015350Y016600D01*
X011225Y020725D01*
X011225Y031850D01*
X010350Y032725D01*
X007725Y032725D01*
D21*
X011725Y029975D02*
X011725Y020975D01*
X014850Y017850D01*
X015600Y017850D01*
X006475Y017475D02*
X004475Y017475D01*
X001975Y015100D01*
X001975Y013350D01*
X011725Y029975D02*
X012600Y030850D01*
M02*
