G75*
%MOIN*%
%OFA0B0*%
%FSLAX24Y24*%
%IPPOS*%
%LPD*%
%AMOC8*
5,1,8,0,0,1.08239X$1,22.5*
%
%ADD10R,0.0671X0.0592*%
%ADD11R,0.0300X0.0580*%
%ADD12R,0.0580X0.0300*%
%ADD13R,0.4332X0.3623*%
%ADD14R,0.0680X0.1580*%
%ADD15R,0.0356X0.0749*%
%ADD16R,0.0592X0.0671*%
%ADD17R,0.0671X0.0671*%
%ADD18R,0.0631X0.0474*%
%ADD19R,0.0789X0.0552*%
%ADD20R,0.0580X0.0659*%
%ADD21C,0.0634*%
%ADD22R,0.0867X0.0474*%
%ADD23R,0.0297X0.0552*%
%ADD24R,0.0710X0.1458*%
%ADD25R,0.1025X0.1182*%
%ADD26C,0.0880*%
%ADD27C,0.0830*%
%ADD28C,0.1130*%
%ADD29C,0.0680*%
%ADD30R,0.0680X0.0380*%
%ADD31R,0.0395X0.0789*%
%ADD32R,0.0356X0.0789*%
%ADD33C,0.0680*%
%ADD34OC8,0.0680*%
%ADD35R,0.0316X0.0552*%
%ADD36R,0.0631X0.0631*%
%ADD37C,0.0595*%
%ADD38R,0.0440X0.0780*%
%ADD39R,0.0595X0.0595*%
%ADD40R,0.0474X0.0631*%
%ADD41R,0.0867X0.0552*%
%ADD42R,0.0611X0.0316*%
%ADD43R,0.0277X0.0218*%
%ADD44OC8,0.0476*%
D10*
X002100Y002640D03*
X002100Y003310D03*
X002100Y005265D03*
X002100Y005935D03*
X001100Y011265D03*
X001100Y011935D03*
X006350Y014140D03*
X006350Y014810D03*
X012475Y016765D03*
X012475Y017435D03*
X017100Y011935D03*
X017100Y011265D03*
X017100Y009935D03*
X017100Y009265D03*
X017975Y009265D03*
X017975Y009935D03*
X018850Y009935D03*
X018850Y009265D03*
X019725Y009265D03*
X019725Y009935D03*
X020725Y009935D03*
X020725Y009265D03*
X021725Y009265D03*
X021725Y009935D03*
X023225Y009935D03*
X023225Y009265D03*
X018850Y011265D03*
X018850Y011935D03*
X015850Y008060D03*
X015850Y007390D03*
X014975Y007390D03*
X014975Y008060D03*
X015350Y003685D03*
X015350Y003015D03*
X007975Y003265D03*
X007975Y003935D03*
X006725Y031140D03*
X006725Y031810D03*
D11*
X006822Y013165D03*
X006507Y013165D03*
X006193Y013165D03*
X005878Y013165D03*
X005563Y013165D03*
X005248Y013165D03*
X007137Y013165D03*
X007452Y013165D03*
X007452Y009785D03*
X007137Y009785D03*
X006822Y009785D03*
X006507Y009785D03*
X006193Y009785D03*
X005878Y009785D03*
X005563Y009785D03*
X005248Y009785D03*
D12*
X004660Y010373D03*
X004660Y010688D03*
X004660Y011003D03*
X004660Y011318D03*
X004660Y011632D03*
X004660Y011947D03*
X004660Y012262D03*
X004660Y012577D03*
X008040Y012577D03*
X008040Y012262D03*
X008040Y011947D03*
X008040Y011632D03*
X008040Y011318D03*
X008040Y011003D03*
X008040Y010688D03*
X008040Y010373D03*
D13*
X004975Y002438D03*
D14*
X004975Y006725D03*
X003975Y006725D03*
X005975Y006725D03*
D15*
X005447Y014100D03*
X004975Y014100D03*
X004503Y014100D03*
D16*
X004640Y015475D03*
X005310Y015475D03*
X005890Y008350D03*
X006560Y008350D03*
X012515Y010725D03*
X013185Y010725D03*
X013185Y011600D03*
X012515Y011600D03*
X012515Y012475D03*
X013185Y012475D03*
X017640Y004725D03*
X018310Y004725D03*
X018310Y003725D03*
X017640Y003725D03*
X017640Y002725D03*
X018310Y002725D03*
X022890Y012475D03*
X023560Y012475D03*
X025265Y012475D03*
X025935Y012475D03*
X021060Y017225D03*
X020390Y017225D03*
X010810Y030850D03*
X010140Y030850D03*
X009310Y032725D03*
X008640Y032725D03*
D17*
X011600Y033039D03*
X012600Y033039D03*
X012600Y031661D03*
X011600Y031661D03*
D18*
X013667Y017474D03*
X013667Y016726D03*
X014533Y017100D03*
D19*
X008725Y030575D03*
X007725Y030575D03*
X007725Y031875D03*
X008725Y031875D03*
X005725Y031875D03*
X004725Y031875D03*
X003725Y031875D03*
X002725Y031875D03*
X001725Y031875D03*
X001725Y030575D03*
X002725Y030575D03*
X003725Y030575D03*
X004725Y030575D03*
X005725Y030575D03*
D20*
X016504Y001600D03*
X018196Y001600D03*
D21*
X017850Y014070D03*
X017850Y016630D03*
D22*
X025369Y018672D03*
X025369Y021428D03*
D23*
X016849Y004237D03*
X016475Y004237D03*
X016101Y004237D03*
X016101Y003213D03*
X016849Y003213D03*
D24*
X013350Y003413D03*
X013350Y001287D03*
X009850Y001287D03*
X009850Y003413D03*
D25*
X020981Y002225D03*
X020981Y004627D03*
X025469Y004627D03*
X025469Y002225D03*
D26*
X023225Y002225D03*
X023225Y004025D03*
D27*
X015725Y031850D03*
D28*
X014721Y030846D03*
X014721Y032854D03*
X016729Y032854D03*
X016729Y030846D03*
D29*
X011525Y013225D02*
X010925Y013225D01*
X010925Y012225D02*
X011525Y012225D01*
X011525Y011225D02*
X010925Y011225D01*
D30*
X009475Y007475D03*
X009475Y005975D03*
X007475Y005975D03*
X007475Y007475D03*
D31*
X022781Y013526D03*
X023214Y013526D03*
X023647Y013526D03*
X024080Y013526D03*
X024513Y013526D03*
X024946Y013526D03*
X025380Y013526D03*
X025380Y017266D03*
X024946Y017266D03*
X024513Y017266D03*
X024080Y017266D03*
X023647Y017266D03*
X023214Y017266D03*
X022781Y017266D03*
D32*
X022368Y017266D03*
X022368Y013526D03*
X025793Y013526D03*
X025793Y017266D03*
D33*
X001475Y009600D03*
D34*
X001475Y008600D03*
X001475Y007600D03*
X002475Y007600D03*
X002475Y008600D03*
X002475Y009600D03*
D35*
X015101Y009336D03*
X015475Y009336D03*
X015849Y009336D03*
X015849Y010364D03*
X015101Y010364D03*
D36*
X020975Y014727D03*
X020975Y016223D03*
X001100Y005973D03*
X001100Y004477D03*
D37*
X001725Y029600D03*
X002725Y029600D03*
X003725Y029600D03*
X004725Y029600D03*
X005725Y029600D03*
X006725Y029600D03*
X007725Y029600D03*
X008725Y029600D03*
X014725Y029600D03*
X015725Y029600D03*
X016725Y029600D03*
D38*
X015725Y022600D03*
X003725Y022600D03*
D39*
X001725Y018600D03*
X017725Y018600D03*
D40*
X022851Y011658D03*
X023225Y010792D03*
X023599Y011658D03*
D41*
X001153Y013998D03*
X001153Y016202D03*
D42*
X002600Y015691D03*
X002600Y015297D03*
X002600Y014903D03*
X002600Y014509D03*
D43*
X012446Y014466D03*
X012446Y014722D03*
X012446Y014978D03*
X012446Y015234D03*
X013254Y015234D03*
X013254Y014978D03*
X013254Y014722D03*
X013254Y014466D03*
D44*
X002100Y000850D03*
X001100Y003100D03*
X001850Y004475D03*
X003975Y004850D03*
X004975Y004850D03*
X006725Y005850D03*
X006725Y007350D03*
X007850Y008475D03*
X008475Y007475D03*
X009850Y009475D03*
X010600Y009475D03*
X011350Y009475D03*
X009975Y010600D03*
X009975Y011475D03*
X008975Y011475D03*
X007350Y012100D03*
X006975Y011350D03*
X006725Y011850D03*
X005350Y012100D03*
X005350Y011475D03*
X005350Y010850D03*
X004475Y009225D03*
X003350Y009725D03*
X003350Y010725D03*
X002475Y010975D03*
X002475Y011725D03*
X001975Y012225D03*
X001975Y013350D03*
X003350Y014100D03*
X003350Y014725D03*
X003350Y015350D03*
X004975Y014725D03*
X006350Y015975D03*
X007225Y015850D03*
X007725Y016475D03*
X008350Y017725D03*
X009350Y017475D03*
X007850Y015350D03*
X008475Y014600D03*
X009350Y014725D03*
X011350Y017475D03*
X011350Y018725D03*
X012475Y021475D03*
X015600Y017850D03*
X017100Y015725D03*
X016225Y012975D03*
X017100Y012725D03*
X018850Y010600D03*
X017975Y008475D03*
X018725Y008100D03*
X017100Y008475D03*
X015350Y011350D03*
X014725Y012225D03*
X013600Y013850D03*
X013225Y013225D03*
X014725Y014975D03*
X011975Y015725D03*
X011725Y014975D03*
X014350Y010350D03*
X014350Y009350D03*
X013975Y007975D03*
X013350Y005225D03*
X011600Y005475D03*
X011600Y004100D03*
X011600Y002475D03*
X011600Y000850D03*
X009788Y004788D03*
X010100Y006725D03*
X007850Y002475D03*
X007850Y000850D03*
X015600Y000850D03*
X015600Y001600D03*
X016475Y002475D03*
X015600Y005225D03*
X019725Y004850D03*
X019725Y002475D03*
X019725Y000850D03*
X022100Y007225D03*
X023225Y008350D03*
X025600Y007225D03*
X025600Y011225D03*
X024350Y012475D03*
X024100Y014475D03*
X024100Y016100D03*
X025725Y016100D03*
X025725Y014475D03*
X022350Y016100D03*
X020475Y013850D03*
X020475Y011975D03*
X022225Y011975D03*
X020475Y008100D03*
X019475Y015475D03*
X019475Y017225D03*
X018225Y019600D03*
X015725Y021475D03*
X018225Y023475D03*
X015725Y025850D03*
X015725Y028100D03*
X014350Y028100D03*
X012475Y028100D03*
X012475Y025850D03*
X012600Y030850D03*
X010100Y031725D03*
X007725Y032725D03*
X006725Y032600D03*
X005725Y032850D03*
X004725Y032600D03*
X003725Y032600D03*
X002725Y032600D03*
X001725Y032600D03*
X001850Y028100D03*
X003725Y025850D03*
X001850Y023475D03*
X003725Y021475D03*
X001850Y019600D03*
X002100Y017350D03*
X006475Y017475D03*
X006725Y018725D03*
X008600Y021475D03*
X008600Y025850D03*
X008225Y028100D03*
X018225Y028100D03*
X025600Y000850D03*
M02*
